{
DisplayStrings = (
Z,
"0123456789\012$/euro \U00A2\U00A3\U00A5/liraTurkish/ruble/rupeeIndian \U00A4"
);
copyright = "Copyright \U00A9 2015 by Rosetta Type Foundry. All rights reserved.";
customParameters = (
{
name = glyphOrder;
value = (
    ".notdef",
    NULL,
    CR,
    space,
    nbspace,
    enspace,
    emspace,
    thinspace,
    A,
    B,
    C,
    D,
    E,
    F,
    G,
    H,
    I,
    J,
    K,
    L,
    M,
    N,
    O,
    P,
    Q,
    R,
    S,
    T,
    U,
    V,
    W,
    X,
    Y,
    Z,
    a,
    b,
    c,
    d,
    e,
    f,
    g,
    h,
    i,
    j,
    k,
    l,
    m,
    n,
    o,
    p,
    q,
    r,
    s,
    t,
    u,
    v,
    w,
    x,
    y,
    z,
    quotesingle,
    quotedbl,
    numbersign,
    ampersand,
    asterisk,
    comma,
    hyphen,
    softhyphen,
    period,
    colon,
    semicolon,
    question,
    exclam,
    questiondown,
    exclamdown,
    at,
    parenleft,
    parenright,
    bracketleft,
    bracketright,
    braceleft,
    braceright,
    backslash,
    slash,
    brokenbar,
    bar,
    asciicircum,
    underscore,
    asciitilde,
    section,
    copyright,
    registered,
    trademark,
    ordfeminine,
    ordmasculine,
    guilsinglleft,
    guilsinglright,
    guillemetleft,
    guillemetright,
    quoteleft,
    quoteright,
    quotesinglbase,
    quotedblleft,
    quotedblright,
    quotedblbase,
    dagger,
    daggerdbl,
    ellipsis,
    paragraph,
    periodcentered,
    endash,
    emdash,
    circumflex,
    caron,
    macron,
    firsttonechinese,
    breve,
    dieresis,
    acute,
    grave,
    cedilla,
    dotaccent,
    ring,
    ogonek,
    tilde,
    hungarumlaut,
    circumflexcomb,
    "circumflexcomb.case",
    caroncomb,
    "caroncomb.case",
    "caroncomb.calt",
    macroncomb,
    "macroncomb.case",
    brevecomb,
    "brevecomb.case",
    dieresiscomb,
    "dieresiscomb.case",
    acutecomb,
    "acutecomb.case",
    gravecomb,
    "gravecomb.case",

glyphs = (
{
glyphname = .notdef;
lastChange = "2016-01-10 17:50:50 +0000";
layers = (
{
background = {
paths = (
{
closed = 1;
nodes = (
"440 387 LINE",
"783 705 LINE",
"439 1043 LINE",
"553 1159 LINE",
"886 807 LINE",
"1214 1158 LINE",
"1333 1042 LINE",
"985 708 LINE",
"1333 365 LINE",
"1220 252 LINE",
"883 605 LINE",
"559 252 LINE"
);
},
{
closed = 1;
nodes = (
"177 0 LINE",
"1593 0 LINE",
"1593 1416 LINE",
"177 1416 LINE"
);
}
);
};
layerId = "CC155F3D-C5F1-4BD6-ADDB-35EE7B3EECEB";
name = Light;
paths = (
{
closed = 1;
nodes = (
"440 387 LINE",
"783 705 LINE",
"439 1043 LINE",
"553 1159 LINE",
"886 807 LINE",
"1214 1158 LINE",
"1333 1042 LINE",
"985 708 LINE",
"1333 365 LINE",
"1220 252 LINE",
"883 605 LINE",
"559 252 LINE"
);
},
{
closed = 1;
nodes = (
"177 0 LINE",
"1593 0 LINE",
"1593 1416 LINE",
"177 1416 LINE"
);
}
);
width = 1770;
},
{
background = {
paths = (
{
closed = 1;
nodes = (
"440 387 LINE",
"783 705 LINE",
"439 1043 LINE",
"553 1159 LINE",
"886 807 LINE",
"1214 1158 LINE",
"1333 1042 LINE",
"985 708 LINE",
"1333 365 LINE",
"1220 252 LINE",
"883 605 LINE",
"559 252 LINE"
);
},
{
closed = 1;
nodes = (
"177 0 LINE",
"1593 0 LINE",
"1593 1416 LINE",
"177 1416 LINE"
);
}
);
};
layerId = "8FEE59FF-6340-42D3-B032-E0350BDE9EA7";
name = Bold;
paths = (
{
closed = 1;
nodes = (
"440 387 LINE",
"783 705 LINE",
"439 1043 LINE",
"553 1159 LINE",
"886 807 LINE",
"1214 1158 LINE",
"1333 1042 LINE",
"985 708 LINE",
"1333 365 LINE",
"1220 252 LINE",
"883 605 LINE",
"559 252 LINE"
);
},
{
closed = 1;
nodes = (
"177 0 LINE",
"1593 0 LINE",
"1593 1416 LINE",
"177 1416 LINE"
);
}
);
width = 1770;
}
);
},
{
glyphname = A;
lastChange = "2016-01-10 17:50:50 +0000";
layers = (
{
anchors = (
{
name = btm;
position = "{735, 0}";
},
{
name = top;
position = "{762, 1562}";
}
);
background = {
anchors = (
{
name = btm;
position = "{757, -170}";
},
{
name = top;
position = "{786, 1700}";
}
);
paths = (
{
closed = 1;
nodes = (
"60 0 LINE",
"521 0 LINE",
"521 88 LINE",
"317 111 LINE",
"325 64 LINE",
"707 1214 LINE",
"763 1415 LINE",
"820 1220 LINE",
"1209 68 LINE",
"1226 111 LINE",
"1015 88 LINE",
"1015 0 LINE",
"1515 0 LINE",
"1515 88 LINE",
"1354 111 LINE",
"1397 62 LINE",
"870 1537 LINE",
"702 1537 LINE",
"178 68 LINE",
"221 112 LINE",
"60 88 LINE"
);
},
{
closed = 1;
nodes = (
"384 433 LINE",
"1126 433 LINE",
"1084 539 LINE",
"418 539 LINE"
);
}
);
};
layerId = "CC155F3D-C5F1-4BD6-ADDB-35EE7B3EECEB";
name = Light;
paths = (
{
closed = 1;
nodes = (
"352 483 LINE",
"1114 483 LINE",
"1072 589 LINE",
"386 589 LINE"
);
},
{
closed = 1;
nodes = (
"840 1567 LINE",
"672 1567 LINE",
"188 170 LINE SMOOTH",
"178 140 OFFCURVE",
"157 123 OFFCURVE",
"126 116 CURVE SMOOTH",
"8 88 LINE",
"8 0 LINE",
"507 0 LINE",
"507 88 LINE",
"307 126 LINE",
"765 1494 LINE",
"694 1494 LINE",
"1184 126 LINE",
"984 88 LINE",
"984 0 LINE",
"1523 0 LINE",
"1523 88 LINE",
"1412 116 LINE SMOOTH",
"1380 124 OFFCURVE",
"1361 139 OFFCURVE",
"1350 170 CURVE SMOOTH"
);
}
);
width = 1526;
},
{
anchors = (
{
name = btm;
position = "{641, 0}";
},
{
name = top;
position = "{812, 1562}";
}
);
background = {
anchors = (
{
name = btm;
position = "{698, -170}";
},
{
name = top;
position = "{851, 1700}";
}
);
paths = (
{
closed = 1;
nodes = (
"83 0 LINE",
"657 0 LINE",
"657 152 LINE",
"470 174 LINE",
"485 87 LINE",
"751 1153 LINE",
"775 1279 LINE",
"797 1153 LINE",
"1077 91 LINE",
"1102 183 LINE",
"922 152 LINE",
"922 0 LINE",
"1619 0 LINE",
"1619 152 LINE",
"1463 186 LINE",
"1539 92 LINE",
"1074 1525 LINE",
"632 1525 LINE",
"170 99 LINE",
"251 188 LINE",
"80 152 LINE"
);
},
{
closed = 1;
nodes = (
"429 392 LINE",
"1140 392 LINE",
"1081 565 LINE",
"478 565 LINE"
);
}
);
};
layerId = "8FEE59FF-6340-42D3-B032-E0350BDE9EA7";
name = Bold;
paths = (
{
closed = 1;
nodes = (
"367 453 LINE",
"1093 453 LINE",
"1034 635 LINE",
"416 635 LINE"
);
},
{
closed = 1;
nodes = (
"1005 1567 LINE",
"618 1567 LINE",
"168 234 LINE SMOOTH",
"159 208 OFFCURVE",
"143 194 OFFCURVE",
"117 188 CURVE SMOOTH",
"-22 154 LINE",
"-22 0 LINE",
"577 0 LINE",
"577 154 LINE",
"387 183 LINE",
"753 1411 LINE",
"667 1411 LINE",
"1036 183 LINE",
"846 154 LINE",
"846 0 LINE",
"1633 0 LINE",
"1633 154 LINE",
"1505 188 LINE SMOOTH",
"1480 195 OFFCURVE",
"1463 208 OFFCURVE",
"1454 234 CURVE SMOOTH"
);
}
);
width = 1621;
}
);
unicode = 0041;
},
{
glyphname = B;
lastChange = "2016-01-10 17:50:50 +0000";
layers = (
{
anchors = (
{
name = btm;
position = "{790, 0}";
},
{
name = top;
position = "{790, 1562}";
}
);
background = {
anchors = (
{
name = btm;
position = "{737, -170}";
},
{
name = top;
position = "{737, 1700}";
}
);
paths = (
{
closed = 1;
nodes = (
"103 0 LINE",
"355 0 LINE",
"511 0 OFFCURVE",
"580 -12 OFFCURVE",
"679 -12 CURVE SMOOTH",
"1154 -12 OFFCURVE",
"1296 215 OFFCURVE",
"1296 455 CURVE SMOOTH",
"1296 671 OFFCURVE",
"1144 820 OFFCURVE",
"885 810 CURVE",
"1084 850 OFFCURVE",
"1187 1009 OFFCURVE",
"1187 1194 CURVE SMOOTH",
"1187 1410 OFFCURVE",
"1048 1538 OFFCURVE",
"681 1538 CURVE SMOOTH",
"580 1538 OFFCURVE",
"485 1522 OFFCURVE",
"363 1522 CURVE",
"107 1522 LINE",
"107 1434 LINE",
"299 1409 LINE",
"278 1450 LINE",
"278 65 LINE",
"317 111 LINE",
"103 88 LINE"
);
},
{
closed = 1;
nodes = (
"447 736 LINE",
"508 739 OFFCURVE",
"666 738 OFFCURVE",
"740 738 CURVE SMOOTH",
"1004 738 OFFCURVE",
"1113 642 OFFCURVE",
"1113 423 CURVE SMOOTH",
"1113 216 OFFCURVE",
"996 85 OFFCURVE",
"678 85 CURVE SMOOTH",
"608 85 OFFCURVE",
"499 87 OFFCURVE",
"447 103 CURVE"
);
},
{
closed = 1;
nodes = (
"447 1431 LINE",
"487 1432 OFFCURVE",
"560 1444 OFFCURVE",
"660 1444 CURVE SMOOTH",
"931 1444 OFFCURVE",
"1018 1346 OFFCURVE",
"1018 1156 CURVE SMOOTH",
"1018 955 OFFCURVE",
"906 843 OFFCURVE",
"699 843 CURVE SMOOTH",
"645 843 OFFCURVE",
"509 842 OFFCURVE",
"447 846 CURVE"
);
}
);
};
layerId = "CC155F3D-C5F1-4BD6-ADDB-35EE7B3EECEB";
name = Light;
paths = (
{
closed = 1;
nodes = (
"1246 1214 CURVE SMOOTH",
"1246 1448 OFFCURVE",
"1101 1578 OFFCURVE",
"744 1578 CURVE SMOOTH",
"633 1578 OFFCURVE",
"538 1562 OFFCURVE",
"416 1562 CURVE SMOOTH",
"116 1562 LINE",
"116 1474 LINE",
"285 1440 LINE SMOOTH",
"313 1434 OFFCURVE",
"331 1412 OFFCURVE",
"331 1384 CURVE SMOOTH",
"331 175 LINE SMOOTH",
"331 146 OFFCURVE",
"311 123 OFFCURVE",
"283 118 CURVE SMOOTH",
"116 88 LINE",
"116 0 LINE",
"408 0 LINE SMOOTH",
"564 0 OFFCURVE",
"633 -12 OFFCURVE",
"732 -12 CURVE SMOOTH",
"1207 -12 OFFCURVE",
"1355 195 OFFCURVE",
"1355 458 CURVE SMOOTH",
"1355 702 OFFCURVE",
"1182 854 OFFCURVE",
"900 827 CURVE",
"900 818 LINE",
"1131 844 OFFCURVE",
"1246 1008 OFFCURVE"
);
},
{
closed = 1;
nodes = (
"441 753 LINE",
"543 757 OFFCURVE",
"715 758 OFFCURVE",
"793 758 CURVE SMOOTH",
"1057 758 OFFCURVE",
"1172 662 OFFCURVE",
"1172 429 CURVE SMOOTH",
"1172 196 OFFCURVE",
"1049 84 OFFCURVE",
"731 84 CURVE SMOOTH",
"661 84 OFFCURVE",
"559 93 OFFCURVE",
"499 101 CURVE",
"499 1471 LINE",
"540 1472 OFFCURVE",
"613 1484 OFFCURVE",
"713 1484 CURVE SMOOTH",
"984 1484 OFFCURVE",
"1077 1386 OFFCURVE",
"1077 1187 CURVE SMOOTH",
"1077 965 OFFCURVE",
"959 863 OFFCURVE",
"752 863 CURVE SMOOTH",
"695 863 OFFCURVE",
"544 862 OFFCURVE",
"439 867 CURVE"
);
}
);
width = 1477;
},
{
anchors = (
{
name = btm;
position = "{836, 0}";
},
{
name = top;
position = "{836, 1562}";
}
);
background = {
anchors = (
{
name = btm;
position = "{802, -170}";
},
{
name = top;
position = "{802, 1700}";
}
);
paths = (
{
closed = 1;
nodes = (
"105 0 LINE",
"462 0 LINE",
"587 0 OFFCURVE",
"646 -12 OFFCURVE",
"815 -12 CURVE SMOOTH",
"1346 -12 OFFCURVE",
"1496 190 OFFCURVE",
"1496 463 CURVE SMOOTH",
"1496 695 OFFCURVE",
"1314 811 OFFCURVE",
"1043 813 CURVE",
"1230 835 OFFCURVE",
"1392 964 OFFCURVE",
"1392 1185 CURVE SMOOTH",
"1392 1399 OFFCURVE",
"1284 1533 OFFCURVE",
"790 1533 CURVE SMOOTH",
"685 1533 OFFCURVE",
"585 1522 OFFCURVE",
"454 1522 CURVE",
"106 1522 LINE",
"106 1360 LINE",
"285 1324 LINE",
"254 1377 LINE",
"254 142 LINE",
"284 181 LINE",
"105 152 LINE"
);
},
{
closed = 1;
nodes = (
"663 691 LINE",
"692 693 OFFCURVE",
"756 696 OFFCURVE",
"810 696 CURVE SMOOTH",
"961 696 OFFCURVE",
"1038 634 OFFCURVE",
"1038 446 CURVE SMOOTH",
"1038 260 OFFCURVE",
"974 143 OFFCURVE",
"801 143 CURVE SMOOTH",
"750 143 OFFCURVE",
"687 149 OFFCURVE",
"663 161 CURVE"
);
},
{
closed = 1;
nodes = (
"664 1376 LINE",
"684 1381 OFFCURVE",
"774 1385 OFFCURVE",
"781 1385 CURVE SMOOTH",
"918 1385 OFFCURVE",
"982 1314 OFFCURVE",
"982 1152 CURVE SMOOTH",
"982 980 OFFCURVE",
"936 866 OFFCURVE",
"798 866 CURVE SMOOTH",
"752 866 OFFCURVE",
"693 867 OFFCURVE",
"664 871 CURVE"
);
}
);
};
layerId = "8FEE59FF-6340-42D3-B032-E0350BDE9EA7";
name = Bold;
paths = (
{
closed = 1;
nodes = (
"1432 1205 CURVE SMOOTH",
"1432 1449 OFFCURVE",
"1318 1573 OFFCURVE",
"864 1573 CURVE SMOOTH",
"719 1573 OFFCURVE",
"619 1562 OFFCURVE",
"488 1562 CURVE SMOOTH",
"84 1562 LINE",
"84 1400 LINE",
"245 1369 LINE SMOOTH",
"268 1364 OFFCURVE",
"284 1345 OFFCURVE",
"284 1321 CURVE SMOOTH",
"284 231 LINE SMOOTH",
"284 207 OFFCURVE",
"268 188 OFFCURVE",
"245 184 CURVE SMOOTH",
"84 154 LINE",
"84 0 LINE",
"496 0 LINE SMOOTH",
"621 0 OFFCURVE",
"700 -12 OFFCURVE",
"859 -12 CURVE SMOOTH",
"1380 -12 OFFCURVE",
"1536 190 OFFCURVE",
"1536 463 CURVE SMOOTH",
"1536 736 OFFCURVE",
"1311 852 OFFCURVE",
"1039 833 CURVE",
"1039 817 LINE",
"1268 826 OFFCURVE",
"1432 952 OFFCURVE"
);
},
{
closed = 1;
nodes = (
"629 710 LINE",
"712 712 OFFCURVE",
"784 716 OFFCURVE",
"844 716 CURVE SMOOTH",
"995 716 OFFCURVE",
"1078 654 OFFCURVE",
"1078 456 CURVE SMOOTH",
"1078 260 OFFCURVE",
"1008 143 OFFCURVE",
"835 143 CURVE SMOOTH",
"784 143 OFFCURVE",
"731 149 OFFCURVE",
"698 156 CURVE",
"698 1416 LINE",
"718 1421 OFFCURVE",
"808 1425 OFFCURVE",
"815 1425 CURVE SMOOTH",
"952 1425 OFFCURVE",
"1022 1354 OFFCURVE",
"1022 1172 CURVE SMOOTH",
"1022 990 OFFCURVE",
"970 886 OFFCURVE",
"832 886 CURVE SMOOTH",
"781 886 OFFCURVE",
"713 887 OFFCURVE",
"629 893 CURVE"
);
}
);
width = 1608;
}
);
unicode = 0042;
},
{
glyphname = C;
lastChange = "2016-01-10 17:50:50 +0000";
layers = (
{
anchors = (
{
name = btm;
position = "{826, 0}";
},
{
name = top;
position = "{835, 1562}";
}
);
background = {
anchors = (
{
name = btm;
position = "{765, -170}";
},
{
name = top;
position = "{784, 1700}";
}
);
paths = (
{
closed = 1;
nodes = (
"772 -23 CURVE SMOOTH",
"1017 -23 OFFCURVE",
"1093 51 OFFCURVE",
"1201 56 CURVE",
"1251 329 LINE",
"1151 344 LINE",
"1069 151 LINE",
"1015 108 OFFCURVE",
"946 75 OFFCURVE",
"776 75 CURVE SMOOTH",
"426 75 OFFCURVE",
"267 416 OFFCURVE",
"267 786 CURVE SMOOTH",
"267 1207 OFFCURVE",
"484 1439 OFFCURVE",
"762 1439 CURVE SMOOTH",
"924 1439 OFFCURVE",
"1031 1410 OFFCURVE",
"1068 1376 CURVE",
"1112 1139 LINE",
"1218 1139 LINE",
"1235 1473 LINE",
"1164 1489 OFFCURVE",
"986 1538 OFFCURVE",
"803 1538 CURVE SMOOTH",
"391 1538 OFFCURVE",
"74 1224 OFFCURVE",
"74 768 CURVE SMOOTH",
"74 293 OFFCURVE",
"325 -23 OFFCURVE"
);
}
);
};
layerId = "CC155F3D-C5F1-4BD6-ADDB-35EE7B3EECEB";
name = Light;
paths = (
{
closed = 1;
nodes = (
"841 -26 CURVE SMOOTH",
"1005 -26 OFFCURVE",
"1167 5 OFFCURVE",
"1275 52 CURVE",
"1294 160 OFFCURVE",
"1306 285 OFFCURVE",
"1304 391 CURVE",
"1204 401 LINE",
"1143 191 LINE SMOOTH",
"1137 169 OFFCURVE",
"1117 147 OFFCURVE",
"1093 131 CURVE SMOOTH",
"1041 98 OFFCURVE",
"936 73 OFFCURVE",
"818 73 CURVE SMOOTH",
"478 73 OFFCURVE",
"328 383 OFFCURVE",
"328 797 CURVE SMOOTH",
"328 1272 OFFCURVE",
"524 1485 OFFCURVE",
"818 1485 CURVE SMOOTH",
"929 1485 OFFCURVE",
"1037 1459 OFFCURVE",
"1086 1431 CURVE SMOOTH",
"1115 1415 OFFCURVE",
"1128 1396 OFFCURVE",
"1135 1365 CURVE SMOOTH",
"1179 1153 LINE",
"1279 1153 LINE",
"1295 1270 OFFCURVE",
"1304 1402 OFFCURVE",
"1300 1513 CURVE",
"1170 1563 OFFCURVE",
"1012 1585 OFFCURVE",
"871 1585 CURVE SMOOTH",
"428 1585 OFFCURVE",
"135 1300 OFFCURVE",
"135 754 CURVE SMOOTH",
"135 271 OFFCURVE",
"366 -26 OFFCURVE"
);
}
);
width = 1431;
},
{
anchors = (
{
name = btm;
position = "{785, 0}";
},
{
name = top;
position = "{839, 1562}";
}
);
background = {
anchors = (
{
name = btm;
position = "{745, -170}";
},
{
name = top;
position = "{799, 1700}";
}
);
paths = (
{
closed = 1;
nodes = (
"782 -23 CURVE SMOOTH",
"1043 -23 OFFCURVE",
"1129 40 OFFCURVE",
"1277 56 CURVE",
"1310 410 LINE",
"1076 430 LINE",
"978 200 LINE",
"950 169 OFFCURVE",
"914 141 OFFCURVE",
"809 141 CURVE SMOOTH",
"615 141 OFFCURVE",
"517 391 OFFCURVE",
"517 772 CURVE SMOOTH",
"517 1186 OFFCURVE",
"627 1376 OFFCURVE",
"803 1376 CURVE SMOOTH",
"894 1376 OFFCURVE",
"932 1353 OFFCURVE",
"950 1334 CURVE",
"1028 991 LINE",
"1287 991 LINE",
"1314 1493 LINE",
"1229 1493 OFFCURVE",
"1027 1538 OFFCURVE",
"820 1538 CURVE SMOOTH",
"375 1538 OFFCURVE",
"50 1250 OFFCURVE",
"50 740 CURVE SMOOTH",
"50 279 OFFCURVE",
"284 -23 OFFCURVE"
);
}
);
};
layerId = "8FEE59FF-6340-42D3-B032-E0350BDE9EA7";
name = Bold;
paths = (
{
closed = 1;
nodes = (
"803 -36 CURVE SMOOTH",
"983 -36 OFFCURVE",
"1201 2 OFFCURVE",
"1351 51 CURVE",
"1373 209 OFFCURVE",
"1373 356 OFFCURVE",
"1365 471 CURVE",
"1126 491 LINE",
"1052 251 LINE SMOOTH",
"1039 210 OFFCURVE",
"1028 188 OFFCURVE",
"1005 171 CURVE SMOOTH",
"970 145 OFFCURVE",
"913 127 OFFCURVE",
"845 127 CURVE SMOOTH",
"645 127 OFFCURVE",
"554 349 OFFCURVE",
"554 788 CURVE SMOOTH",
"554 1257 OFFCURVE",
"657 1433 OFFCURVE",
"843 1433 CURVE SMOOTH",
"895 1433 OFFCURVE",
"946 1418 OFFCURVE",
"984 1392 CURVE SMOOTH",
"1018 1369 OFFCURVE",
"1031 1340 OFFCURVE",
"1038 1310 CURVE SMOOTH",
"1099 1039 LINE",
"1344 1039 LINE",
"1371 1216 OFFCURVE",
"1377 1370 OFFCURVE",
"1366 1507 CURVE",
"1218 1561 OFFCURVE",
"1031 1593 OFFCURVE",
"866 1593 CURVE SMOOTH",
"396 1593 OFFCURVE",
"87 1332 OFFCURVE",
"87 745 CURVE SMOOTH",
"87 238 OFFCURVE",
"319 -36 OFFCURVE"
);
}
);
width = 1464;
}
);
unicode = 0043;
},
{
glyphname = D;
lastChange = "2016-01-10 17:50:50 +0000";
layers = (
{
anchors = (
{
name = btm;
position = "{858, 0}";
},
{
name = top;
position = "{799, 1562}";
}
);
background = {
anchors = (
{
name = btm;
position = "{805, -170}";
},
{
name = top;
position = "{806, 1700}";
}
);
paths = (
{
closed = 1;
nodes = (
"102 0 LINE",
"194 0 OFFCURVE",
"274 0 OFFCURVE",
"365 0 CURVE SMOOTH",
"483 0 OFFCURVE",
"600 -14 OFFCURVE",
"698 -16 CURVE SMOOTH",
"1154 -27 OFFCURVE",
"1475 305 OFFCURVE",
"1475 806 CURVE SMOOTH",
"1475 1246 OFFCURVE",
"1256 1538 OFFCURVE",
"724 1538 CURVE SMOOTH",
"603 1538 OFFCURVE",
"488 1522 OFFCURVE",
"362 1522 CURVE SMOOTH",
"114 1522 LINE",
"114 1434 LINE",
"302 1408 LINE",
"278 1445 LINE",
"278 67 LINE",
"318 112 LINE",
"102 88 LINE"
);
},
{
closed = 1;
nodes = (
"447 1427 LINE",
"503 1430 OFFCURVE",
"579 1440 OFFCURVE",
"672 1440 CURVE SMOOTH",
"1087 1440 OFFCURVE",
"1294 1217 OFFCURVE",
"1294 771 CURVE SMOOTH",
"1294 326 OFFCURVE",
"1053 89 OFFCURVE",
"723 83 CURVE SMOOTH",
"629 81 OFFCURVE",
"545 82 OFFCURVE",
"447 100 CURVE"
);
}
);
};
layerId = "CC155F3D-C5F1-4BD6-ADDB-35EE7B3EECEB";
name = Light;
paths = (
{
closed = 1;
nodes = (
"415 1562 CURVE SMOOTH",
"116 1562 LINE",
"116 1474 LINE",
"285 1440 LINE SMOOTH",
"313 1434 OFFCURVE",
"331 1412 OFFCURVE",
"331 1384 CURVE SMOOTH",
"331 179 LINE SMOOTH",
"331 146 OFFCURVE",
"312 123 OFFCURVE",
"277 117 CURVE SMOOTH",
"116 88 LINE",
"116 0 LINE",
"418 0 LINE SMOOTH",
"537 0 OFFCURVE",
"663 -13 OFFCURVE",
"752 -15 CURVE SMOOTH",
"1223 -25 OFFCURVE",
"1529 265 OFFCURVE",
"1529 824 CURVE SMOOTH",
"1529 1306 OFFCURVE",
"1301 1578 OFFCURVE",
"781 1578 CURVE SMOOTH",
"654 1578 OFFCURVE",
"543 1562 OFFCURVE"
);
},
{
closed = 1;
nodes = (
"501 101 CURVE",
"501 1465 LINE",
"556 1468 OFFCURVE",
"634 1478 OFFCURVE",
"726 1478 CURVE SMOOTH",
"1141 1478 OFFCURVE",
"1348 1277 OFFCURVE",
"1348 793 CURVE SMOOTH",
"1348 311 OFFCURVE",
"1142 97 OFFCURVE",
"777 85 CURVE SMOOTH",
"693 82 OFFCURVE",
"567 90 OFFCURVE"
);
}
);
width = 1664;
},
{
anchors = (
{
name = btm;
position = "{895, 0}";
},
{
name = top;
position = "{823, 1562}";
}
);
background = {
anchors = (
{
name = btm;
position = "{861, -170}";
},
{
name = top;
position = "{829, 1700}";
}
);
paths = (
{
closed = 1;
nodes = (
"101 0 LINE",
"128 0 OFFCURVE",
"428 0 OFFCURVE",
"455 0 CURVE SMOOTH",
"520 0 OFFCURVE",
"665 -13 OFFCURVE",
"777 -16 CURVE SMOOTH",
"1275 -27 OFFCURVE",
"1560 340 OFFCURVE",
"1560 817 CURVE SMOOTH",
"1560 1280 OFFCURVE",
"1308 1533 OFFCURVE",
"808 1533 CURVE SMOOTH",
"678 1533 OFFCURVE",
"585 1522 OFFCURVE",
"451 1522 CURVE SMOOTH",
"105 1522 LINE",
"105 1360 LINE",
"291 1322 LINE",
"250 1372 LINE",
"250 130 LINE",
"282 181 LINE",
"101 152 LINE"
);
},
{
closed = 1;
nodes = (
"659 1359 LINE",
"672 1362 OFFCURVE",
"706 1376 OFFCURVE",
"768 1376 CURVE SMOOTH",
"1024 1376 OFFCURVE",
"1105 1108 OFFCURVE",
"1105 762 CURVE SMOOTH",
"1105 322 OFFCURVE",
"987 151 OFFCURVE",
"784 150 CURVE SMOOTH",
"735 150 OFFCURVE",
"688 156 OFFCURVE",
"659 171 CURVE"
);
}
);
};
layerId = "8FEE59FF-6340-42D3-B032-E0350BDE9EA7";
name = Bold;
paths = (
{
closed = 1;
nodes = (
"485 1562 CURVE SMOOTH",
"84 1562 LINE",
"84 1400 LINE",
"245 1369 LINE SMOOTH",
"268 1364 OFFCURVE",
"284 1345 OFFCURVE",
"284 1321 CURVE SMOOTH",
"284 232 LINE SMOOTH",
"284 208 OFFCURVE",
"268 188 OFFCURVE",
"244 184 CURVE SMOOTH",
"84 154 LINE",
"84 0 LINE",
"489 0 LINE SMOOTH",
"561 0 OFFCURVE",
"726 -14 OFFCURVE",
"818 -16 CURVE SMOOTH",
"1318 -26 OFFCURVE",
"1606 282 OFFCURVE",
"1606 834 CURVE SMOOTH",
"1606 1355 OFFCURVE",
"1349 1573 OFFCURVE",
"842 1573 CURVE SMOOTH",
"728 1573 OFFCURVE",
"622 1562 OFFCURVE"
);
},
{
closed = 1;
nodes = (
"700 171 CURVE",
"700 1399 LINE",
"704 1400 OFFCURVE",
"755 1417 OFFCURVE",
"819 1417 CURVE SMOOTH",
"1065 1417 OFFCURVE",
"1151 1168 OFFCURVE",
"1151 773 CURVE SMOOTH",
"1151 292 OFFCURVE",
"1026 150 OFFCURVE",
"820 150 CURVE SMOOTH",
"778 150 OFFCURVE",
"729 156 OFFCURVE"
);
}
);
width = 1693;
}
);
unicode = 0044;
},
{
glyphname = E;
lastChange = "2016-01-10 17:50:50 +0000";
layers = (
{
anchors = (
{
name = btm;
position = "{752, 0}";
},
{
name = top;
position = "{730, 1562}";
}
);
background = {
anchors = (
{
name = btm;
position = "{698, -170}";
},
{
name = top;
position = "{696, 1700}";
}
);
paths = (
{
closed = 1;
nodes = (
"103 0 LINE",
"1212 0 LINE",
"1275 346 LINE",
"1178 377 LINE",
"1074 121 LINE",
"447 104 LINE",
"447 735 LINE",
"824 730 LINE",
"849 555 LINE",
"953 555 LINE",
"953 1007 LINE",
"849 1007 LINE",
"824 837 LINE",
"447 831 LINE",
"447 1427 LINE",
"995 1418 LINE",
"1051 1221 LINE",
"1148 1221 LINE",
"1120 1522 LINE",
"107 1522 LINE",
"107 1434 LINE",
"299 1409 LINE",
"278 1453 LINE",
"278 66 LINE",
"325 113 LINE",
"103 88 LINE"
);
}
);
};
guideLines = (
{
angle = 180;
position = "{605, 749}";
},
{
position = "{605, 855}";
}
);
layerId = "CC155F3D-C5F1-4BD6-ADDB-35EE7B3EECEB";
name = Light;
paths = (
{
closed = 1;
nodes = (
"1190 1192 LINE",
"1202 1325 OFFCURVE",
"1203 1442 OFFCURVE",
"1195 1562 CURVE",
"116 1562 LINE",
"116 1474 LINE",
"277 1442 LINE SMOOTH",
"312 1435 OFFCURVE",
"331 1412 OFFCURVE",
"331 1377 CURVE SMOOTH",
"331 182 LINE SMOOTH",
"331 146 OFFCURVE",
"313 124 OFFCURVE",
"277 117 CURVE SMOOTH",
"116 88 LINE",
"116 0 LINE",
"1246 0 LINE",
"1271 129 OFFCURVE",
"1287 265 OFFCURVE",
"1289 384 CURVE",
"1201 397 LINE",
"1130 189 LINE SMOOTH",
"1120 161 OFFCURVE",
"1105 144 OFFCURVE",
"1073 132 CURVE SMOOTH",
"1024 114 OFFCURVE",
"934 108 OFFCURVE",
"840 108 CURVE SMOOTH",
"501 108 LINE",
"501 749 LINE",
"1007 736 LINE",
"1007 872 LINE",
"501 855 LINE",
"501 1464 LINE",
"778 1464 LINE SMOOTH",
"872 1464 OFFCURVE",
"952 1458 OFFCURVE",
"1001 1440 CURVE SMOOTH",
"1033 1428 OFFCURVE",
"1051 1412 OFFCURVE",
"1058 1383 CURVE SMOOTH",
"1101 1192 LINE"
);
}
);
width = 1388;
},
{
anchors = (
{
name = btm;
position = "{793, 0}";
},
{
name = top;
position = "{746, 1562}";
}
);
background = {
anchors = (
{
name = btm;
position = "{759, -170}";
},
{
name = top;
position = "{742, 1700}";
}
);
paths = (
{
closed = 1;
nodes = (
"101 0 LINE",
"1339 0 LINE",
"1383 399 LINE",
"1182 454 LINE",
"1050 187 LINE",
"666 156 LINE",
"666 684 LINE",
"873 679 LINE",
"910 500 LINE",
"1064 500 LINE",
"1064 1034 LINE",
"910 1034 LINE",
"871 868 LINE",
"666 863 LINE",
"666 1373 LINE",
"1017 1348 LINE",
"1094 1138 LINE",
"1279 1138 LINE",
"1251 1522 LINE",
"95 1522 LINE",
"95 1360 LINE",
"289 1322 LINE",
"250 1418 LINE",
"250 131 LINE",
"285 181 LINE",
"101 152 LINE"
);
}
);
};
guideLines = (
{
position = "{620, 696}";
},
{
position = "{615, 890}";
}
);
layerId = "8FEE59FF-6340-42D3-B032-E0350BDE9EA7";
name = Bold;
paths = (
{
closed = 1;
nodes = (
"1315 1125 LINE",
"1327 1273 OFFCURVE",
"1327 1417 OFFCURVE",
"1307 1562 CURVE",
"84 1562 LINE",
"84 1400 LINE",
"239 1370 LINE SMOOTH",
"269 1364 OFFCURVE",
"284 1345 OFFCURVE",
"284 1315 CURVE SMOOTH",
"284 237 LINE SMOOTH",
"284 207 OFFCURVE",
"269 189 OFFCURVE",
"239 183 CURVE SMOOTH",
"84 154 LINE",
"84 0 LINE",
"1359 0 LINE",
"1384 169 OFFCURVE",
"1396 317 OFFCURVE",
"1396 485 CURVE",
"1203 515 LINE",
"1114 260 LINE SMOOTH",
"1101 223 OFFCURVE",
"1090 206 OFFCURVE",
"1061 194 CURVE SMOOTH",
"1029 181 OFFCURVE",
"950 172 OFFCURVE",
"889 172 CURVE SMOOTH",
"700 172 LINE",
"700 696 LINE",
"1117 685 LINE",
"1117 903 LINE",
"700 887 LINE",
"700 1397 LINE",
"850 1397 LINE SMOOTH",
"911 1397 OFFCURVE",
"975 1388 OFFCURVE",
"1007 1375 CURVE SMOOTH",
"1036 1363 OFFCURVE",
"1055 1345 OFFCURVE",
"1066 1309 CURVE SMOOTH",
"1122 1125 LINE"
);
}
);
width = 1463;
}
);
unicode = 0045;
},
{
glyphname = F;
lastChange = "2016-01-10 17:50:50 +0000";
layers = (
{
anchors = (
{
name = btm;
position = "{644, -170}";
},
{
name = top;
position = "{644, 1700}";
}
);
associatedMasterId = "6D8A9A52-7D7D-4498-B039-FDF10F245A16";
background = {
anchors = (
{
name = btm;
position = "{644, -170}";
},
{
name = top;
position = "{644, 1700}";
}
);
paths = (
{
closed = 1;
nodes = (
"111 0 LINE",
"767 0 LINE",
"767 88 LINE",
"406 110 LINE",
"447 66 LINE",
"447 722 LINE",
"856 714 LINE",
"890 541 LINE",
"985 541 LINE",
"985 994 LINE",
"890 994 LINE",
"856 827 LINE",
"447 821 LINE",
"447 1427 LINE",
"1024 1418 LINE",
"1080 1185 LINE",
"1192 1185 LINE",
"1171 1522 LINE",
"99 1522 LINE",
"99 1434 LINE",
"321 1406 LINE",
"278 1450 LINE",
"278 66 LINE",
"322 111 LINE",
"111 88 LINE"
);
}
);
};
layerId = "0370B2B5-35C8-49C1-B5F1-7D2EE307A62E";
name = "Light Oct 7 15, 12:37";
paths = (
{
closed = 1;
nodes = (
"447 729 LINE",
"748 729 LINE SMOOTH",
"785 729 OFFCURVE",
"801 708 OFFCURVE",
"812 674 CURVE SMOOTH",
"853 545 LINE",
"941 545 LINE",
"941 1017 LINE",
"853 1017 LINE",
"812 890 LINE SMOOTH",
"801 856 OFFCURVE",
"785 835 OFFCURVE",
"748 835 CURVE SMOOTH",
"447 835 LINE",
"447 1464 LINE",
"724 1464 LINE SMOOTH",
"821 1464 OFFCURVE",
"906 1458 OFFCURVE",
"957 1440 CURVE SMOOTH",
"988 1429 OFFCURVE",
"1003 1411 OFFCURVE",
"1014 1383 CURVE SMOOTH",
"1087 1192 LINE",
"1176 1192 LINE",
"1181 1325 OFFCURVE",
"1173 1439 OFFCURVE",
"1150 1562 CURVE",
"62 1562 LINE",
"62 1474 LINE",
"223 1442 LINE SMOOTH",
"258 1435 OFFCURVE",
"277 1412 OFFCURVE",
"277 1377 CURVE SMOOTH",
"277 182 LINE SMOOTH",
"277 146 OFFCURVE",
"259 124 OFFCURVE",
"223 117 CURVE SMOOTH",
"62 88 LINE",
"62 0 LINE",
"751 0 LINE",
"751 88 LINE",
"498 121 LINE SMOOTH",
"468 125 OFFCURVE",
"447 149 OFFCURVE",
"447 179 CURVE SMOOTH"
);
}
);
width = 1264;
},
{
anchors = (
{
name = btm;
position = "{705, -170}";
},
{
name = top;
position = "{705, 1700}";
}
);
associatedMasterId = "6AFE116F-39E0-4FF2-A27B-879B4E5E3272";
background = {
anchors = (
{
name = btm;
position = "{705, -170}";
},
{
name = top;
position = "{705, 1700}";
}
);
paths = (
{
closed = 1;
nodes = (
"100 0 LINE",
"975 0 LINE",
"975 152 LINE",
"625 179 LINE",
"666 116 LINE",
"666 639 LINE",
"882 631 LINE",
"928 436 LINE",
"1088 436 LINE",
"1088 1015 LINE",
"926 1015 LINE",
"882 825 LINE",
"666 820 LINE",
"666 1373 LINE",
"993 1341 LINE",
"1085 1122 LINE",
"1295 1122 LINE",
"1271 1522 LINE",
"93 1522 LINE",
"93 1360 LINE",
"295 1322 LINE",
"250 1382 LINE",
"250 131 LINE",
"283 181 LINE",
"100 152 LINE"
);
}
);
};
layerId = "03314910-2A6D-4700-9403-55E570BF8A51";
name = "Bold Oct 7 15, 12:37";
paths = (
{
closed = 1;
nodes = (
"666 670 LINE",
"801 670 LINE SMOOTH",
"830 670 OFFCURVE",
"849 658 OFFCURVE",
"858 630 CURVE SMOOTH",
"907 480 LINE",
"1061 480 LINE",
"1061 1029 LINE",
"907 1029 LINE",
"857 895 LINE SMOOTH",
"847 869 OFFCURVE",
"827 856 OFFCURVE",
"799 856 CURVE SMOOTH",
"666 856 LINE",
"666 1397 LINE",
"808 1397 LINE SMOOTH",
"869 1397 OFFCURVE",
"933 1388 OFFCURVE",
"965 1375 CURVE SMOOTH",
"994 1363 OFFCURVE",
"1010 1344 OFFCURVE",
"1024 1309 CURVE SMOOTH",
"1100 1125 LINE",
"1293 1125 LINE",
"1299 1273 OFFCURVE",
"1294 1417 OFFCURVE",
"1265 1562 CURVE",
"50 1562 LINE",
"50 1400 LINE",
"205 1370 LINE SMOOTH",
"235 1364 OFFCURVE",
"250 1345 OFFCURVE",
"250 1315 CURVE SMOOTH",
"250 232 LINE SMOOTH",
"250 208 OFFCURVE",
"233 189 OFFCURVE",
"209 184 CURVE SMOOTH",
"50 154 LINE",
"50 0 LINE",
"967 0 LINE",
"967 154 LINE",
"710 184 LINE SMOOTH",
"684 187 OFFCURVE",
"666 206 OFFCURVE",
"666 232 CURVE SMOOTH"
);
}
);
width = 1335;
},
{
anchors = (
{
name = btm;
position = "{698, 0}";
},
{
name = top;
position = "{698, 1562}";
}
);
background = {
anchors = (
{
name = btm;
position = "{644, -170}";
},
{
name = top;
position = "{644, 1700}";
}
);
paths = (
{
closed = 1;
nodes = (
"111 0 LINE",
"767 0 LINE",
"767 88 LINE",
"406 110 LINE",
"447 66 LINE",
"447 722 LINE",
"856 714 LINE",
"890 541 LINE",
"985 541 LINE",
"985 994 LINE",
"890 994 LINE",
"856 827 LINE",
"447 821 LINE",
"447 1427 LINE",
"1024 1418 LINE",
"1080 1185 LINE",
"1192 1185 LINE",
"1171 1522 LINE",
"99 1522 LINE",
"99 1434 LINE",
"321 1406 LINE",
"278 1450 LINE",
"278 66 LINE",
"322 111 LINE",
"111 88 LINE"
);
}
);
};
layerId = "CC155F3D-C5F1-4BD6-ADDB-35EE7B3EECEB";
name = Light;
paths = (
{
closed = 1;
nodes = (
"1007 716 LINE",
"1007 852 LINE",
"501 835 LINE",
"501 1464 LINE",
"778 1464 LINE SMOOTH",
"872 1464 OFFCURVE",
"952 1458 OFFCURVE",
"1001 1440 CURVE SMOOTH",
"1033 1428 OFFCURVE",
"1051 1412 OFFCURVE",
"1058 1383 CURVE SMOOTH",
"1101 1192 LINE",
"1190 1192 LINE",
"1202 1325 OFFCURVE",
"1203 1442 OFFCURVE",
"1195 1562 CURVE",
"116 1562 LINE",
"116 1474 LINE",
"277 1442 LINE SMOOTH",
"312 1435 OFFCURVE",
"331 1412 OFFCURVE",
"331 1377 CURVE SMOOTH",
"331 182 LINE SMOOTH",
"331 146 OFFCURVE",
"313 124 OFFCURVE",
"277 117 CURVE SMOOTH",
"116 88 LINE",
"116 0 LINE",
"805 0 LINE",
"805 88 LINE",
"552 121 LINE SMOOTH",
"522 125 OFFCURVE",
"501 149 OFFCURVE",
"501 179 CURVE SMOOTH",
"501 729 LINE"
);
}
);
width = 1276;
},
{
anchors = (
{
name = btm;
position = "{739, 0}";
},
{
name = top;
position = "{739, 1562}";
}
);
background = {
anchors = (
{
name = btm;
position = "{705, -170}";
},
{
name = top;
position = "{705, 1700}";
}
);
paths = (
{
closed = 1;
nodes = (
"100 0 LINE",
"975 0 LINE",
"975 152 LINE",
"625 179 LINE",
"666 116 LINE",
"666 639 LINE",
"882 631 LINE",
"928 436 LINE",
"1088 436 LINE",
"1088 1015 LINE",
"926 1015 LINE",
"882 825 LINE",
"666 820 LINE",
"666 1373 LINE",
"993 1341 LINE",
"1085 1122 LINE",
"1295 1122 LINE",
"1271 1522 LINE",
"93 1522 LINE",
"93 1360 LINE",
"295 1322 LINE",
"250 1382 LINE",
"250 131 LINE",
"283 181 LINE",
"100 152 LINE"
);
}
);
};
layerId = "8FEE59FF-6340-42D3-B032-E0350BDE9EA7";
name = Bold;
paths = (
{
closed = 1;
nodes = (
"1117 659 LINE",
"1117 877 LINE",
"700 861 LINE",
"700 1397 LINE",
"850 1397 LINE SMOOTH",
"911 1397 OFFCURVE",
"975 1388 OFFCURVE",
"1007 1375 CURVE SMOOTH",
"1036 1363 OFFCURVE",
"1055 1345 OFFCURVE",
"1066 1309 CURVE SMOOTH",
"1122 1125 LINE",
"1315 1125 LINE",
"1327 1273 OFFCURVE",
"1327 1417 OFFCURVE",
"1307 1562 CURVE",
"84 1562 LINE",
"84 1400 LINE",
"239 1370 LINE SMOOTH",
"269 1364 OFFCURVE",
"284 1345 OFFCURVE",
"284 1315 CURVE SMOOTH",
"284 232 LINE SMOOTH",
"284 208 OFFCURVE",
"267 189 OFFCURVE",
"243 184 CURVE SMOOTH",
"84 154 LINE",
"84 0 LINE",
"1001 0 LINE",
"1001 154 LINE",
"744 184 LINE SMOOTH",
"718 187 OFFCURVE",
"700 206 OFFCURVE",
"700 232 CURVE SMOOTH",
"700 670 LINE"
);
}
);
width = 1360;
}
);
unicode = 0046;
},
{
glyphname = G;
lastChange = "2016-01-10 17:50:50 +0000";
layers = (
{
anchors = (
{
name = btm;
position = "{808, 0}";
},
{
name = top;
position = "{844, 1562}";
}
);
background = {
anchors = (
{
name = btm;
position = "{784, -170}";
},
{
name = top;
position = "{820, 1700}";
}
);
paths = (
{
closed = 1;
nodes = (
"803 -23 CURVE SMOOTH",
"1077 -23 OFFCURVE",
"1237 77 OFFCURVE",
"1345 82 CURVE",
"1345 669 LINE",
"1292 627 LINE",
"1471 657 LINE",
"1471 765 LINE",
"889 765 LINE",
"889 657 LINE",
"1233 632 LINE",
"1173 671 LINE",
"1173 170 LINE",
"1100 113 OFFCURVE",
"961 76 OFFCURVE",
"816 76 CURVE SMOOTH",
"458 76 OFFCURVE",
"291 428 OFFCURVE",
"291 789 CURVE SMOOTH",
"291 1220 OFFCURVE",
"531 1440 OFFCURVE",
"847 1440 CURVE SMOOTH",
"1040 1440 OFFCURVE",
"1130 1394 OFFCURVE",
"1161 1371 CURVE",
"1206 1134 LINE",
"1313 1134 LINE",
"1329 1474 LINE",
"1259 1491 OFFCURVE",
"1077 1538 OFFCURVE",
"866 1538 CURVE SMOOTH",
"439 1538 OFFCURVE",
"99 1250 OFFCURVE",
"99 736 CURVE SMOOTH",
"99 304 OFFCURVE",
"359 -23 OFFCURVE"
);
}
);
};
layerId = "CC155F3D-C5F1-4BD6-ADDB-35EE7B3EECEB";
name = Light;
paths = (
{
closed = 1;
nodes = (
"1299 218 CURVE",
"1276 314 LINE",
"1184 150 OFFCURVE",
"1027 102 OFFCURVE",
"866 102 CURVE SMOOTH",
"479 102 OFFCURVE",
"325 413 OFFCURVE",
"325 796 CURVE SMOOTH",
"325 1267 OFFCURVE",
"554 1487 OFFCURVE",
"857 1487 CURVE SMOOTH",
"978 1487 OFFCURVE",
"1082 1460 OFFCURVE",
"1142 1425 CURVE SMOOTH",
"1173 1407 OFFCURVE",
"1185 1387 OFFCURVE",
"1194 1348 CURVE SMOOTH",
"1237 1155 LINE",
"1337 1155 LINE",
"1352 1268 OFFCURVE",
"1363 1372 OFFCURVE",
"1358 1485 CURVE",
"1223 1558 OFFCURVE",
"1064 1585 OFFCURVE",
"904 1585 CURVE SMOOTH",
"453 1585 OFFCURVE",
"133 1307 OFFCURVE",
"133 763 CURVE SMOOTH",
"133 303 OFFCURVE",
"366 -23 OFFCURVE",
"814 -23 CURVE SMOOTH",
"1030 -23 OFFCURVE",
"1187 55 OFFCURVE"
);
},
{
closed = 1;
nodes = (
"1369 10 LINE",
"1369 656 LINE",
"1495 677 LINE",
"1495 785 LINE",
"893 785 LINE",
"893 677 LINE",
"1197 656 LINE",
"1197 128 LINE",
"1208 128 LINE",
"1323 -7 LINE"
);
}
);
width = 1592;
},
{
anchors = (
{
name = btm;
position = "{813, 0}";
},
{
name = top;
position = "{909, 1562}";
}
);
background = {
anchors = (
{
name = btm;
position = "{773, -170}";
},
{
name = top;
position = "{869, 1700}";
}
);
paths = (
{
closed = 1;
nodes = (
"780 -23 CURVE SMOOTH",
"1058 -23 OFFCURVE",
"1294 77 OFFCURVE",
"1403 82 CURVE",
"1403 627 LINE",
"1251 589 LINE",
"1497 630 LINE",
"1497 793 LINE",
"839 793 LINE",
"839 630 LINE",
"1179 584 LINE",
"997 631 LINE",
"997 194 LINE",
"968 161 OFFCURVE",
"901 135 OFFCURVE",
"819 135 CURVE SMOOTH",
"604 135 OFFCURVE",
"531 382 OFFCURVE",
"531 772 CURVE SMOOTH",
"531 1175 OFFCURVE",
"634 1391 OFFCURVE",
"849 1391 CURVE SMOOTH",
"947 1391 OFFCURVE",
"992 1363 OFFCURVE",
"1005 1346 CURVE",
"1068 1062 LINE",
"1363 1062 LINE",
"1390 1479 LINE",
"1317 1496 OFFCURVE",
"1073 1543 OFFCURVE",
"853 1543 CURVE SMOOTH",
"339 1543 OFFCURVE",
"48 1265 OFFCURVE",
"48 752 CURVE SMOOTH",
"48 316 OFFCURVE",
"301 -23 OFFCURVE"
);
}
);
};
layerId = "8FEE59FF-6340-42D3-B032-E0350BDE9EA7";
name = Bold;
paths = (
{
closed = 1;
nodes = (
"1213 214 CURVE",
"1146 326 LINE",
"1090 242 OFFCURVE",
"998 174 OFFCURVE",
"856 174 CURVE SMOOTH",
"629 174 OFFCURVE",
"571 366 OFFCURVE",
"571 750 CURVE SMOOTH",
"571 1233 OFFCURVE",
"664 1433 OFFCURVE",
"880 1433 CURVE SMOOTH",
"946 1433 OFFCURVE",
"991 1412 OFFCURVE",
"1022 1386 CURVE SMOOTH",
"1046 1366 OFFCURVE",
"1059 1351 OFFCURVE",
"1070 1308 CURVE SMOOTH",
"1128 1073 LINE",
"1380 1073 LINE",
"1402 1219 OFFCURVE",
"1411 1367 OFFCURVE",
"1401 1501 CURVE",
"1265 1552 OFFCURVE",
"1074 1593 OFFCURVE",
"886 1593 CURVE SMOOTH",
"369 1593 OFFCURVE",
"88 1335 OFFCURVE",
"88 765 CURVE SMOOTH",
"88 257 OFFCURVE",
"314 -34 OFFCURVE",
"726 -34 CURVE SMOOTH",
"980 -34 OFFCURVE",
"1142 86 OFFCURVE"
);
},
{
closed = 1;
nodes = (
"1440 26 LINE",
"1440 634 LINE",
"1537 650 LINE",
"1537 813 LINE",
"879 813 LINE",
"879 650 LINE",
"1049 629 LINE",
"1049 141 LINE",
"1141 141 LINE",
"1365 -18 LINE"
);
}
);
width = 1595;
}
);
unicode = 0047;
},
{
glyphname = H;
lastChange = "2016-01-10 17:50:50 +0000";
layers = (
{
anchors = (
{
name = btm;
position = "{886, 0}";
},
{
name = top;
position = "{905, 1562}";
}
);
background = {
anchors = (
{
name = btm;
position = "{890, -170}";
},
{
name = top;
position = "{895, 1700}";
}
);
paths = (
{
closed = 1;
nodes = (
"161 0 LINE",
"683 0 LINE",
"683 88 LINE",
"460 111 LINE",
"504 86 LINE",
"504 728 LINE",
"1285 728 LINE",
"1285 76 LINE",
"1341 113 LINE",
"1114 88 LINE",
"1114 0 LINE",
"1623 0 LINE",
"1623 88 LINE",
"1400 113 LINE",
"1455 76 LINE",
"1455 1449 LINE",
"1421 1407 LINE",
"1623 1434 LINE",
"1623 1522 LINE",
"1115 1522 LINE",
"1115 1434 LINE",
"1320 1407 LINE",
"1285 1448 LINE",
"1285 836 LINE",
"504 836 LINE",
"504 1446 LINE",
"473 1408 LINE",
"682 1434 LINE",
"682 1522 LINE",
"167 1522 LINE",
"167 1434 LINE",
"369 1407 LINE",
"335 1444 LINE",
"335 92 LINE",
"384 113 LINE",
"161 88 LINE"
);
}
);
};
layerId = "CC155F3D-C5F1-4BD6-ADDB-35EE7B3EECEB";
name = Light;
paths = (
{
closed = 1;
nodes = (
"1686 1562 LINE",
"1101 1562 LINE",
"1101 1474 LINE",
"1248 1442 LINE SMOOTH",
"1283 1434 OFFCURVE",
"1301 1413 OFFCURVE",
"1301 1377 CURVE SMOOTH",
"1301 856 LINE",
"501 856 LINE",
"501 1377 LINE SMOOTH",
"501 1413 OFFCURVE",
"519 1435 OFFCURVE",
"554 1442 CURVE SMOOTH",
"709 1474 LINE",
"709 1562 LINE",
"116 1562 LINE",
"116 1474 LINE",
"277 1442 LINE SMOOTH",
"312 1435 OFFCURVE",
"331 1412 OFFCURVE",
"331 1376 CURVE SMOOTH",
"331 183 LINE SMOOTH",
"331 147 OFFCURVE",
"313 125 OFFCURVE",
"277 118 CURVE SMOOTH",
"116 88 LINE",
"116 0 LINE",
"710 0 LINE",
"710 88 LINE",
"555 117 LINE SMOOTH",
"519 124 OFFCURVE",
"501 146 OFFCURVE",
"501 182 CURVE SMOOTH",
"501 748 LINE",
"1301 748 LINE",
"1301 183 LINE SMOOTH",
"1301 147 OFFCURVE",
"1282 124 OFFCURVE",
"1247 117 CURVE SMOOTH",
"1100 88 LINE",
"1100 0 LINE",
"1686 0 LINE",
"1686 88 LINE",
"1525 118 LINE SMOOTH",
"1489 125 OFFCURVE",
"1471 147 OFFCURVE",
"1471 183 CURVE SMOOTH",
"1471 1376 LINE SMOOTH",
"1471 1412 OFFCURVE",
"1490 1435 OFFCURVE",
"1525 1442 CURVE SMOOTH",
"1686 1474 LINE"
);
}
);
width = 1802;
},
{
anchors = (
{
name = btm;
position = "{874, 0}";
},
{
name = top;
position = "{958, 1562}";
}
);
background = {
anchors = (
{
name = btm;
position = "{840, -170}";
},
{
name = top;
position = "{931, 1700}";
}
);
paths = (
{
closed = 1;
nodes = (
"131 0 LINE",
"849 0 LINE",
"849 152 LINE",
"636 183 LINE",
"686 138 LINE",
"686 674 LINE",
"1169 674 LINE",
"1169 140 LINE",
"1230 186 LINE",
"1020 152 LINE",
"1020 0 LINE",
"1729 0 LINE",
"1729 152 LINE",
"1515 186 LINE",
"1583 140 LINE",
"1583 1371 LINE",
"1541 1323 LINE",
"1729 1360 LINE",
"1729 1522 LINE",
"1019 1522 LINE",
"1019 1360 LINE",
"1201 1324 LINE",
"1169 1369 LINE",
"1169 870 LINE",
"686 870 LINE",
"686 1368 LINE",
"648 1324 LINE",
"849 1360 LINE",
"849 1522 LINE",
"133 1522 LINE",
"133 1360 LINE",
"315 1322 LINE",
"272 1365 LINE",
"272 139 LINE",
"308 181 LINE",
"131 152 LINE"
);
}
);
};
layerId = "8FEE59FF-6340-42D3-B032-E0350BDE9EA7";
name = Bold;
paths = (
{
closed = 1;
nodes = (
"1819 1562 LINE",
"1053 1562 LINE",
"1053 1400 LINE",
"1160 1370 LINE SMOOTH",
"1188 1362 OFFCURVE",
"1203 1343 OFFCURVE",
"1203 1314 CURVE SMOOTH",
"1203 890 LINE",
"700 890 LINE",
"700 1314 LINE SMOOTH",
"700 1346 OFFCURVE",
"714 1363 OFFCURVE",
"743 1370 CURVE SMOOTH",
"863 1400 LINE",
"863 1562 LINE",
"84 1562 LINE",
"84 1400 LINE",
"240 1370 LINE SMOOTH",
"269 1364 OFFCURVE",
"284 1346 OFFCURVE",
"284 1314 CURVE SMOOTH",
"284 237 LINE SMOOTH",
"284 207 OFFCURVE",
"269 189 OFFCURVE",
"239 183 CURVE SMOOTH",
"84 154 LINE",
"84 0 LINE",
"863 0 LINE",
"863 154 LINE",
"744 183 LINE SMOOTH",
"715 190 OFFCURVE",
"700 207 OFFCURVE",
"700 237 CURVE SMOOTH",
"700 694 LINE",
"1203 694 LINE",
"1203 237 LINE SMOOTH",
"1203 207 OFFCURVE",
"1188 191 OFFCURVE",
"1159 183 CURVE SMOOTH",
"1054 154 LINE",
"1054 0 LINE",
"1819 0 LINE",
"1819 154 LINE",
"1664 183 LINE SMOOTH",
"1634 189 OFFCURVE",
"1619 207 OFFCURVE",
"1619 237 CURVE SMOOTH",
"1619 1314 LINE SMOOTH",
"1619 1342 OFFCURVE",
"1634 1364 OFFCURVE",
"1663 1370 CURVE SMOOTH",
"1819 1400 LINE"
);
}
);
width = 1904;
}
);
rightMetricsKey = "=|";
unicode = 0048;
},
{
glyphname = I;
lastChange = "2016-01-10 17:50:50 +0000";
layers = (
{
anchors = (
{
name = btm;
position = "{419, 0}";
},
{
name = top;
position = "{416, 1562}";
}
);
background = {
anchors = (
{
name = btm;
position = "{423, -170}";
},
{
name = top;
position = "{423, 1700}";
}
);
paths = (
{
closed = 1;
nodes = (
"135 0 LINE",
"704 0 LINE",
"704 87 LINE",
"468 111 LINE",
"505 59 LINE",
"505 1452 LINE",
"474 1409 LINE",
"704 1434 LINE",
"704 1522 LINE",
"135 1522 LINE",
"135 1434 LINE",
"374 1407 LINE",
"335 1452 LINE",
"335 59 LINE",
"371 111 LINE",
"135 88 LINE"
);
}
);
};
layerId = "CC155F3D-C5F1-4BD6-ADDB-35EE7B3EECEB";
name = Light;
paths = (
{
closed = 1;
nodes = (
"716 1562 LINE",
"116 1562 LINE",
"116 1474 LINE",
"277 1442 LINE SMOOTH",
"312 1435 OFFCURVE",
"331 1412 OFFCURVE",
"331 1377 CURVE SMOOTH",
"331 182 LINE SMOOTH",
"331 146 OFFCURVE",
"313 124 OFFCURVE",
"277 117 CURVE SMOOTH",
"116 88 LINE",
"116 0 LINE",
"716 0 LINE",
"716 88 LINE",
"555 117 LINE SMOOTH",
"519 124 OFFCURVE",
"501 145 OFFCURVE",
"501 182 CURVE SMOOTH",
"501 1377 LINE SMOOTH",
"501 1413 OFFCURVE",
"520 1435 OFFCURVE",
"555 1442 CURVE SMOOTH",
"716 1474 LINE"
);
}
);
width = 832;
},
{
anchors = (
{
name = btm;
position = "{525, 0}";
},
{
name = top;
position = "{492, 1562}";
}
);
background = {
anchors = (
{
name = btm;
position = "{491, -170}";
},
{
name = top;
position = "{454, 1700}";
}
);
paths = (
{
closed = 1;
nodes = (
"97 0 LINE",
"828 0 LINE",
"828 150 LINE",
"619 183 LINE",
"666 128 LINE",
"666 1371 LINE",
"629 1324 LINE",
"828 1360 LINE",
"828 1522 LINE",
"94 1522 LINE",
"94 1360 LINE",
"295 1322 LINE",
"250 1368 LINE",
"250 125 LINE",
"281 181 LINE",
"97 152 LINE"
);
}
);
};
layerId = "8FEE59FF-6340-42D3-B032-E0350BDE9EA7";
name = Bold;
paths = (
{
closed = 1;
nodes = (
"900 1562 LINE",
"84 1562 LINE",
"84 1400 LINE",
"239 1370 LINE SMOOTH",
"269 1364 OFFCURVE",
"284 1345 OFFCURVE",
"284 1315 CURVE SMOOTH",
"284 237 LINE SMOOTH",
"284 207 OFFCURVE",
"269 189 OFFCURVE",
"239 183 CURVE SMOOTH",
"84 154 LINE",
"84 0 LINE",
"900 0 LINE",
"900 154 LINE",
"745 184 LINE SMOOTH",
"715 190 OFFCURVE",
"700 208 OFFCURVE",
"700 238 CURVE SMOOTH",
"700 1315 LINE SMOOTH",
"700 1345 OFFCURVE",
"715 1364 OFFCURVE",
"745 1370 CURVE SMOOTH",
"900 1400 LINE"
);
}
);
width = 985;
}
);
rightMetricsKey = "=|";
unicode = 0049;
},
{
glyphname = J;
lastChange = "2016-01-10 17:50:50 +0000";
layers = (
{
anchors = (
{
name = btm;
position = "{291, 0}";
},
{
name = top;
position = "{384, 1562}";
}
);
background = {
anchors = (
{
name = btm;
position = "{294, -170}";
},
{
name = top;
position = "{390, 1700}";
}
);
paths = (
{
closed = 1;
nodes = (
"42 -354 LINE",
"219 -321 OFFCURVE",
"413 -192 OFFCURVE",
"460 43 CURVE SMOOTH",
"485 169 OFFCURVE",
"482 336 OFFCURVE",
"482 563 CURVE SMOOTH",
"482 1457 LINE",
"427 1404 LINE",
"677 1434 LINE",
"677 1522 LINE",
"107 1522 LINE",
"107 1434 LINE",
"369 1404 LINE",
"312 1457 LINE",
"312 518 LINE",
"312 212 OFFCURVE",
"307 99 OFFCURVE",
"270 -18 CURVE SMOOTH",
"227 -156 OFFCURVE",
"119 -248 OFFCURVE",
"-3 -281 CURVE"
);
}
);
};
layerId = "CC155F3D-C5F1-4BD6-ADDB-35EE7B3EECEB";
name = Light;
paths = (
{
closed = 1;
nodes = (
"533 1442 CURVE SMOOTH",
"674 1474 LINE",
"674 1562 LINE",
"94 1562 LINE",
"94 1474 LINE",
"255 1442 LINE SMOOTH",
"290 1435 OFFCURVE",
"309 1412 OFFCURVE",
"309 1377 CURVE SMOOTH",
"309 411 LINE SMOOTH",
"309 37 OFFCURVE",
"250 -88 OFFCURVE",
"4 -281 CURVE",
"51 -364 LINE",
"441 -166 OFFCURVE",
"479 -15 OFFCURVE",
"479 449 CURVE SMOOTH",
"479 1377 LINE SMOOTH",
"479 1413 OFFCURVE",
"498 1434 OFFCURVE"
);
}
);
width = 778;
},
{
anchors = (
{
name = btm;
position = "{369, 0}";
},
{
name = top;
position = "{458, 1562}";
}
);
background = {
anchors = (
{
name = btm;
position = "{346, -170}";
},
{
name = top;
position = "{442, 1700}";
}
);
paths = (
{
closed = 1;
nodes = (
"40 -411 LINE",
"370 -360 OFFCURVE",
"550 -187 OFFCURVE",
"616 25 CURVE SMOOTH",
"640 108 OFFCURVE",
"649 295 OFFCURVE",
"649 563 CURVE SMOOTH",
"649 1386 LINE",
"593 1320 LINE",
"800 1360 LINE",
"800 1522 LINE",
"73 1522 LINE",
"73 1360 LINE",
"276 1323 LINE",
"237 1383 LINE",
"237 347 LINE",
"237 161 OFFCURVE",
"219 59 OFFCURVE",
"195 -10 CURVE SMOOTH",
"143 -160 OFFCURVE",
"37 -244 OFFCURVE",
"-49 -277 CURVE"
);
}
);
};
layerId = "8FEE59FF-6340-42D3-B032-E0350BDE9EA7";
name = Bold;
paths = (
{
closed = 1;
nodes = (
"721 1370 CURVE SMOOTH",
"856 1400 LINE",
"856 1562 LINE",
"60 1562 LINE",
"60 1400 LINE",
"215 1370 LINE SMOOTH",
"245 1364 OFFCURVE",
"260 1345 OFFCURVE",
"260 1315 CURVE SMOOTH",
"260 286 LINE SMOOTH",
"260 -36 OFFCURVE",
"222 -140 OFFCURVE",
"-49 -269 CURVE",
"18 -433 LINE",
"546 -314 OFFCURVE",
"676 -131 OFFCURVE",
"676 334 CURVE SMOOTH",
"676 1315 LINE SMOOTH",
"676 1345 OFFCURVE",
"691 1363 OFFCURVE"
);
}
);
width = 926;
}
);
unicode = 004A;
},
{
glyphname = K;
lastChange = "2016-01-10 17:50:50 +0000";
layers = (
{
anchors = (
{
name = btm;
position = "{871, 0}";
},
{
name = top;
position = "{813, 1562}";
}
);
background = {
anchors = (
{
name = btm;
position = "{788, -170}";
},
{
name = top;
position = "{760, 1700}";
}
);
paths = (
{
closed = 1;
nodes = (
"109 0 LINE",
"646 0 LINE",
"646 85 LINE",
"419 111 LINE",
"453 68 LINE",
"453 630 LINE",
"398 458 LINE",
"706 808 LINE",
"750 858 LINE",
"1289 1460 LINE",
"1217 1408 LINE",
"1394 1434 LINE",
"1394 1522 LINE",
"920 1522 LINE",
"920 1434 LINE",
"1120 1409 LINE",
"1134 1460 LINE",
"453 666 LINE",
"453 1457 LINE",
"426 1408 LINE",
"629 1434 LINE",
"629 1522 LINE",
"113 1522 LINE",
"113 1434 LINE",
"304 1409 LINE",
"284 1457 LINE",
"284 74 LINE",
"314 111 LINE",
"109 88 LINE"
);
},
{
closed = 1;
nodes = (
"1460 0 LINE",
"1460 85 LINE",
"1364 108 LINE",
"1277 119 OFFCURVE",
"967 733 OFFCURVE",
"761 897 CURVE",
"702 856 LINE",
"647 799 LINE",
"842 636 OFFCURVE",
"1103 0 OFFCURVE",
"1215 0 CURVE"
);
}
);
};
layerId = "CC155F3D-C5F1-4BD6-ADDB-35EE7B3EECEB";
name = Light;
paths = (
{
closed = 1;
nodes = (
"731 0 LINE",
"731 88 LINE",
"558 119 LINE SMOOTH",
"521 126 OFFCURVE",
"501 144 OFFCURVE",
"501 181 CURVE SMOOTH",
"501 1377 LINE SMOOTH",
"501 1413 OFFCURVE",
"520 1435 OFFCURVE",
"555 1442 CURVE SMOOTH",
"716 1474 LINE",
"716 1562 LINE",
"116 1562 LINE",
"116 1474 LINE",
"275 1442 LINE SMOOTH",
"310 1435 OFFCURVE",
"331 1415 OFFCURVE",
"331 1378 CURVE SMOOTH",
"331 181 LINE SMOOTH",
"331 144 OFFCURVE",
"310 125 OFFCURVE",
"274 118 CURVE SMOOTH",
"116 88 LINE",
"116 0 LINE"
);
},
{
closed = 1;
nodes = (
"786 853 LINE",
"1291 1404 LINE SMOOTH",
"1312 1426 OFFCURVE",
"1332 1435 OFFCURVE",
"1361 1442 CURVE SMOOTH",
"1497 1474 LINE",
"1497 1562 LINE",
"978 1562 LINE",
"978 1474 LINE",
"1161 1436 LINE",
"451 636 LINE",
"450 486 LINE"
);
},
{
closed = 1;
nodes = (
"1544 0 LINE",
"1544 88 LINE",
"1428 115 LINE SMOOTH",
"1380 126 OFFCURVE",
"1361 139 OFFCURVE",
"1324 197 CURVE SMOOTH",
"1062 610 LINE SMOOTH",
"957 777 OFFCURVE",
"892 876 OFFCURVE",
"816 953 CURVE",
"706 836 LINE",
"764 757 OFFCURVE",
"822 666 OFFCURVE",
"891 549 CURVE SMOOTH",
"1078 229 LINE SMOOTH",
"1163 85 OFFCURVE",
"1224 0 OFFCURVE",
"1266 0 CURVE SMOOTH"
);
}
);
width = 1559;
},
{
anchors = (
{
name = btm;
position = "{927, 0}";
},
{
name = top;
position = "{849, 1562}";
}
);
background = {
anchors = (
{
name = btm;
position = "{843, -170}";
},
{
name = top;
position = "{815, 1700}";
}
);
paths = (
{
closed = 1;
nodes = (
"98 0 LINE",
"826 0 LINE",
"826 151 LINE",
"622 181 LINE",
"664 136 LINE",
"664 643 LINE",
"609 432 LINE",
"830 695 LINE",
"997 894 LINE",
"1486 1451 LINE",
"1337 1324 LINE",
"1570 1361 LINE",
"1570 1522 LINE",
"948 1522 LINE",
"949 1360 LINE",
"1142 1325 LINE",
"1205 1452 LINE",
"664 730 LINE",
"664 1376 LINE",
"625 1321 LINE",
"804 1360 LINE",
"804 1522 LINE",
"98 1522 LINE",
"98 1360 LINE",
"282 1324 LINE",
"250 1367 LINE",
"250 130 LINE",
"266 179 LINE",
"98 152 LINE"
);
},
{
closed = 1;
nodes = (
"1640 0 LINE",
"1640 152 LINE",
"1543 175 LINE",
"1463 235 OFFCURVE",
"1215 826 OFFCURVE",
"1027 973 CURVE",
"889 891 LINE",
"757 727 LINE",
"900 595 OFFCURVE",
"1088 0 OFFCURVE",
"1167 0 CURVE"
);
}
);
};
layerId = "8FEE59FF-6340-42D3-B032-E0350BDE9EA7";
name = Bold;
paths = (
{
closed = 1;
nodes = (
"896 0 LINE",
"896 152 LINE",
"744 179 LINE SMOOTH",
"714 184 OFFCURVE",
"698 201 OFFCURVE",
"698 232 CURVE SMOOTH",
"698 1315 LINE SMOOTH",
"698 1345 OFFCURVE",
"713 1364 OFFCURVE",
"743 1370 CURVE SMOOTH",
"898 1400 LINE",
"898 1562 LINE",
"84 1562 LINE",
"84 1400 LINE",
"239 1370 LINE SMOOTH",
"269 1364 OFFCURVE",
"284 1345 OFFCURVE",
"284 1315 CURVE SMOOTH",
"284 236 LINE SMOOTH",
"284 206 OFFCURVE",
"268 189 OFFCURVE",
"238 183 CURVE SMOOTH",
"84 154 LINE",
"84 0 LINE"
);
},
{
closed = 1;
nodes = (
"945 794 LINE",
"1422 1339 LINE SMOOTH",
"1438 1357 OFFCURVE",
"1456 1365 OFFCURVE",
"1480 1370 CURVE SMOOTH",
"1644 1401 LINE",
"1644 1562 LINE",
"1012 1562 LINE",
"1013 1400 LINE",
"1188 1371 LINE",
"648 700 LINE",
"648 443 LINE"
);
},
{
closed = 1;
nodes = (
"1686 0 LINE",
"1686 152 LINE",
"1594 177 LINE SMOOTH",
"1549 189 OFFCURVE",
"1533 221 OFFCURVE",
"1522 243 CURVE SMOOTH",
"1308 656 LINE SMOOTH",
"1220 826 OFFCURVE",
"1168 919 OFFCURVE",
"1050 1043 CURVE",
"796 746 LINE",
"847 681 OFFCURVE",
"882 615 OFFCURVE",
"948 464 CURVE SMOOTH",
"1067 192 LINE SMOOTH",
"1117 78 OFFCURVE",
"1159 0 OFFCURVE",
"1219 0 CURVE SMOOTH"
);
}
);
width = 1695;
}
);
unicode = 004B;
},
{
glyphname = L;
lastChange = "2016-01-10 17:50:50 +0000";
layers = (
{
anchors = (
{
name = btm;
position = "{742, 0}";
},
{
name = top;
position = "{484, 1562}";
},
{
name = topright;
position = "{726, 916}";
}
);
background = {
anchors = (
{
name = btm;
position = "{695, -170}";
},
{
name = top;
position = "{577, 1700}";
}
);
paths = (
{
closed = 1;
nodes = (
"109 0 LINE",
"1174 0 LINE",
"1249 426 LINE",
"1151 443 LINE",
"1036 122 LINE",
"407 106 LINE",
"453 50 LINE",
"453 1459 LINE",
"434 1410 LINE",
"657 1434 LINE",
"657 1522 LINE",
"113 1522 LINE",
"113 1434 LINE",
"304 1409 LINE",
"284 1459 LINE",
"284 58 LINE",
"327 112 LINE",
"109 88 LINE"
);
}
);
};
layerId = "CC155F3D-C5F1-4BD6-ADDB-35EE7B3EECEB";
name = Light;
paths = (
{
closed = 1;
nodes = (
"1113 189 LINE SMOOTH",
"1104 160 OFFCURVE",
"1087 143 OFFCURVE",
"1056 132 CURVE SMOOTH",
"1005 114 OFFCURVE",
"920 108 OFFCURVE",
"823 108 CURVE SMOOTH",
"500 108 LINE",
"500 1377 LINE SMOOTH",
"500 1414 OFFCURVE",
"519 1436 OFFCURVE",
"555 1442 CURVE SMOOTH",
"764 1474 LINE",
"764 1562 LINE",
"116 1562 LINE",
"116 1474 LINE",
"277 1443 LINE SMOOTH",
"313 1436 OFFCURVE",
"331 1414 OFFCURVE",
"331 1378 CURVE SMOOTH",
"331 180 LINE SMOOTH",
"331 144 OFFCURVE",
"313 122 OFFCURVE",
"277 116 CURVE SMOOTH",
"116 88 LINE",
"116 0 LINE",
"1241 0 LINE",
"1268 131 OFFCURVE",
"1282 298 OFFCURVE",
"1285 431 CURVE",
"1195 444 LINE"
);
}
);
width = 1349;
},
{
anchors = (
{
name = btm;
position = "{784, 0}";
},
{
name = top;
position = "{636, 1562}";
},
{
name = topright;
position = "{913, 916}";
}
);
background = {
anchors = (
{
name = btm;
position = "{750, -170}";
},
{
name = top;
position = "{632, 1700}";
}
);
paths = (
{
closed = 1;
nodes = (
"101 0 LINE",
"1292 0 LINE",
"1345 608 LINE",
"1120 636 LINE",
"980 201 LINE",
"626 177 LINE",
"666 54 LINE",
"666 1371 LINE",
"613 1322 LINE",
"856 1360 LINE",
"856 1522 LINE",
"102 1522 LINE",
"102 1360 LINE",
"288 1322 LINE",
"250 1371 LINE",
"250 128 LINE",
"283 181 LINE",
"101 152 LINE"
);
}
);
};
layerId = "8FEE59FF-6340-42D3-B032-E0350BDE9EA7";
name = Bold;
paths = (
{
closed = 1;
nodes = (
"1078 266 LINE SMOOTH",
"1067 230 OFFCURVE",
"1048 212 OFFCURVE",
"1019 200 CURVE SMOOTH",
"987 187 OFFCURVE",
"928 175 OFFCURVE",
"847 175 CURVE SMOOTH",
"700 175 LINE",
"700 1314 LINE SMOOTH",
"700 1344 OFFCURVE",
"716 1362 OFFCURVE",
"746 1367 CURVE SMOOTH",
"950 1400 LINE",
"950 1562 LINE",
"84 1562 LINE",
"84 1400 LINE",
"239 1370 LINE SMOOTH",
"268 1364 OFFCURVE",
"284 1346 OFFCURVE",
"284 1316 CURVE SMOOTH",
"284 237 LINE SMOOTH",
"284 207 OFFCURVE",
"268 189 OFFCURVE",
"238 183 CURVE SMOOTH",
"84 154 LINE",
"84 0 LINE",
"1346 0 LINE",
"1388 202 OFFCURVE",
"1386 397 OFFCURVE",
"1386 573 CURVE",
"1179 601 LINE"
);
}
);
width = 1429;
}
);
unicode = 004C;
},
{
glyphname = M;
lastChange = "2016-01-10 17:50:50 +0000";
layers = (
{
anchors = (
{
name = btm;
position = "{1069, 0}";
},
{
name = top;
position = "{1078, 1562}";
}
);
background = {
anchors = (
{
name = btm;
position = "{1069, -170}";
},
{
name = top;
position = "{1078, 1700}";
}
);
paths = (
{
closed = 1;
nodes = (
"78 0 LINE",
"595 0 LINE",
"595 88 LINE",
"348 111 LINE",
"388 57 LINE",
"486 1041 LINE",
"534 1498 LINE",
"514 1498 LINE",
"657 1053 LINE",
"1041 74 LINE",
"1113 74 LINE",
"1450 1167 LINE",
"1542 1477 LINE",
"1531 1477 LINE",
"1587 1040 LINE",
"1744 47 LINE",
"1772 111 LINE",
"1545 88 LINE",
"1545 0 LINE",
"2091 0 LINE",
"2091 88 LINE",
"1883 111 LINE",
"1918 48 LINE",
"1689 1411 LINE",
"1924 1434 LINE",
"1924 1522 LINE",
"1448 1522 LINE",
"1151 576 LINE",
"1061 179 LINE",
"1124 179 LINE",
"1011 576 LINE",
"666 1522 LINE",
"187 1522 LINE",
"187 1434 LINE",
"419 1412 LINE",
"251 56 LINE",
"294 111 LINE",
"78 88 LINE"
);
}
);
};
layerId = "CC155F3D-C5F1-4BD6-ADDB-35EE7B3EECEB";
name = Light;
paths = (
{
closed = 1;
nodes = (
"1695 1372 LINE SMOOTH",
"1689 1411 OFFCURVE",
"1705 1435 OFFCURVE",
"1743 1442 CURVE SMOOTH",
"1927 1474 LINE",
"1927 1562 LINE",
"1443 1562 LINE",
"1044 226 LINE",
"1125 226 LINE",
"669 1562 LINE",
"187 1562 LINE",
"187 1474 LINE",
"371 1442 LINE SMOOTH",
"408 1436 OFFCURVE",
"426 1412 OFFCURVE",
"421 1374 CURVE SMOOTH",
"276 178 LINE SMOOTH",
"272 144 OFFCURVE",
"253 122 OFFCURVE",
"219 116 CURVE SMOOTH",
"70 88 LINE",
"70 0 LINE",
"605 0 LINE",
"605 88 LINE",
"403 122 LINE",
"565 1505 LINE",
"506 1505 LINE",
"1011 69 LINE",
"1123 69 LINE",
"1557 1504 LINE",
"1496 1505 LINE",
"1724 122 LINE",
"1535 88 LINE",
"1535 0 LINE",
"2095 0 LINE",
"2095 88 LINE",
"1946 116 LINE SMOOTH",
"1913 122 OFFCURVE",
"1893 143 OFFCURVE",
"1888 176 CURVE SMOOTH"
);
}
);
width = 2143;
},
{
anchors = (
{
name = btm;
position = "{988, 0}";
},
{
name = top;
position = "{1151, 1562}";
}
);
background = {
anchors = (
{
name = btm;
position = "{993, -170}";
},
{
name = top;
position = "{1156, 1700}";
}
);
paths = (
{
closed = 1;
nodes = (
"75 0 LINE",
"694 0 LINE",
"694 152 LINE",
"443 181 LINE",
"477 78 LINE",
"539 1041 LINE",
"565 1479 LINE",
"540 1479 LINE",
"633 1043 LINE",
"922 53 LINE",
"1261 53 LINE",
"1485 1079 LINE",
"1561 1485 LINE",
"1531 1485 LINE",
"1581 1040 LINE",
"1681 65 LINE",
"1703 181 LINE",
"1502 152 LINE",
"1502 0 LINE",
"2259 0 LINE",
"2259 152 LINE",
"2066 181 LINE",
"2115 66 LINE",
"1923 1330 LINE",
"2142 1360 LINE",
"2142 1522 LINE",
"1378 1522 LINE",
"1210 700 LINE",
"1144 244 LINE",
"1222 244 LINE",
"1144 700 LINE",
"933 1522 LINE",
"182 1522 LINE",
"182 1360 LINE",
"377 1330 LINE",
"232 77 LINE",
"288 182 LINE",
"75 152 LINE"
);
}
);
};
layerId = "8FEE59FF-6340-42D3-B032-E0350BDE9EA7";
name = Bold;
paths = (
{
closed = 1;
nodes = (
"1940 1312 LINE SMOOTH",
"1935 1343 OFFCURVE",
"1950 1365 OFFCURVE",
"1981 1370 CURVE SMOOTH",
"2162 1400 LINE",
"2162 1562 LINE",
"1391 1562 LINE",
"1121 342 LINE",
"1221 342 LINE",
"923 1562 LINE",
"156 1562 LINE",
"156 1400 LINE",
"324 1370 LINE SMOOTH",
"354 1365 OFFCURVE",
"370 1343 OFFCURVE",
"366 1312 CURVE SMOOTH",
"238 240 LINE SMOOTH",
"234 210 OFFCURVE",
"219 194 OFFCURVE",
"191 188 CURVE SMOOTH",
"35 154 LINE",
"35 0 LINE",
"674 0 LINE",
"674 154 LINE",
"453 183 LINE",
"595 1472 LINE",
"530 1471 LINE",
"917 53 LINE",
"1256 53 LINE",
"1572 1469 LINE",
"1517 1470 LINE",
"1685 183 LINE",
"1507 154 LINE",
"1507 0 LINE",
"2294 0 LINE",
"2294 154 LINE",
"2145 188 LINE SMOOTH",
"2117 194 OFFCURVE",
"2101 211 OFFCURVE",
"2097 239 CURVE SMOOTH"
);
}
);
width = 2322;
}
);
unicode = 004D;
},
{
glyphname = N;
lastChange = "2016-01-10 17:50:50 +0000";
layers = (
{
anchors = (
{
name = btm;
position = "{928, 0}";
},
{
name = top;
position = "{868, 1562}";
}
);
background = {
anchors = (
{
name = btm;
position = "{835, -170}";
},
{
name = top;
position = "{835, 1700}";
}
);
paths = (
{
closed = 1;
nodes = (
"115 0 LINE",
"584 0 LINE",
"584 88 LINE",
"380 109 LINE",
"397 74 LINE",
"397 1388 LINE",
"360 1388 LINE",
"566 1054 LINE",
"1299 0 LINE",
"1405 0 LINE",
"1405 1446 LINE",
"1380 1408 LINE",
"1572 1434 LINE",
"1572 1522 LINE",
"1106 1522 LINE",
"1106 1434 LINE",
"1317 1407 LINE",
"1286 1446 LINE",
"1286 113 LINE",
"1373 113 LINE",
"1170 471 LINE",
"445 1522 LINE",
"115 1522 LINE",
"115 1434 LINE",
"320 1405 LINE",
"278 1441 LINE",
"278 74 LINE",
"295 110 LINE",
"115 88 LINE"
);
}
);
};
layerId = "CC155F3D-C5F1-4BD6-ADDB-35EE7B3EECEB";
name = Light;
paths = (
{
closed = 1;
nodes = (
"1522 1442 CURVE SMOOTH",
"1663 1474 LINE",
"1663 1562 LINE",
"1120 1562 LINE",
"1120 1474 LINE",
"1291 1442 LINE SMOOTH",
"1326 1435 OFFCURVE",
"1345 1412 OFFCURVE",
"1345 1377 CURVE SMOOTH",
"1345 192 LINE",
"1403 206 LINE",
"498 1562 LINE",
"116 1562 LINE",
"116 1474 LINE",
"277 1442 LINE SMOOTH",
"312 1435 OFFCURVE",
"331 1412 OFFCURVE",
"331 1377 CURVE SMOOTH",
"331 182 LINE SMOOTH",
"331 146 OFFCURVE",
"313 124 OFFCURVE",
"277 117 CURVE SMOOTH",
"116 88 LINE",
"116 0 LINE",
"689 0 LINE",
"689 88 LINE",
"508 117 LINE SMOOTH",
"472 123 OFFCURVE",
"454 145 OFFCURVE",
"454 182 CURVE SMOOTH",
"454 1412 LINE",
"396 1403 LINE",
"1335 0 LINE",
"1468 0 LINE",
"1468 1377 LINE SMOOTH",
"1468 1413 OFFCURVE",
"1487 1434 OFFCURVE"
);
}
);
width = 1770;
},
{
anchors = (
{
name = btm;
position = "{966, 0}";
},
{
name = top;
position = "{925, 1562}";
}
);
background = {
anchors = (
{
name = btm;
position = "{897, -170}";
},
{
name = top;
position = "{876, 1700}";
}
);
paths = (
{
closed = 1;
nodes = (
"55 0 LINE",
"662 0 LINE",
"662 152 LINE",
"374 183 LINE",
"435 121 LINE",
"435 1388 LINE",
"333 1388 LINE",
"558 893 LINE",
"1111 0 LINE",
"1480 0 LINE",
"1480 1441 LINE",
"1455 1326 LINE",
"1631 1360 LINE",
"1631 1522 LINE",
"1087 1522 LINE",
"1087 1360 LINE",
"1300 1325 LINE",
"1260 1441 LINE",
"1260 285 LINE",
"1335 285 LINE",
"1144 712 LINE",
"634 1522 LINE",
"55 1522 LINE",
"55 1360 LINE",
"259 1323 LINE",
"215 1434 LINE",
"215 121 LINE",
"258 182 LINE",
"55 152 LINE"
);
}
);
};
layerId = "8FEE59FF-6340-42D3-B032-E0350BDE9EA7";
name = Bold;
paths = (
{
closed = 1;
nodes = (
"1604 1370 CURVE SMOOTH",
"1749 1400 LINE",
"1749 1562 LINE",
"1124 1562 LINE",
"1124 1400 LINE",
"1289 1370 LINE SMOOTH",
"1319 1365 OFFCURVE",
"1334 1345 OFFCURVE",
"1334 1315 CURVE SMOOTH",
"1334 398 LINE",
"1412 404 LINE",
"713 1562 LINE",
"84 1562 LINE",
"84 1400 LINE",
"239 1370 LINE SMOOTH",
"269 1364 OFFCURVE",
"284 1345 OFFCURVE",
"284 1315 CURVE SMOOTH",
"284 236 LINE SMOOTH",
"284 206 OFFCURVE",
"269 187 OFFCURVE",
"239 182 CURVE SMOOTH",
"84 154 LINE",
"84 0 LINE",
"736 0 LINE",
"736 154 LINE",
"554 183 LINE SMOOTH",
"524 188 OFFCURVE",
"509 207 OFFCURVE",
"509 237 CURVE SMOOTH",
"509 1259 LINE",
"431 1253 LINE",
"1180 0 LINE",
"1559 0 LINE",
"1559 1315 LINE SMOOTH",
"1559 1345 OFFCURVE",
"1574 1364 OFFCURVE"
);
}
);
width = 1814;
}
);
unicode = 004E;
},
{
glyphname = O;
lastChange = "2016-01-10 17:50:50 +0000";
layers = (
{
anchors = (
{
name = btm;
position = "{792, 0}";
},
{
name = top;
position = "{802, 1562}";
}
);
background = {
anchors = (
{
name = btm;
position = "{727, -170}";
},
{
name = top;
position = "{741, 1700}";
}
);
paths = (
{
closed = 1;
nodes = (
"722 -23 CURVE SMOOTH",
"1100 -16 OFFCURVE",
"1398 292 OFFCURVE",
"1398 775 CURVE SMOOTH",
"1398 1234 OFFCURVE",
"1172 1538 OFFCURVE",
"757 1538 CURVE SMOOTH",
"377 1538 OFFCURVE",
"75 1232 OFFCURVE",
"75 749 CURVE SMOOTH",
"75 289 OFFCURVE",
"307 -30 OFFCURVE"
);
},
{
closed = 1;
nodes = (
"740 1442 CURVE SMOOTH",
"1040 1442 OFFCURVE",
"1209 1167 OFFCURVE",
"1209 774 CURVE SMOOTH",
"1209 310 OFFCURVE",
"1015 74 OFFCURVE",
"734 74 CURVE SMOOTH",
"432 74 OFFCURVE",
"262 358 OFFCURVE",
"262 750 CURVE SMOOTH",
"262 1214 OFFCURVE",
"456 1442 OFFCURVE"
);
}
);
};
layerId = "CC155F3D-C5F1-4BD6-ADDB-35EE7B3EECEB";
name = Light;
paths = (
{
closed = 1;
nodes = (
"775 -23 CURVE SMOOTH",
"1187 -23 OFFCURVE",
"1468 277 OFFCURVE",
"1468 807 CURVE SMOOTH",
"1468 1288 OFFCURVE",
"1248 1585 OFFCURVE",
"829 1585 CURVE SMOOTH",
"421 1585 OFFCURVE",
"135 1293 OFFCURVE",
"135 757 CURVE SMOOTH",
"135 276 OFFCURVE",
"357 -23 OFFCURVE"
);
},
{
closed = 1;
nodes = (
"803 1479 CURVE SMOOTH",
"1121 1479 OFFCURVE",
"1276 1229 OFFCURVE",
"1276 784 CURVE SMOOTH",
"1276 319 OFFCURVE",
"1098 84 OFFCURVE",
"798 84 CURVE SMOOTH",
"481 84 OFFCURVE",
"325 336 OFFCURVE",
"325 782 CURVE SMOOTH",
"325 1246 OFFCURVE",
"502 1479 OFFCURVE"
);
}
);
width = 1603;
},
{
anchors = (
{
name = btm;
position = "{794, 0}";
},
{
name = top;
position = "{799, 1562}";
}
);
background = {
anchors = (
{
name = btm;
position = "{757, -170}";
},
{
name = top;
position = "{764, 1700}";
}
);
paths = (
{
closed = 1;
nodes = (
"754 -23 CURVE SMOOTH",
"1197 -21 OFFCURVE",
"1467 313 OFFCURVE",
"1467 790 CURVE SMOOTH",
"1467 1251 OFFCURVE",
"1277 1541 OFFCURVE",
"770 1543 CURVE SMOOTH",
"326 1544 OFFCURVE",
"57 1237 OFFCURVE",
"57 761 CURVE SMOOTH",
"57 292 OFFCURVE",
"248 -25 OFFCURVE"
);
},
{
closed = 1;
nodes = (
"763 1392 CURVE SMOOTH",
"916 1392 OFFCURVE",
"1011 1257 OFFCURVE",
"1011 789 CURVE SMOOTH",
"1011 359 OFFCURVE",
"921 128 OFFCURVE",
"760 128 CURVE SMOOTH",
"607 128 OFFCURVE",
"512 294 OFFCURVE",
"512 763 CURVE SMOOTH",
"512 1192 OFFCURVE",
"601 1392 OFFCURVE"
);
}
);
};
layerId = "8FEE59FF-6340-42D3-B032-E0350BDE9EA7";
name = Bold;
paths = (
{
closed = 1;
nodes = (
"773 -36 CURVE SMOOTH",
"1263 -36 OFFCURVE",
"1511 277 OFFCURVE",
"1511 808 CURVE SMOOTH",
"1511 1294 OFFCURVE",
"1304 1595 OFFCURVE",
"824 1595 CURVE SMOOTH",
"334 1595 OFFCURVE",
"87 1281 OFFCURVE",
"87 750 CURVE SMOOTH",
"87 265 OFFCURVE",
"293 -36 OFFCURVE"
);
},
{
closed = 1;
nodes = (
"804 1431 CURVE SMOOTH",
"973 1431 OFFCURVE",
"1055 1262 OFFCURVE",
"1055 796 CURVE SMOOTH",
"1055 315 OFFCURVE",
"968 128 OFFCURVE",
"793 128 CURVE SMOOTH",
"624 128 OFFCURVE",
"542 302 OFFCURVE",
"542 768 CURVE SMOOTH",
"542 1247 OFFCURVE",
"628 1431 OFFCURVE"
);
}
);
width = 1598;
}
);
unicode = 004F;
},
{
glyphname = P;
lastChange = "2016-01-10 17:50:50 +0000";
layers = (
{
anchors = (
{
name = btm;
position = "{722, 0}";
},
{
name = top;
position = "{722, 1562}";
}
);
background = {
anchors = (
{
name = btm;
position = "{675, -170}";
},
{
name = top;
position = "{675, 1700}";
}
);
paths = (
{
closed = 1;
nodes = (
"109 0 LINE",
"737 0 LINE",
"737 88 LINE",
"408 111 LINE",
"453 63 LINE",
"453 590 LINE",
"472 586 OFFCURVE",
"589 581 OFFCURVE",
"670 581 CURVE SMOOTH",
"996 581 OFFCURVE",
"1255 774 OFFCURVE",
"1255 1105 CURVE SMOOTH",
"1255 1376 OFFCURVE",
"1128 1537 OFFCURVE",
"728 1537 CURVE SMOOTH",
"549 1537 OFFCURVE",
"504 1522 OFFCURVE",
"369 1522 CURVE SMOOTH",
"121 1522 LINE",
"121 1434 LINE",
"316 1407 LINE",
"284 1445 LINE",
"284 64 LINE",
"317 111 LINE",
"109 88 LINE"
);
},
{
closed = 1;
nodes = (
"453 691 CURVE",
"453 1425 LINE",
"509 1425 OFFCURVE",
"577 1438 OFFCURVE",
"675 1438 CURVE SMOOTH",
"946 1438 OFFCURVE",
"1075 1349 OFFCURVE",
"1075 1105 CURVE SMOOTH",
"1075 781 OFFCURVE",
"880 682 OFFCURVE",
"673 682 CURVE SMOOTH",
"572 682 OFFCURVE",
"491 684 OFFCURVE"
);
}
);
};
layerId = "CC155F3D-C5F1-4BD6-ADDB-35EE7B3EECEB";
name = Light;
paths = (
{
closed = 1;
nodes = (
"501 1465 LINE",
"557 1465 OFFCURVE",
"625 1478 OFFCURVE",
"723 1478 CURVE SMOOTH",
"994 1478 OFFCURVE",
"1120 1389 OFFCURVE",
"1120 1141 CURVE SMOOTH",
"1120 813 OFFCURVE",
"928 715 OFFCURVE",
"721 715 CURVE SMOOTH",
"613 715 OFFCURVE",
"550 720 OFFCURVE",
"448 725 CURVE",
"450 623 LINE",
"541 619 OFFCURVE",
"631 613 OFFCURVE",
"718 613 CURVE SMOOTH",
"1044 613 OFFCURVE",
"1303 806 OFFCURVE",
"1303 1141 CURVE SMOOTH",
"1303 1416 OFFCURVE",
"1176 1577 OFFCURVE",
"776 1577 CURVE SMOOTH",
"597 1577 OFFCURVE",
"552 1562 OFFCURVE",
"416 1562 CURVE SMOOTH",
"116 1562 LINE",
"116 1474 LINE",
"285 1440 LINE SMOOTH",
"313 1434 OFFCURVE",
"331 1408 OFFCURVE",
"331 1380 CURVE SMOOTH",
"331 178 LINE SMOOTH",
"331 146 OFFCURVE",
"312 123 OFFCURVE",
"278 117 CURVE SMOOTH",
"116 88 LINE",
"116 0 LINE",
"795 0 LINE",
"795 88 LINE",
"552 121 LINE SMOOTH",
"522 125 OFFCURVE",
"501 149 OFFCURVE",
"501 179 CURVE SMOOTH"
);
}
);
width = 1392;
},
{
anchors = (
{
name = btm;
position = "{764, 0}";
},
{
name = top;
position = "{764, 1562}";
}
);
background = {
anchors = (
{
name = btm;
position = "{730, -170}";
},
{
name = top;
position = "{730, 1700}";
}
);
paths = (
{
closed = 1;
nodes = (
"101 0 LINE",
"930 0 LINE",
"930 152 LINE",
"616 180 LINE",
"665 131 LINE",
"665 510 LINE",
"681 507 OFFCURVE",
"730 504 OFFCURVE",
"781 504 CURVE SMOOTH",
"1201 504 OFFCURVE",
"1405 715 OFFCURVE",
"1405 1068 CURVE SMOOTH",
"1405 1366 OFFCURVE",
"1272 1530 OFFCURVE",
"804 1532 CURVE SMOOTH",
"656 1533 OFFCURVE",
"545 1522 OFFCURVE",
"466 1522 CURVE SMOOTH",
"105 1522 LINE",
"105 1360 LINE",
"292 1322 LINE",
"250 1363 LINE",
"250 130 LINE",
"283 180 LINE",
"101 152 LINE"
);
},
{
closed = 1;
nodes = (
"664 666 CURVE",
"664 1371 LINE",
"686 1376 OFFCURVE",
"699 1383 OFFCURVE",
"765 1383 CURVE SMOOTH",
"907 1383 OFFCURVE",
"985 1282 OFFCURVE",
"985 1056 CURVE SMOOTH",
"985 750 OFFCURVE",
"896 655 OFFCURVE",
"769 655 CURVE SMOOTH",
"712 655 OFFCURVE",
"683 660 OFFCURVE"
);
}
);
};
layerId = "8FEE59FF-6340-42D3-B032-E0350BDE9EA7";
name = Bold;
paths = (
{
closed = 1;
nodes = (
"700 1411 LINE",
"722 1416 OFFCURVE",
"734 1423 OFFCURVE",
"800 1423 CURVE SMOOTH",
"942 1423 OFFCURVE",
"1020 1322 OFFCURVE",
"1020 1096 CURVE SMOOTH",
"1020 790 OFFCURVE",
"931 695 OFFCURVE",
"804 695 CURVE SMOOTH",
"738 695 OFFCURVE",
"710 702 OFFCURVE",
"651 709 CURVE",
"655 551 LINE",
"703 548 OFFCURVE",
"758 544 OFFCURVE",
"816 544 CURVE SMOOTH",
"1236 544 OFFCURVE",
"1440 755 OFFCURVE",
"1440 1108 CURVE SMOOTH",
"1440 1406 OFFCURVE",
"1307 1570 OFFCURVE",
"839 1572 CURVE SMOOTH",
"691 1573 OFFCURVE",
"580 1562 OFFCURVE",
"500 1562 CURVE SMOOTH",
"84 1562 LINE",
"84 1400 LINE",
"245 1368 LINE SMOOTH",
"268 1363 OFFCURVE",
"284 1344 OFFCURVE",
"284 1321 CURVE SMOOTH",
"284 232 LINE SMOOTH",
"284 208 OFFCURVE",
"267 189 OFFCURVE",
"243 184 CURVE SMOOTH",
"84 154 LINE",
"84 0 LINE",
"991 0 LINE",
"991 154 LINE",
"744 184 LINE SMOOTH",
"718 187 OFFCURVE",
"700 206 OFFCURVE",
"700 232 CURVE SMOOTH"
);
}
);
width = 1479;
}
);
unicode = 0050;
},
{
glyphname = Q;
lastChange = "2016-01-10 17:50:50 +0000";
layers = (
{
anchors = (
{
name = btm;
position = "{787, 0}";
},
{
name = top;
position = "{801, 1562}";
}
);
background = {
anchors = (
{
name = btm;
position = "{733, -170}";
},
{
name = top;
position = "{733, 1700}";
}
);
paths = (
{
closed = 1;
nodes = (
"1668 -413 CURVE",
"1679 -413 LINE",
"1749 -413 OFFCURVE",
"1815 -371 OFFCURVE",
"1834 -353 CURVE",
"1814 -268 LINE",
"1801 -269 OFFCURVE",
"1789 -270 OFFCURVE",
"1770 -270 CURVE SMOOTH",
"1768 -270 LINE",
"1491 -270 OFFCURVE",
"1266 34 OFFCURVE",
"951 34 CURVE",
"865 28 LINE",
"809 -3 LINE",
"1102 -3 OFFCURVE",
"1292 -413 OFFCURVE"
);
},
{
closed = 1;
nodes = (
"728 -23 CURVE SMOOTH",
"1106 -16 OFFCURVE",
"1404 292 OFFCURVE",
"1404 775 CURVE SMOOTH",
"1404 1234 OFFCURVE",
"1178 1538 OFFCURVE",
"763 1538 CURVE SMOOTH",
"383 1538 OFFCURVE",
"81 1232 OFFCURVE",
"81 749 CURVE SMOOTH",
"81 289 OFFCURVE",
"313 -30 OFFCURVE"
);
},
{
closed = 1;
nodes = (
"746 1442 CURVE SMOOTH",
"1046 1442 OFFCURVE",
"1215 1167 OFFCURVE",
"1215 774 CURVE SMOOTH",
"1215 310 OFFCURVE",
"1021 74 OFFCURVE",
"740 74 CURVE SMOOTH",
"438 74 OFFCURVE",
"268 358 OFFCURVE",
"268 750 CURVE SMOOTH",
"268 1214 OFFCURVE",
"462 1442 OFFCURVE"
);
}
);
};
layerId = "CC155F3D-C5F1-4BD6-ADDB-35EE7B3EECEB";
name = Light;
paths = (
{
closed = 1;
nodes = (
"1389 -413 CURVE SMOOTH",
"1488 -413 OFFCURVE",
"1577 -376 OFFCURVE",
"1614 -353 CURVE",
"1594 -266 LINE",
"1572 -269 OFFCURVE",
"1539 -270 OFFCURVE",
"1510 -270 CURVE SMOOTH",
"1368 -270 OFFCURVE",
"1276 -194 OFFCURVE",
"1178 -115 CURVE SMOOTH",
"1067 -25 OFFCURVE",
"944 57 OFFCURVE",
"734 57 CURVE",
"669 -3 LINE",
"963 -3 OFFCURVE",
"1065 -413 OFFCURVE"
);
},
{
closed = 1;
nodes = (
"775 -23 CURVE SMOOTH",
"1187 -23 OFFCURVE",
"1468 277 OFFCURVE",
"1468 807 CURVE SMOOTH",
"1468 1288 OFFCURVE",
"1248 1585 OFFCURVE",
"829 1585 CURVE SMOOTH",
"421 1585 OFFCURVE",
"135 1293 OFFCURVE",
"135 757 CURVE SMOOTH",
"135 276 OFFCURVE",
"357 -23 OFFCURVE"
);
},
{
closed = 1;
nodes = (
"803 1479 CURVE SMOOTH",
"1123 1479 OFFCURVE",
"1279 1235 OFFCURVE",
"1279 784 CURVE SMOOTH",
"1279 312 OFFCURVE",
"1100 84 OFFCURVE",
"798 84 CURVE SMOOTH",
"479 84 OFFCURVE",
"322 330 OFFCURVE",
"322 782 CURVE SMOOTH",
"322 1253 OFFCURVE",
"500 1479 OFFCURVE"
);
}
);
width = 1603;
},
{
anchors = (
{
name = btm;
position = "{802, 0}";
},
{
name = top;
position = "{809, 1562}";
}
);
background = {
anchors = (
{
name = btm;
position = "{748, -170}";
},
{
name = top;
position = "{748, 1700}";
}
);
paths = (
{
closed = 1;
nodes = (
"1620 -373 CURVE",
"1631 -373 LINE",
"1825 -373 OFFCURVE",
"1889 -263 OFFCURVE",
"1912 -229 CURVE",
"1879 -129 LINE",
"1858 -137 OFFCURVE",
"1823 -143 OFFCURVE",
"1750 -143 CURVE SMOOTH",
"1748 -143 LINE",
"1514 -143 OFFCURVE",
"1190 125 OFFCURVE",
"963 83 CURVE",
"884 79 LINE",
"720 22 LINE",
"1018 51 OFFCURVE",
"1244 -373 OFFCURVE"
);
},
{
closed = 1;
nodes = (
"745 -23 CURVE SMOOTH",
"1188 -21 OFFCURVE",
"1458 313 OFFCURVE",
"1458 790 CURVE SMOOTH",
"1458 1251 OFFCURVE",
"1268 1541 OFFCURVE",
"761 1543 CURVE SMOOTH",
"317 1544 OFFCURVE",
"48 1237 OFFCURVE",
"48 761 CURVE SMOOTH",
"48 292 OFFCURVE",
"239 -25 OFFCURVE"
);
},
{
closed = 1;
nodes = (
"754 1392 CURVE SMOOTH",
"907 1392 OFFCURVE",
"1002 1257 OFFCURVE",
"1002 789 CURVE SMOOTH",
"1002 359 OFFCURVE",
"912 128 OFFCURVE",
"751 128 CURVE SMOOTH",
"598 128 OFFCURVE",
"503 294 OFFCURVE",
"503 763 CURVE SMOOTH",
"503 1192 OFFCURVE",
"592 1392 OFFCURVE"
);
}
);
};
layerId = "8FEE59FF-6340-42D3-B032-E0350BDE9EA7";
name = Bold;
paths = (
{
closed = 1;
nodes = (
"1356 -425 CURVE SMOOTH",
"1501 -425 OFFCURVE",
"1638 -341 OFFCURVE",
"1697 -268 CURVE",
"1660 -143 LINE",
"1624 -150 OFFCURVE",
"1585 -156 OFFCURVE",
"1535 -156 CURVE SMOOTH",
"1443 -156 OFFCURVE",
"1354 -136 OFFCURVE",
"1245 -80 CURVE SMOOTH",
"1094 -2 OFFCURVE",
"1000 36 OFFCURVE",
"730 36 CURVE",
"525 29 LINE",
"956 -23 OFFCURVE",
"968 -425 OFFCURVE"
);
},
{
closed = 1;
nodes = (
"773 -36 CURVE SMOOTH",
"1243 -36 OFFCURVE",
"1511 287 OFFCURVE",
"1511 808 CURVE SMOOTH",
"1511 1284 OFFCURVE",
"1304 1595 OFFCURVE",
"824 1595 CURVE SMOOTH",
"334 1595 OFFCURVE",
"87 1271 OFFCURVE",
"87 750 CURVE SMOOTH",
"87 275 OFFCURVE",
"293 -36 OFFCURVE"
);
},
{
closed = 1;
nodes = (
"804 1431 CURVE SMOOTH",
"973 1431 OFFCURVE",
"1055 1262 OFFCURVE",
"1055 796 CURVE SMOOTH",
"1055 316 OFFCURVE",
"968 128 OFFCURVE",
"793 128 CURVE SMOOTH",
"624 128 OFFCURVE",
"542 302 OFFCURVE",
"542 768 CURVE SMOOTH",
"542 1246 OFFCURVE",
"628 1431 OFFCURVE"
);
}
);
width = 1597;
}
);
unicode = 0051;
},
{
glyphname = R;
lastChange = "2016-01-10 17:50:50 +0000";
layers = (
{
anchors = (
{
name = btm;
position = "{817, -170}";
},
{
name = top;
position = "{774, 1700}";
}
);
associatedMasterId = "6D8A9A52-7D7D-4498-B039-FDF10F245A16";
background = {
anchors = (
{
name = btm;
position = "{817, -170}";
},
{
name = top;
position = "{774, 1700}";
}
);
paths = (
{
closed = 1;
nodes = (
"1236 0 OFFCURVE",
"1276 0 OFFCURVE",
"1474 0 CURVE",
"1474 85 LINE",
"1388 108 LINE",
"1283 133 OFFCURVE",
"1100 643 OFFCURVE",
"941 716 CURVE",
"805 722 LINE",
"774 683 LINE",
"932 637 OFFCURVE",
"1128 0 OFFCURVE",
"1235 0 CURVE SMOOTH"
);
},
{
closed = 1;
nodes = (
"160 0 LINE",
"714 0 LINE",
"714 88 LINE",
"463 110 LINE",
"504 63 LINE",
"504 677 LINE",
"547 676 OFFCURVE",
"780 675 OFFCURVE",
"817 675 CURVE",
"895 675 OFFCURVE",
"847 686 OFFCURVE",
"885 690 CURVE",
"1125 715 OFFCURVE",
"1268 921 OFFCURVE",
"1268 1137 CURVE SMOOTH",
"1268 1402 OFFCURVE",
"1125 1538 OFFCURVE",
"725 1538 CURVE SMOOTH",
"624 1538 OFFCURVE",
"531 1522 OFFCURVE",
"422 1522 CURVE SMOOTH",
"171 1522 LINE",
"171 1437 LINE",
"367 1410 LINE",
"335 1447 LINE",
"335 63 LINE",
"366 110 LINE",
"160 88 LINE"
);
},
{
closed = 1;
nodes = (
"730 776 OFFCURVE",
"576 774 OFFCURVE",
"504 779 CURVE",
"504 1425 LINE",
"551 1425 OFFCURVE",
"603 1437 OFFCURVE",
"709 1437 CURVE SMOOTH",
"1005 1437 OFFCURVE",
"1086 1305 OFFCURVE",
"1086 1123 CURVE SMOOTH",
"1086 889 OFFCURVE",
"962 776 OFFCURVE",
"780 776 CURVE SMOOTH"
);
}
);
};
layerId = "0388B149-27CF-431B-83B6-92DF0DED5937";
name = "Light Sep 30 15, 11:17";
paths = (
{
closed = 1;
nodes = (
"505 1465 LINE",
"552 1465 OFFCURVE",
"624 1477 OFFCURVE",
"730 1477 CURVE SMOOTH",
"1026 1477 OFFCURVE",
"1107 1345 OFFCURVE",
"1107 1153 CURVE SMOOTH",
"1107 908 OFFCURVE",
"983 796 OFFCURVE",
"801 796 CURVE SMOOTH",
"748 796 OFFCURVE",
"558 794 OFFCURVE",
"467 800 CURVE",
"467 697 LINE",
"523 696 OFFCURVE",
"799 695 OFFCURVE",
"838 695 CURVE SMOOTH",
"916 695 OFFCURVE",
"868 706 OFFCURVE",
"906 710 CURVE SMOOTH",
"1146 735 OFFCURVE",
"1291 940 OFFCURVE",
"1291 1167 CURVE SMOOTH",
"1291 1443 OFFCURVE",
"1146 1578 OFFCURVE",
"746 1578 CURVE SMOOTH",
"645 1578 OFFCURVE",
"532 1562 OFFCURVE",
"423 1562 CURVE SMOOTH",
"120 1562 LINE",
"120 1474 LINE",
"279 1442 LINE SMOOTH",
"314 1435 OFFCURVE",
"335 1415 OFFCURVE",
"335 1378 CURVE SMOOTH",
"335 181 LINE SMOOTH",
"335 144 OFFCURVE",
"314 125 OFFCURVE",
"278 118 CURVE SMOOTH",
"120 88 LINE",
"120 0 LINE",
"735 0 LINE",
"735 88 LINE",
"562 119 LINE SMOOTH",
"525 126 OFFCURVE",
"505 144 OFFCURVE",
"505 181 CURVE SMOOTH"
);
},
{
closed = 1;
nodes = (
"1495 0 LINE",
"1495 88 LINE",
"1364 118 LINE SMOOTH",
"1259 142 OFFCURVE",
"1101 663 OFFCURVE",
"942 736 CURVE",
"806 742 LINE",
"775 703 LINE",
"933 657 OFFCURVE",
"1109 0 OFFCURVE",
"1216 0 CURVE SMOOTH"
);
}
);
width = 1494;
},
{
anchors = (
{
name = btm;
position = "{831, -170}";
},
{
name = top;
position = "{788, 1700}";
}
);
associatedMasterId = "6AFE116F-39E0-4FF2-A27B-879B4E5E3272";
background = {
anchors = (
{
name = btm;
position = "{831, -170}";
},
{
name = top;
position = "{788, 1700}";
}
);
paths = (
{
closed = 1;
nodes = (
"1151 0 OFFCURVE",
"1523 0 OFFCURVE",
"1594 0 CURVE",
"1594 152 LINE",
"1544 169 LINE",
"1443 196 OFFCURVE",
"1402 654 OFFCURVE",
"1109 711 CURVE",
"881 724 LINE",
"816 638 LINE",
"973 606 OFFCURVE",
"1050 0 OFFCURVE",
"1151 0 CURVE SMOOTH"
);
},
{
closed = 1;
nodes = (
"111 0 LINE",
"848 0 LINE",
"848 152 LINE",
"627 181 LINE",
"675 129 LINE",
"675 636 LINE",
"688 636 OFFCURVE",
"911 636 OFFCURVE",
"922 636 CURVE",
"944 636 OFFCURVE",
"1008 680 OFFCURVE",
"1020 681 CURVE",
"1318 698 OFFCURVE",
"1426 940 OFFCURVE",
"1426 1125 CURVE SMOOTH",
"1426 1419 OFFCURVE",
"1261 1533 OFFCURVE",
"813 1533 CURVE SMOOTH",
"656 1533 OFFCURVE",
"578 1522 OFFCURVE",
"455 1522 CURVE SMOOTH",
"115 1522 LINE",
"115 1360 LINE",
"302 1322 LINE",
"260 1414 LINE",
"260 129 LINE",
"290 180 LINE",
"111 152 LINE"
);
},
{
closed = 1;
nodes = (
"765 782 OFFCURVE",
"691 781 OFFCURVE",
"675 789 CURVE",
"675 1376 LINE",
"689 1381 OFFCURVE",
"721 1385 OFFCURVE",
"778 1385 CURVE SMOOTH",
"925 1385 OFFCURVE",
"989 1308 OFFCURVE",
"989 1112 CURVE SMOOTH",
"989 883 OFFCURVE",
"916 782 OFFCURVE",
"791 782 CURVE SMOOTH"
);
}
);
};
layerId = "1164D395-95D7-4D06-AC90-8722181BA5ED";
name = "Bold Sep 30 15, 11:26";
paths = (
{
closed = 1;
nodes = (
"664 1416 LINE",
"678 1421 OFFCURVE",
"710 1425 OFFCURVE",
"779 1425 CURVE SMOOTH",
"926 1425 OFFCURVE",
"1010 1348 OFFCURVE",
"1010 1142 CURVE SMOOTH",
"1010 903 OFFCURVE",
"917 802 OFFCURVE",
"792 802 CURVE SMOOTH",
"755 802 OFFCURVE",
"669 799 OFFCURVE",
"615 817 CURVE",
"615 656 LINE",
"734 656 OFFCURVE",
"836 656 OFFCURVE",
"923 656 CURVE SMOOTH",
"945 656 OFFCURVE",
"1009 700 OFFCURVE",
"1021 701 CURVE SMOOTH",
"1319 718 OFFCURVE",
"1447 960 OFFCURVE",
"1447 1155 CURVE SMOOTH",
"1447 1459 OFFCURVE",
"1262 1573 OFFCURVE",
"814 1573 CURVE SMOOTH",
"645 1573 OFFCURVE",
"567 1562 OFFCURVE",
"444 1562 CURVE SMOOTH",
"50 1562 LINE",
"50 1400 LINE",
"205 1370 LINE SMOOTH",
"234 1364 OFFCURVE",
"250 1346 OFFCURVE",
"250 1316 CURVE SMOOTH",
"250 236 LINE SMOOTH",
"250 206 OFFCURVE",
"234 189 OFFCURVE",
"204 183 CURVE SMOOTH",
"50 154 LINE",
"50 0 LINE",
"862 0 LINE",
"862 152 LINE",
"710 179 LINE SMOOTH",
"680 184 OFFCURVE",
"664 201 OFFCURVE",
"664 232 CURVE SMOOTH"
);
},
{
closed = 1;
nodes = (
"1618 0 LINE",
"1618 152 LINE",
"1518 179 LINE",
"1417 206 OFFCURVE",
"1403 674 OFFCURVE",
"1110 731 CURVE",
"882 744 LINE",
"817 658 LINE",
"974 626 OFFCURVE",
"1031 0 OFFCURVE",
"1132 0 CURVE SMOOTH"
);
}
);
width = 1617;
},
{
anchors = (
{
name = btm;
position = "{843, 0}";
},
{
name = top;
position = "{730, 1562}";
}
);
background = {
anchors = (
{
name = btm;
position = "{817, -170}";
},
{
name = top;
position = "{774, 1700}";
}
);
paths = (
{
closed = 1;
nodes = (
"1236 0 OFFCURVE",
"1276 0 OFFCURVE",
"1474 0 CURVE",
"1474 85 LINE",
"1388 108 LINE",
"1283 133 OFFCURVE",
"1100 643 OFFCURVE",
"941 716 CURVE",
"805 722 LINE",
"774 683 LINE",
"932 637 OFFCURVE",
"1128 0 OFFCURVE",
"1235 0 CURVE SMOOTH"
);
},
{
closed = 1;
nodes = (
"160 0 LINE",
"714 0 LINE",
"714 88 LINE",
"463 110 LINE",
"504 63 LINE",
"504 677 LINE",
"547 676 OFFCURVE",
"780 675 OFFCURVE",
"817 675 CURVE",
"895 675 OFFCURVE",
"847 686 OFFCURVE",
"885 690 CURVE",
"1125 715 OFFCURVE",
"1268 921 OFFCURVE",
"1268 1137 CURVE SMOOTH",
"1268 1402 OFFCURVE",
"1125 1538 OFFCURVE",
"725 1538 CURVE SMOOTH",
"624 1538 OFFCURVE",
"531 1522 OFFCURVE",
"422 1522 CURVE SMOOTH",
"171 1522 LINE",
"171 1437 LINE",
"367 1410 LINE",
"335 1447 LINE",
"335 63 LINE",
"366 110 LINE",
"160 88 LINE"
);
},
{
closed = 1;
nodes = (
"730 776 OFFCURVE",
"576 774 OFFCURVE",
"504 779 CURVE",
"504 1425 LINE",
"551 1425 OFFCURVE",
"603 1437 OFFCURVE",
"709 1437 CURVE SMOOTH",
"1005 1437 OFFCURVE",
"1086 1305 OFFCURVE",
"1086 1123 CURVE SMOOTH",
"1086 889 OFFCURVE",
"962 776 OFFCURVE",
"780 776 CURVE SMOOTH"
);
}
);
};
layerId = "CC155F3D-C5F1-4BD6-ADDB-35EE7B3EECEB";
name = Light;
paths = (
{
closed = 1;
nodes = (
"731 0 LINE",
"731 88 LINE",
"558 119 LINE SMOOTH",
"521 126 OFFCURVE",
"501 144 OFFCURVE",
"501 181 CURVE SMOOTH",
"501 1463 LINE",
"537 1466 OFFCURVE",
"627 1477 OFFCURVE",
"717 1477 CURVE SMOOTH",
"1022 1477 OFFCURVE",
"1103 1350 OFFCURVE",
"1103 1152 CURVE SMOOTH",
"1103 908 OFFCURVE",
"980 797 OFFCURVE",
"797 796 CURVE SMOOTH",
"744 796 OFFCURVE",
"554 794 OFFCURVE",
"463 800 CURVE",
"463 697 LINE",
"515 697 OFFCURVE",
"669 695 OFFCURVE",
"831 695 CURVE",
"921 714 LINE",
"1044 736 OFFCURVE",
"1287 823 OFFCURVE",
"1287 1165 CURVE SMOOTH",
"1287 1438 OFFCURVE",
"1142 1578 OFFCURVE",
"756 1578 CURVE SMOOTH",
"625 1578 OFFCURVE",
"535 1562 OFFCURVE",
"419 1562 CURVE SMOOTH",
"116 1562 LINE",
"116 1474 LINE",
"275 1442 LINE SMOOTH",
"310 1435 OFFCURVE",
"331 1415 OFFCURVE",
"331 1378 CURVE SMOOTH",
"331 181 LINE SMOOTH",
"331 144 OFFCURVE",
"310 125 OFFCURVE",
"274 118 CURVE SMOOTH",
"116 88 LINE",
"116 0 LINE"
);
},
{
closed = 1;
nodes = (
"1491 0 LINE",
"1491 88 LINE",
"1375 113 LINE SMOOTH",
"1327 123 OFFCURVE",
"1307 136 OFFCURVE",
"1280 187 CURVE SMOOTH",
"1116 491 LINE SMOOTH",
"1044 624 OFFCURVE",
"989 703 OFFCURVE",
"895 756 CURVE",
"740 730 LINE",
"802 704 OFFCURVE",
"869 587 OFFCURVE",
"937 452 CURVE SMOOTH",
"1036 255 LINE SMOOTH",
"1114 100 OFFCURVE",
"1161 0 OFFCURVE",
"1223 0 CURVE SMOOTH"
);
}
);
width = 1525;
},
{
anchors = (
{
name = btm;
position = "{925, 0}";
},
{
name = top;
position = "{807, 1562}";
}
);
background = {
anchors = (
{
name = btm;
position = "{831, -170}";
},
{
name = top;
position = "{788, 1700}";
}
);
paths = (
{
closed = 1;
nodes = (
"1151 0 OFFCURVE",
"1523 0 OFFCURVE",
"1594 0 CURVE",
"1594 152 LINE",
"1544 169 LINE",
"1443 196 OFFCURVE",
"1402 654 OFFCURVE",
"1109 711 CURVE",
"881 724 LINE",
"816 638 LINE",
"973 606 OFFCURVE",
"1050 0 OFFCURVE",
"1151 0 CURVE SMOOTH"
);
},
{
closed = 1;
nodes = (
"111 0 LINE",
"848 0 LINE",
"848 152 LINE",
"627 181 LINE",
"675 129 LINE",
"675 636 LINE",
"688 636 OFFCURVE",
"911 636 OFFCURVE",
"922 636 CURVE",
"944 636 OFFCURVE",
"1008 680 OFFCURVE",
"1020 681 CURVE",
"1318 698 OFFCURVE",
"1426 940 OFFCURVE",
"1426 1125 CURVE SMOOTH",
"1426 1419 OFFCURVE",
"1261 1533 OFFCURVE",
"813 1533 CURVE SMOOTH",
"656 1533 OFFCURVE",
"578 1522 OFFCURVE",
"455 1522 CURVE SMOOTH",
"115 1522 LINE",
"115 1360 LINE",
"302 1322 LINE",
"260 1414 LINE",
"260 129 LINE",
"290 180 LINE",
"111 152 LINE"
);
},
{
closed = 1;
nodes = (
"765 782 OFFCURVE",
"691 781 OFFCURVE",
"675 789 CURVE",
"675 1376 LINE",
"689 1381 OFFCURVE",
"721 1385 OFFCURVE",
"778 1385 CURVE SMOOTH",
"925 1385 OFFCURVE",
"989 1308 OFFCURVE",
"989 1112 CURVE SMOOTH",
"989 883 OFFCURVE",
"916 782 OFFCURVE",
"791 782 CURVE SMOOTH"
);
}
);
};
layerId = "8FEE59FF-6340-42D3-B032-E0350BDE9EA7";
name = Bold;
paths = (
{
closed = 1;
nodes = (
"896 0 LINE",
"896 152 LINE",
"744 179 LINE SMOOTH",
"714 184 OFFCURVE",
"698 201 OFFCURVE",
"698 232 CURVE SMOOTH",
"698 1416 LINE",
"732 1421 OFFCURVE",
"768 1425 OFFCURVE",
"805 1425 CURVE SMOOTH",
"960 1425 OFFCURVE",
"1044 1355 OFFCURVE",
"1044 1136 CURVE SMOOTH",
"1044 901 OFFCURVE",
"948 803 OFFCURVE",
"826 802 CURVE SMOOTH",
"787 802 OFFCURVE",
"703 799 OFFCURVE",
"649 817 CURVE",
"649 656 LINE",
"768 656 OFFCURVE",
"870 656 OFFCURVE",
"957 656 CURVE",
"1055 701 LINE",
"1243 746 OFFCURVE",
"1481 804 OFFCURVE",
"1481 1153 CURVE SMOOTH",
"1481 1461 OFFCURVE",
"1296 1573 OFFCURVE",
"836 1573 CURVE SMOOTH",
"692 1573 OFFCURVE",
"595 1562 OFFCURVE",
"478 1562 CURVE SMOOTH",
"84 1562 LINE",
"84 1400 LINE",
"239 1370 LINE SMOOTH",
"268 1364 OFFCURVE",
"284 1346 OFFCURVE",
"284 1316 CURVE SMOOTH",
"284 236 LINE SMOOTH",
"284 206 OFFCURVE",
"268 189 OFFCURVE",
"238 183 CURVE SMOOTH",
"84 154 LINE",
"84 0 LINE"
);
},
{
closed = 1;
nodes = (
"1653 0 LINE",
"1653 152 LINE",
"1562 177 LINE SMOOTH",
"1529 186 OFFCURVE",
"1514 198 OFFCURVE",
"1494 243 CURVE SMOOTH",
"1395 475 LINE SMOOTH",
"1317 658 OFFCURVE",
"1207 724 OFFCURVE",
"1011 767 CURVE",
"781 708 LINE",
"850 681 OFFCURVE",
"900 606 OFFCURVE",
"952 466 CURVE SMOOTH",
"1053 193 LINE SMOOTH",
"1096 78 OFFCURVE",
"1138 0 OFFCURVE",
"1196 0 CURVE SMOOTH"
);
}
);
width = 1678;
}
);
unicode = 0052;
},
{
glyphname = S;
lastChange = "2016-01-10 17:50:50 +0000";
layers = (
{
anchors = (
{
name = btm;
position = "{605, 0}";
},
{
name = top;
position = "{640, 1562}";
}
);
background = {
anchors = (
{
name = btm;
position = "{560, -170}";
},
{
name = top;
position = "{605, 1700}";
}
);
paths = (
{
closed = 1;
nodes = (
"545 -23 CURVE SMOOTH",
"883 -23 OFFCURVE",
"1075 196 OFFCURVE",
"1075 408 CURVE SMOOTH",
"1075 654 OFFCURVE",
"838 757 OFFCURVE",
"636 853 CURVE SMOOTH",
"421 955 OFFCURVE",
"274 1018 OFFCURVE",
"274 1194 CURVE SMOOTH",
"274 1360 OFFCURVE",
"384 1441 OFFCURVE",
"586 1441 CURVE SMOOTH",
"702 1441 OFFCURVE",
"803 1407 OFFCURVE",
"831 1383 CURVE",
"869 1128 LINE",
"970 1128 LINE",
"983 1465 LINE",
"923 1475 OFFCURVE",
"779 1538 OFFCURVE",
"595 1538 CURVE SMOOTH",
"312 1538 OFFCURVE",
"113 1383 OFFCURVE",
"113 1152 CURVE SMOOTH",
"113 888 OFFCURVE",
"361 778 OFFCURVE",
"530 705 CURVE SMOOTH",
"737 616 OFFCURVE",
"898 542 OFFCURVE",
"898 362 CURVE SMOOTH",
"898 189 OFFCURVE",
"781 77 OFFCURVE",
"555 77 CURVE SMOOTH",
"414 77 OFFCURVE",
"293 122 OFFCURVE",
"245 168 CURVE",
"214 437 LINE",
"109 437 LINE",
"92 71 LINE",
"156 65 OFFCURVE",
"313 -23 OFFCURVE"
);
}
);
};
layerId = "CC155F3D-C5F1-4BD6-ADDB-35EE7B3EECEB";
name = Light;
paths = (
{
closed = 1;
nodes = (
"1145 407 CURVE SMOOTH",
"1145 662 OFFCURVE",
"926 771 OFFCURVE",
"714 870 CURVE SMOOTH",
"470 984 OFFCURVE",
"334 1049 OFFCURVE",
"334 1239 CURVE SMOOTH",
"334 1401 OFFCURVE",
"433 1491 OFFCURVE",
"625 1491 CURVE SMOOTH",
"731 1491 OFFCURVE",
"823 1454 OFFCURVE",
"868 1415 CURVE SMOOTH",
"896 1391 OFFCURVE",
"906 1366 OFFCURVE",
"910 1345 CURVE SMOOTH",
"949 1148 LINE",
"1050 1148 LINE",
"1067 1260 OFFCURVE",
"1072 1373 OFFCURVE",
"1063 1505 CURVE",
"962 1556 OFFCURVE",
"809 1588 OFFCURVE",
"667 1588 CURVE SMOOTH",
"344 1588 OFFCURVE",
"173 1423 OFFCURVE",
"173 1193 CURVE SMOOTH",
"173 918 OFFCURVE",
"417 807 OFFCURVE",
"608 722 CURVE SMOOTH",
"828 624 OFFCURVE",
"968 560 OFFCURVE",
"968 358 CURVE SMOOTH",
"968 177 OFFCURVE",
"855 67 OFFCURVE",
"639 67 CURVE SMOOTH",
"503 67 OFFCURVE",
"391 122 OFFCURVE",
"335 182 CURVE SMOOTH",
"312 207 OFFCURVE",
"304 231 OFFCURVE",
"301 250 CURVE SMOOTH",
"264 476 LINE",
"159 476 LINE",
"143 344 OFFCURVE",
"138 222 OFFCURVE",
"142 100 CURVE",
"237 37 OFFCURVE",
"407 -33 OFFCURVE",
"620 -33 CURVE SMOOTH",
"978 -33 OFFCURVE",
"1145 185 OFFCURVE"
);
}
);
width = 1267;
},
{
anchors = (
{
name = btm;
position = "{623, 0}";
},
{
name = top;
position = "{688, 1562}";
}
);
background = {
anchors = (
{
name = btm;
position = "{625, -170}";
},
{
name = top;
position = "{670, 1700}";
}
);
paths = (
{
closed = 1;
nodes = (
"627 -23 CURVE SMOOTH",
"1126 -23 OFFCURVE",
"1229 252 OFFCURVE",
"1229 449 CURVE SMOOTH",
"1229 701 OFFCURVE",
"1014 825 OFFCURVE",
"865 898 CURVE SMOOTH",
"678 991 OFFCURVE",
"498 1072 OFFCURVE",
"498 1220 CURVE SMOOTH",
"498 1303 OFFCURVE",
"546 1390 OFFCURVE",
"692 1390 CURVE SMOOTH",
"775 1390 OFFCURVE",
"833 1366 OFFCURVE",
"846 1346 CURVE",
"895 1095 LINE",
"1112 1095 LINE",
"1125 1470 LINE",
"1065 1473 OFFCURVE",
"924 1543 OFFCURVE",
"668 1543 CURVE SMOOTH",
"260 1543 OFFCURVE",
"106 1327 OFFCURVE",
"106 1112 CURVE SMOOTH",
"106 822 OFFCURVE",
"330 681 OFFCURVE",
"481 610 CURVE SMOOTH",
"693 510 OFFCURVE",
"817 441 OFFCURVE",
"817 315 CURVE SMOOTH",
"817 206 OFFCURVE",
"752 136 OFFCURVE",
"601 136 CURVE SMOOTH",
"487 136 OFFCURVE",
"420 168 OFFCURVE",
"399 197 CURVE",
"342 454 LINE",
"120 454 LINE",
"103 66 LINE",
"172 61 OFFCURVE",
"368 -23 OFFCURVE"
);
}
);
};
layerId = "8FEE59FF-6340-42D3-B032-E0350BDE9EA7";
name = Bold;
paths = (
{
closed = 1;
nodes = (
"1252 448 CURVE SMOOTH",
"1252 695 OFFCURVE",
"1063 834 OFFCURVE",
"830 955 CURVE SMOOTH",
"629 1059 OFFCURVE",
"506 1123 OFFCURVE",
"506 1269 CURVE SMOOTH",
"506 1370 OFFCURVE",
"572 1440 OFFCURVE",
"680 1440 CURVE SMOOTH",
"729 1440 OFFCURVE",
"788 1427 OFFCURVE",
"822 1402 CURVE SMOOTH",
"845 1385 OFFCURVE",
"857 1363 OFFCURVE",
"865 1320 CURVE SMOOTH",
"908 1088 LINE",
"1135 1088 LINE",
"1157 1220 OFFCURVE",
"1169 1378 OFFCURVE",
"1158 1510 CURVE",
"1035 1558 OFFCURVE",
"857 1593 OFFCURVE",
"695 1593 CURVE SMOOTH",
"305 1593 OFFCURVE",
"114 1390 OFFCURVE",
"114 1122 CURVE SMOOTH",
"114 860 OFFCURVE",
"297 761 OFFCURVE",
"509 647 CURVE SMOOTH",
"686 552 OFFCURVE",
"840 466 OFFCURVE",
"840 303 CURVE SMOOTH",
"840 195 OFFCURVE",
"768 120 OFFCURVE",
"651 120 CURVE SMOOTH",
"566 120 OFFCURVE",
"491 158 OFFCURVE",
"453 190 CURVE SMOOTH",
"426 212 OFFCURVE",
"415 236 OFFCURVE",
"410 269 CURVE SMOOTH",
"370 533 LINE",
"136 533 LINE",
"115 419 OFFCURVE",
"99 234 OFFCURVE",
"107 83 CURVE",
"245 21 OFFCURVE",
"436 -33 OFFCURVE",
"643 -33 CURVE SMOOTH",
"1092 -33 OFFCURVE",
"1252 221 OFFCURVE"
);
}
);
width = 1331;
}
);
unicode = 0053;
},
{
glyphname = T;
lastChange = "2016-01-10 17:50:50 +0000";
layers = (
{
anchors = (
{
name = btm;
position = "{741, 0}";
},
{
name = top;
position = "{744, 1562}";
}
);
background = {
anchors = (
{
name = btm;
position = "{712, -170}";
},
{
name = top;
position = "{712, 1700}";
}
);
paths = (
{
closed = 1;
nodes = (
"336 0 LINE",
"1073 0 LINE",
"1073 88 LINE",
"731 111 LINE",
"781 58 LINE",
"781 1429 LINE",
"1175 1418 LINE",
"1232 1001 LINE",
"1342 1001 LINE",
"1319 1522 LINE",
"71 1522 LINE",
"37 1001 LINE",
"149 1001 LINE",
"215 1418 LINE",
"604 1429 LINE",
"604 61 LINE",
"653 111 LINE",
"336 88 LINE"
);
}
);
};
layerId = "CC155F3D-C5F1-4BD6-ADDB-35EE7B3EECEB";
name = Light;
paths = (
{
closed = 1;
nodes = (
"1116 0 LINE",
"1116 88 LINE",
"882 123 LINE SMOOTH",
"845 129 OFFCURVE",
"826 149 OFFCURVE",
"826 186 CURVE SMOOTH",
"826 1464 LINE",
"960 1464 LINE SMOOTH",
"1065 1464 OFFCURVE",
"1141 1456 OFFCURVE",
"1184 1440 CURVE SMOOTH",
"1214 1429 OFFCURVE",
"1231 1413 OFFCURVE",
"1238 1379 CURVE SMOOTH",
"1294 1116 LINE",
"1392 1116 LINE",
"1404 1275 OFFCURVE",
"1400 1418 OFFCURVE",
"1384 1562 CURVE",
"103 1562 LINE",
"85 1418 OFFCURVE",
"77 1275 OFFCURVE",
"86 1116 CURVE",
"184 1116 LINE",
"243 1379 LINE SMOOTH",
"251 1413 OFFCURVE",
"268 1429 OFFCURVE",
"300 1440 CURVE SMOOTH",
"339 1454 OFFCURVE",
"426 1464 OFFCURVE",
"527 1464 CURVE SMOOTH",
"656 1464 LINE",
"656 186 LINE SMOOTH",
"656 149 OFFCURVE",
"637 129 OFFCURVE",
"600 123 CURVE SMOOTH",
"366 88 LINE",
"366 0 LINE"
);
}
);
width = 1482;
},
{
anchors = (
{
name = btm;
position = "{816, 0}";
},
{
name = top;
position = "{815, 1562}";
}
);
background = {
anchors = (
{
name = btm;
position = "{804, -170}";
},
{
name = top;
position = "{813, 1700}";
}
);
paths = (
{
closed = 1;
nodes = (
"340 0 LINE",
"1296 0 LINE",
"1296 152 LINE",
"963 181 LINE",
"1013 91 LINE",
"1013 1350 LINE",
"1210 1339 LINE",
"1311 868 LINE",
"1519 868 LINE",
"1492 1522 LINE",
"106 1522 LINE",
"74 868 LINE",
"295 868 LINE",
"390 1339 LINE",
"597 1350 LINE",
"597 95 LINE",
"627 179 LINE",
"340 152 LINE"
);
}
);
};
layerId = "8FEE59FF-6340-42D3-B032-E0350BDE9EA7";
name = Bold;
paths = (
{
closed = 1;
nodes = (
"1304 0 LINE",
"1304 152 LINE",
"1070 191 LINE SMOOTH",
"1040 196 OFFCURVE",
"1024 214 OFFCURVE",
"1024 244 CURVE SMOOTH",
"1024 1397 LINE",
"1096 1397 LINE SMOOTH",
"1141 1397 OFFCURVE",
"1188 1391 OFFCURVE",
"1217 1379 CURVE SMOOTH",
"1244 1368 OFFCURVE",
"1256 1353 OFFCURVE",
"1263 1328 CURVE SMOOTH",
"1358 968 LINE",
"1558 968 LINE",
"1581 1176 OFFCURVE",
"1590 1344 OFFCURVE",
"1568 1562 CURVE",
"62 1562 LINE",
"41 1344 OFFCURVE",
"49 1183 OFFCURVE",
"75 968 CURVE",
"275 968 LINE",
"364 1327 LINE SMOOTH",
"370 1352 OFFCURVE",
"383 1368 OFFCURVE",
"410 1379 CURVE SMOOTH",
"439 1391 OFFCURVE",
"486 1397 OFFCURVE",
"531 1397 CURVE SMOOTH",
"608 1397 LINE",
"608 244 LINE SMOOTH",
"608 214 OFFCURVE",
"592 196 OFFCURVE",
"562 191 CURVE SMOOTH",
"328 152 LINE",
"328 0 LINE"
);
}
);
width = 1632;
}
);
rightMetricsKey = "=|";
unicode = 0054;
},
{
glyphname = U;
lastChange = "2016-01-10 17:50:50 +0000";
layers = (
{
anchors = (
{
name = btm;
position = "{839, 0}";
},
{
name = top;
position = "{861, 1562}";
}
);
background = {
anchors = (
{
name = btm;
position = "{793, -170}";
},
{
name = top;
position = "{799, 1700}";
}
);
paths = (
{
closed = 1;
nodes = (
"781 -16 CURVE SMOOTH",
"1092 -16 OFFCURVE",
"1322 181 OFFCURVE",
"1322 625 CURVE SMOOTH",
"1322 1460 LINE",
"1294 1407 LINE",
"1479 1434 LINE",
"1479 1522 LINE",
"1024 1522 LINE",
"1024 1434 LINE",
"1227 1406 LINE",
"1193 1460 LINE",
"1193 617 LINE",
"1193 269 OFFCURVE",
"1059 83 OFFCURVE",
"797 83 CURVE SMOOTH",
"557 83 OFFCURVE",
"385 208 OFFCURVE",
"385 633 CURVE SMOOTH",
"385 1460 LINE",
"356 1407 LINE",
"561 1434 LINE",
"561 1522 LINE",
"60 1522 LINE",
"60 1434 LINE",
"238 1407 LINE",
"212 1460 LINE",
"212 651 LINE",
"212 199 OFFCURVE",
"385 -16 OFFCURVE"
);
}
);
};
layerId = "CC155F3D-C5F1-4BD6-ADDB-35EE7B3EECEB";
name = Light;
paths = (
{
closed = 1;
nodes = (
"1040 1562 LINE",
"1040 1474 LINE",
"1216 1442 LINE SMOOTH",
"1251 1436 OFFCURVE",
"1269 1413 OFFCURVE",
"1269 1377 CURVE SMOOTH",
"1269 567 LINE SMOOTH",
"1269 244 OFFCURVE",
"1146 80 OFFCURVE",
"857 80 CURVE SMOOTH",
"624 80 OFFCURVE",
"453 196 OFFCURVE",
"453 583 CURVE SMOOTH",
"453 1376 LINE SMOOTH",
"453 1412 OFFCURVE",
"472 1436 OFFCURVE",
"507 1442 CURVE SMOOTH",
"689 1474 LINE",
"689 1562 LINE",
"107 1562 LINE",
"107 1474 LINE",
"227 1444 LINE SMOOTH",
"262 1435 OFFCURVE",
"279 1414 OFFCURVE",
"279 1378 CURVE SMOOTH",
"279 601 LINE SMOOTH",
"279 191 OFFCURVE",
"442 -19 OFFCURVE",
"826 -19 CURVE SMOOTH",
"1190 -19 OFFCURVE",
"1399 161 OFFCURVE",
"1399 575 CURVE SMOOTH",
"1399 1377 LINE SMOOTH",
"1399 1413 OFFCURVE",
"1416 1436 OFFCURVE",
"1451 1444 CURVE SMOOTH",
"1576 1474 LINE",
"1576 1562 LINE"
);
}
);
width = 1678;
},
{
anchors = (
{
name = btm;
position = "{863, 0}";
},
{
name = top;
position = "{893, 1562}";
}
);
background = {
anchors = (
{
name = btm;
position = "{789, -170}";
},
{
name = top;
position = "{843, 1700}";
}
);
paths = (
{
closed = 1;
nodes = (
"834 -16 CURVE SMOOTH",
"1180 -16 OFFCURVE",
"1430 154 OFFCURVE",
"1430 598 CURVE SMOOTH",
"1430 1420 LINE",
"1393 1321 LINE",
"1557 1360 LINE",
"1557 1522 LINE",
"997 1522 LINE",
"997 1360 LINE",
"1218 1323 LINE",
"1176 1420 LINE",
"1176 575 LINE",
"1176 332 OFFCURVE",
"1107 141 OFFCURVE",
"898 141 CURVE SMOOTH",
"683 141 OFFCURVE",
"609 320 OFFCURVE",
"609 575 CURVE SMOOTH",
"609 1420 LINE",
"585 1321 LINE",
"779 1360 LINE",
"779 1522 LINE",
"60 1522 LINE",
"60 1360 LINE",
"218 1320 LINE",
"179 1420 LINE",
"179 609 LINE",
"179 166 OFFCURVE",
"408 -16 OFFCURVE"
);
}
);
};
layerId = "8FEE59FF-6340-42D3-B032-E0350BDE9EA7";
name = Bold;
paths = (
{
closed = 1;
nodes = (
"1047 1562 LINE",
"1047 1400 LINE",
"1211 1369 LINE SMOOTH",
"1240 1364 OFFCURVE",
"1256 1345 OFFCURVE",
"1256 1315 CURVE SMOOTH",
"1256 555 LINE SMOOTH",
"1256 312 OFFCURVE",
"1187 131 OFFCURVE",
"948 131 CURVE SMOOTH",
"713 131 OFFCURVE",
"649 300 OFFCURVE",
"649 555 CURVE SMOOTH",
"649 1311 LINE SMOOTH",
"649 1341 OFFCURVE",
"664 1360 OFFCURVE",
"693 1366 CURVE SMOOTH",
"849 1400 LINE",
"849 1562 LINE",
"80 1562 LINE",
"80 1400 LINE",
"177 1372 LINE SMOOTH",
"205 1364 OFFCURVE",
"219 1345 OFFCURVE",
"219 1316 CURVE SMOOTH",
"219 589 LINE SMOOTH",
"219 146 OFFCURVE",
"438 -26 OFFCURVE",
"884 -26 CURVE SMOOTH",
"1260 -26 OFFCURVE",
"1506 134 OFFCURVE",
"1506 578 CURVE SMOOTH",
"1506 1316 LINE SMOOTH",
"1506 1345 OFFCURVE",
"1521 1365 OFFCURVE",
"1549 1372 CURVE SMOOTH",
"1657 1400 LINE",
"1657 1562 LINE"
);
}
);
width = 1731;
}
);
rightMetricsKey = "=|";
unicode = 0055;
},
{
glyphname = V;
lastChange = "2016-01-10 17:50:50 +0000";
layers = (
{
anchors = (
{
name = bottom;
position = "{754, -178}";
},
{
name = btm;
position = "{783, 0}";
},
{
name = top;
position = "{637, 1562}";
}
);
background = {
anchors = (
{
name = btm;
position = "{703, -170}";
},
{
name = top;
position = "{672, 1700}";
}
);
paths = (
{
closed = 1;
nodes = (
"633 -16 LINE",
"768 -16 LINE",
"1271 1455 LINE",
"1228 1407 LINE",
"1386 1434 LINE",
"1386 1522 LINE",
"955 1522 LINE",
"955 1434 LINE",
"1139 1409 LINE",
"1134 1457 LINE",
"805 428 LINE",
"727 145 LINE",
"641 423 LINE",
"263 1454 LINE",
"244 1408 LINE",
"467 1434 LINE",
"467 1522 LINE",
"-30 1522 LINE",
"-30 1434 LINE",
"135 1405 LINE",
"83 1450 LINE"
);
}
);
};
layerId = "CC155F3D-C5F1-4BD6-ADDB-35EE7B3EECEB";
name = Light;
paths = (
{
closed = 1;
nodes = (
"696 -5 LINE",
"854 -5 LINE",
"1332 1388 LINE SMOOTH",
"1342 1418 OFFCURVE",
"1363 1433 OFFCURVE",
"1394 1442 CURVE SMOOTH",
"1510 1474 LINE",
"1510 1562 LINE",
"1001 1562 LINE",
"1001 1474 LINE",
"1211 1432 LINE",
"760 77 LINE",
"839 77 LINE",
"336 1432 LINE",
"546 1474 LINE",
"546 1562 LINE",
"-5 1562 LINE",
"-5 1474 LINE",
"105 1442 LINE SMOOTH",
"137 1433 OFFCURVE",
"155 1419 OFFCURVE",
"167 1388 CURVE SMOOTH"
);
}
);
width = 1522;
},
{
anchors = (
{
name = bottom;
position = "{816, -178}";
},
{
name = btm;
position = "{969, 0}";
},
{
name = top;
position = "{593, 1562}";
}
);
background = {
anchors = (
{
name = btm;
position = "{677, -170}";
},
{
name = top;
position = "{646, 1700}";
}
);
paths = (
{
closed = 1;
nodes = (
"580 -15 LINE",
"917 -15 LINE",
"1403 1428 LINE",
"1322 1320 LINE",
"1503 1360 LINE",
"1503 1522 LINE",
"950 1522 LINE",
"950 1360 LINE",
"1158 1320 LINE",
"1140 1431 LINE",
"853 475 LINE",
"825 330 LINE",
"788 475 LINE",
"499 1427 LINE",
"469 1320 LINE",
"689 1360 LINE",
"689 1522 LINE",
"-43 1522 LINE",
"-43 1360 LINE",
"119 1320 LINE",
"42 1422 LINE"
);
}
);
};
layerId = "8FEE59FF-6340-42D3-B032-E0350BDE9EA7";
name = Bold;
paths = (
{
closed = 1;
nodes = (
"643 -5 LINE",
"1012 -5 LINE",
"1442 1324 LINE SMOOTH",
"1450 1350 OFFCURVE",
"1467 1364 OFFCURVE",
"1493 1370 CURVE SMOOTH",
"1633 1400 LINE",
"1633 1562 LINE",
"1037 1562 LINE",
"1037 1400 LINE",
"1227 1365 LINE",
"871 174 LINE",
"973 174 LINE",
"577 1365 LINE",
"767 1400 LINE",
"767 1562 LINE",
"-22 1562 LINE",
"-22 1400 LINE",
"108 1370 LINE SMOOTH",
"133 1364 OFFCURVE",
"150 1350 OFFCURVE",
"159 1324 CURVE SMOOTH"
);
}
);
width = 1625;
}
);
unicode = 0056;
},
{
glyphname = W;
lastChange = "2016-01-10 17:50:50 +0000";
layers = (
{
anchors = (
{
name = btm;
position = "{1116, 0}";
},
{
name = top;
position = "{1100, 1562}";
}
);
background = {
anchors = (
{
name = btm;
position = "{1109, -170}";
},
{
name = top;
position = "{1119, 1700}";
}
);
paths = (
{
closed = 1;
nodes = (
"655 -11 LINE",
"804 -11 LINE",
"1149 1122 LINE",
"1118 1101 LINE",
"1461 -11 LINE",
"1620 -11 LINE",
"2052 1453 LINE",
"2026 1409 LINE",
"2177 1434 LINE",
"2177 1522 LINE",
"1692 1522 LINE",
"1692 1434 LINE",
"1927 1409 LINE",
"1922 1463 LINE",
"1633 439 LINE",
"1555 34 LINE",
"1579 34 LINE",
"1486 439 LINE",
"1179 1474 LINE",
"1169 1408 LINE",
"1400 1434 LINE",
"1400 1522 LINE",
"868 1522 LINE",
"868 1434 LINE",
"1042 1408 LINE",
"1003 1463 LINE",
"1089 1195 LINE",
"1089 1285 LINE",
"829 439 LINE",
"732 44 LINE",
"764 44 LINE",
"682 439 LINE",
"369 1462 LINE",
"359 1408 LINE",
"585 1434 LINE",
"585 1522 LINE",
"70 1522 LINE",
"70 1434 LINE",
"235 1407 LINE",
"195 1466 LINE"
);
}
);
};
layerId = "CC155F3D-C5F1-4BD6-ADDB-35EE7B3EECEB";
name = Light;
paths = (
{
closed = 1;
nodes = (
"1070 1343 LINE",
"706 126 LINE",
"749 126 LINE",
"346 1432 LINE",
"556 1474 LINE",
"556 1562 LINE",
"1 1562 LINE",
"1 1474 LINE",
"116 1442 LINE SMOOTH",
"148 1433 OFFCURVE",
"167 1417 OFFCURVE",
"177 1386 CURVE SMOOTH",
"623 -11 LINE",
"788 -11 LINE",
"1138 1170 LINE"
);
},
{
closed = 1;
nodes = (
"1086 1168 LINE",
"1442 -11 LINE",
"1609 -11 LINE",
"2020 1385 LINE SMOOTH",
"2031 1422 OFFCURVE",
"2051 1433 OFFCURVE",
"2083 1442 CURVE SMOOTH",
"2199 1474 LINE",
"2199 1562 LINE",
"1694 1562 LINE",
"1694 1474 LINE",
"1904 1432 LINE",
"1526 120 LINE",
"1569 120 LINE",
"1176 1432 LINE",
"1384 1474 LINE",
"1384 1562 LINE",
"844 1562 LINE",
"844 1474 LINE",
"949 1442 LINE SMOOTH",
"981 1432 OFFCURVE",
"999 1417 OFFCURVE",
"1010 1386 CURVE SMOOTH"
);
}
);
width = 2213;
},
{
anchors = (
{
name = btm;
position = "{1181, 0}";
},
{
name = top;
position = "{1188, 1562}";
}
);
background = {
anchors = (
{
name = btm;
position = "{1033, -170}";
},
{
name = top;
position = "{1211, 1700}";
}
);
paths = (
{
closed = 1;
nodes = (
"586 -10 LINE",
"953 -10 LINE",
"1212 987 LINE",
"1155 918 LINE",
"1415 -10 LINE",
"1784 -10 LINE",
"2172 1425 LINE",
"2097 1317 LINE",
"2272 1360 LINE",
"2272 1522 LINE",
"1770 1522 LINE",
"1770 1360 LINE",
"2006 1316 LINE",
"1954 1438 LINE",
"1730 450 LINE",
"1696 224 LINE",
"1721 224 LINE",
"1673 450 LINE",
"1412 1452 LINE",
"1362 1317 LINE",
"1637 1360 LINE",
"1637 1522 LINE",
"900 1522 LINE",
"900 1360 LINE",
"1092 1313 LINE",
"985 1437 LINE",
"1096 1104 LINE",
"1091 1198 LINE",
"886 450 LINE",
"852 194 LINE",
"890 194 LINE",
"839 450 LINE",
"585 1436 LINE",
"536 1314 LINE",
"773 1360 LINE",
"773 1522 LINE",
"70 1522 LINE",
"70 1360 LINE",
"241 1312 LINE",
"146 1442 LINE"
);
}
);
};
layerId = "8FEE59FF-6340-42D3-B032-E0350BDE9EA7";
name = Bold;
paths = (
{
closed = 1;
nodes = (
"1091 1248 LINE",
"820 245 LINE",
"865 245 LINE",
"583 1365 LINE",
"748 1400 LINE",
"748 1562 LINE",
"-15 1562 LINE",
"-15 1400 LINE",
"120 1370 LINE SMOOTH",
"144 1365 OFFCURVE",
"160 1346 OFFCURVE",
"168 1321 CURVE SMOOTH",
"571 -5 LINE",
"941 -5 LINE",
"1213 1022 LINE"
);
},
{
closed = 1;
nodes = (
"1128 1032 LINE",
"1421 -5 LINE",
"1791 -5 LINE",
"2158 1321 LINE SMOOTH",
"2165 1348 OFFCURVE",
"2180 1365 OFFCURVE",
"2206 1370 CURVE SMOOTH",
"2351 1400 LINE",
"2351 1562 LINE",
"1785 1562 LINE",
"1785 1400 LINE",
"1950 1365 LINE",
"1665 245 LINE",
"1722 245 LINE",
"1441 1365 LINE",
"1638 1400 LINE",
"1638 1562 LINE",
"897 1562 LINE",
"897 1400 LINE",
"985 1370 LINE SMOOTH",
"1008 1362 OFFCURVE",
"1025 1346 OFFCURVE",
"1033 1321 CURVE SMOOTH"
);
}
);
width = 2342;
}
);
unicode = 0057;
},
{
glyphname = X;
lastChange = "2016-01-10 17:50:50 +0000";
layers = (
{
anchors = (
{
name = btm;
position = "{737, 0}";
},
{
name = top;
position = "{737, 1562}";
}
);
background = {
anchors = (
{
name = btm;
position = "{759, -170}";
},
{
name = top;
position = "{759, 1700}";
}
);
paths = (
{
closed = 1;
nodes = (
"50 0 LINE",
"588 0 LINE",
"588 90 LINE",
"341 113 LINE",
"346 54 LINE",
"753 749 LINE",
"721 744 LINE",
"1135 67 LINE",
"1149 114 LINE",
"908 90 LINE",
"908 0 LINE",
"1478 0 LINE",
"1478 90 LINE",
"1259 116 LINE",
"1343 69 LINE",
"829 844 LINE",
"834 786 LINE",
"1313 1498 LINE",
"1233 1441 LINE",
"1440 1472 LINE",
"1440 1562 LINE",
"951 1562 LINE",
"951 1472 LINE",
"1161 1445 LINE",
"1160 1491 LINE",
"771 841 LINE",
"823 835 LINE",
"419 1499 LINE",
"408 1443 LINE",
"660 1472 LINE",
"660 1562 LINE",
"86 1562 LINE",
"86 1472 LINE",
"289 1441 LINE",
"214 1493 LINE",
"699 758 LINE",
"689 810 LINE",
"200 69 LINE",
"269 114 LINE",
"50 90 LINE"
);
}
);
};
guideLines = (
{
angle = 123.098;
position = "{-85, -57}";
},
{
angle = 55.848;
position = "{1754, 1115}";
}
);
layerId = "CC155F3D-C5F1-4BD6-ADDB-35EE7B3EECEB";
name = Light;
paths = (
{
closed = 1;
nodes = (
"1456 0 LINE",
"1456 88 LINE",
"1337 117 LINE SMOOTH",
"1308 124 OFFCURVE",
"1288 136 OFFCURVE",
"1271 162 CURVE SMOOTH",
"803 858 LINE",
"791 858 LINE",
"428 1437 LINE",
"638 1474 LINE",
"638 1562 LINE",
"64 1562 LINE",
"64 1474 LINE",
"180 1442 LINE SMOOTH",
"209 1434 OFFCURVE",
"228 1420 OFFCURVE",
"244 1395 CURVE SMOOTH",
"679 736 LINE",
"694 735 LINE",
"1087 122 LINE",
"886 88 LINE",
"886 0 LINE"
);
},
{
closed = 1;
nodes = (
"566 0 LINE",
"566 88 LINE",
"355 122 LINE",
"762 739 LINE",
"779 739 LINE",
"1234 1396 LINE SMOOTH",
"1251 1421 OFFCURVE",
"1270 1434 OFFCURVE",
"1299 1442 CURVE SMOOTH",
"1418 1474 LINE",
"1418 1562 LINE",
"929 1562 LINE",
"929 1474 LINE",
"1113 1437 LINE",
"727 842 LINE",
"702 842 LINE",
"228 162 LINE SMOOTH",
"210 136 OFFCURVE",
"192 124 OFFCURVE",
"162 117 CURVE SMOOTH",
"28 88 LINE",
"28 0 LINE"
);
}
);
width = 1485;
},
{
anchors = (
{
name = btm;
position = "{769, 0}";
},
{
name = top;
position = "{769, 1562}";
}
);
background = {
anchors = (
{
name = btm;
position = "{795, -170}";
},
{
name = top;
position = "{795, 1700}";
}
);
paths = (
{
closed = 1;
nodes = (
"70 0 LINE",
"646 0 LINE",
"646 152 LINE",
"422 180 LINE",
"408 74 LINE",
"751 685 LINE",
"653 683 LINE",
"1007 88 LINE",
"1002 186 LINE",
"808 152 LINE",
"808 0 LINE",
"1558 0 LINE",
"1558 152 LINE",
"1351 192 LINE",
"1491 90 LINE",
"981 854 LINE",
"963 775 LINE",
"1450 1434 LINE",
"1326 1322 LINE",
"1540 1360 LINE",
"1540 1522 LINE",
"984 1522 LINE",
"984 1360 LINE",
"1184 1325 LINE",
"1211 1426 LINE",
"858 863 LINE",
"953 861 LINE",
"621 1435 LINE",
"637 1318 LINE",
"825 1360 LINE",
"825 1522 LINE",
"74 1522 LINE",
"74 1360 LINE",
"236 1321 LINE",
"136 1428 LINE",
"620 699 LINE",
"647 779 LINE",
"180 90 LINE",
"287 181 LINE",
"70 152 LINE"
);
}
);
};
guideLines = (
{
angle = 55.476;
position = "{1035, 1020}";
}
);
layerId = "8FEE59FF-6340-42D3-B032-E0350BDE9EA7";
name = Bold;
paths = (
{
closed = 1;
nodes = (
"1562 0 LINE",
"1562 154 LINE",
"1448 182 LINE SMOOTH",
"1424 188 OFFCURVE",
"1408 200 OFFCURVE",
"1394 221 CURVE SMOOTH",
"946 914 LINE",
"928 914 LINE",
"655 1365 LINE",
"799 1400 LINE",
"799 1562 LINE",
"38 1562 LINE",
"38 1400 LINE",
"149 1370 LINE SMOOTH",
"173 1363 OFFCURVE",
"188 1352 OFFCURVE",
"202 1331 CURVE SMOOTH",
"621 676 LINE",
"638 676 LINE",
"934 187 LINE",
"787 154 LINE",
"787 0 LINE"
);
},
{
closed = 1;
nodes = (
"610 0 LINE",
"610 154 LINE",
"427 187 LINE",
"768 716 LINE",
"877 716 LINE",
"1319 1334 LINE SMOOTH",
"1333 1354 OFFCURVE",
"1351 1365 OFFCURVE",
"1375 1370 CURVE SMOOTH",
"1514 1400 LINE",
"1514 1562 LINE",
"948 1562 LINE",
"948 1400 LINE",
"1117 1365 LINE",
"789 872 LINE",
"677 872 LINE",
"219 219 LINE SMOOTH",
"203 197 OFFCURVE",
"189 187 OFFCURVE",
"164 182 CURVE SMOOTH",
"14 154 LINE",
"14 0 LINE"
);
}
);
width = 1566;
}
);
unicode = 0058;
},
{
glyphname = Y;
lastChange = "2016-01-10 17:50:50 +0000";
layers = (
{
anchors = (
{
name = btm;
position = "{736, 0}";
},
{
name = top;
position = "{717, 1562}";
}
);
background = {
anchors = (
{
name = btm;
position = "{734, -170}";
},
{
name = top;
position = "{787, 1700}";
}
);
paths = (
{
closed = 1;
nodes = (
"463 0 LINE",
"1096 0 LINE",
"1096 88 LINE",
"826 111 LINE",
"863 75 LINE",
"863 639 LINE",
"831 528 LINE",
"1333 1463 LINE",
"1264 1404 LINE",
"1441 1434 LINE",
"1441 1522 LINE",
"996 1522 LINE",
"996 1434 LINE",
"1192 1408 LINE",
"1199 1473 LINE",
"870 831 LINE",
"786 655 LINE",
"797 655 LINE",
"718 831 LINE",
"377 1470 LINE",
"381 1408 LINE",
"581 1434 LINE",
"581 1522 LINE",
"90 1522 LINE",
"90 1434 LINE",
"266 1401 LINE",
"182 1474 LINE",
"725 526 LINE",
"691 639 LINE",
"691 74 LINE",
"729 111 LINE",
"463 88 LINE"
);
}
);
};
layerId = "CC155F3D-C5F1-4BD6-ADDB-35EE7B3EECEB";
name = Light;
paths = (
{
closed = 1;
nodes = (
"792 539 LINE",
"1243 1398 LINE SMOOTH",
"1258 1426 OFFCURVE",
"1278 1439 OFFCURVE",
"1309 1446 CURVE SMOOTH",
"1435 1474 LINE",
"1435 1562 LINE",
"935 1562 LINE",
"935 1474 LINE",
"1126 1439 LINE",
"730 677 LINE",
"796 677 LINE",
"366 1437 LINE",
"559 1474 LINE",
"559 1562 LINE",
"-1 1562 LINE",
"-1 1474 LINE",
"125 1443 LINE SMOOTH",
"155 1435 OFFCURVE",
"175 1421 OFFCURVE",
"190 1395 CURVE SMOOTH",
"683 539 LINE"
);
},
{
closed = 1;
nodes = (
"1071 0 LINE",
"1071 88 LINE",
"877 123 LINE SMOOTH",
"840 130 OFFCURVE",
"821 149 OFFCURVE",
"821 186 CURVE SMOOTH",
"821 614 LINE",
"651 614 LINE",
"651 186 LINE SMOOTH",
"651 149 OFFCURVE",
"632 130 OFFCURVE",
"595 123 CURVE SMOOTH",
"401 88 LINE",
"401 0 LINE"
);
}
);
width = 1455;
},
{
anchors = (
{
name = btm;
position = "{770, 0}";
},
{
name = top;
position = "{803, 1562}";
}
);
background = {
anchors = (
{
name = btm;
position = "{701, -170}";
},
{
name = top;
position = "{863, 1700}";
}
);
paths = (
{
closed = 1;
nodes = (
"423 0 LINE",
"1283 0 LINE",
"1283 152 LINE",
"1030 180 LINE",
"1070 102 LINE",
"1070 704 LINE",
"1022 530 LINE",
"1506 1445 LINE",
"1358 1316 LINE",
"1568 1360 LINE",
"1568 1522 LINE",
"1017 1522 LINE",
"1017 1360 LINE",
"1211 1322 LINE",
"1222 1458 LINE",
"985 896 LINE",
"936 759 LINE",
"948 759 LINE",
"900 898 LINE",
"633 1453 LINE",
"652 1319 LINE",
"814 1360 LINE",
"814 1522 LINE",
"110 1522 LINE",
"110 1360 LINE",
"264 1320 LINE",
"147 1460 LINE",
"698 493 LINE",
"626 704 LINE",
"626 101 LINE",
"643 178 LINE",
"423 152 LINE"
);
}
);
};
layerId = "8FEE59FF-6340-42D3-B032-E0350BDE9EA7";
name = Bold;
paths = (
{
closed = 1;
nodes = (
"936 518 LINE",
"1346 1331 LINE SMOOTH",
"1358 1355 OFFCURVE",
"1376 1365 OFFCURVE",
"1401 1371 CURVE SMOOTH",
"1514 1400 LINE",
"1514 1562 LINE",
"945 1562 LINE",
"945 1400 LINE",
"1118 1360 LINE",
"822 734 LINE",
"933 735 LINE",
"617 1359 LINE",
"768 1400 LINE",
"768 1562 LINE",
"-28 1562 LINE",
"-28 1400 LINE",
"96 1369 LINE SMOOTH",
"120 1363 OFFCURVE",
"137 1352 OFFCURVE",
"150 1329 CURVE SMOOTH",
"610 518 LINE"
);
},
{
closed = 1;
nodes = (
"1220 0 LINE",
"1220 152 LINE",
"1031 191 LINE SMOOTH",
"1001 197 OFFCURVE",
"985 214 OFFCURVE",
"985 244 CURVE SMOOTH",
"985 666 LINE",
"555 666 LINE",
"555 244 LINE SMOOTH",
"555 214 OFFCURVE",
"539 197 OFFCURVE",
"509 191 CURVE SMOOTH",
"320 152 LINE",
"320 0 LINE"
);
}
);
width = 1521;
}
);
unicode = 0059;
},
{
glyphname = Z;
lastChange = "2016-01-10 17:50:50 +0000";
layers = (
{
anchors = (
{
name = btm;
position = "{631, 0}";
},
{
name = top;
position = "{707, 1562}";
}
);
background = {
anchors = (
{
name = btm;
position = "{683, -170}";
},
{
name = top;
position = "{706, 1700}";
}
);
paths = (
{
closed = 1;
nodes = (
"135 0 LINE",
"1201 0 LINE",
"1249 433 LINE",
"1151 454 LINE",
"1049 132 LINE",
"291 96 LINE",
"424 256 LINE",
"1226 1452 LINE",
"1182 1528 LINE",
"217 1528 LINE",
"174 1157 LINE",
"268 1146 LINE",
"369 1413 LINE",
"1019 1434 LINE",
"903 1286 LINE",
"87 80 LINE"
);
}
);
};
layerId = "CC155F3D-C5F1-4BD6-ADDB-35EE7B3EECEB";
name = Light;
paths = (
{
closed = 1;
nodes = (
"1189 0 LINE",
"1211 126 OFFCURVE",
"1224 306 OFFCURVE",
"1222 436 CURVE",
"1129 446 LINE",
"1054 189 LINE SMOOTH",
"1045 160 OFFCURVE",
"1028 143 OFFCURVE",
"997 132 CURVE SMOOTH",
"946 114 OFFCURVE",
"861 108 OFFCURVE",
"764 108 CURVE SMOOTH",
"232 108 LINE",
"271 65 LINE",
"1217 1486 LINE",
"1173 1562 LINE",
"197 1562 LINE",
"180 1427 OFFCURVE",
"169 1273 OFFCURVE",
"175 1138 CURVE",
"269 1138 LINE",
"332 1379 LINE SMOOTH",
"340 1408 OFFCURVE",
"358 1425 OFFCURVE",
"389 1436 CURVE SMOOTH",
"440 1454 OFFCURVE",
"525 1458 OFFCURVE",
"622 1458 CURVE SMOOTH",
"1054 1458 LINE",
"1020 1495 LINE",
"73 80 LINE",
"121 0 LINE"
);
}
);
width = 1347;
},
{
anchors = (
{
name = btm;
position = "{688, 0}";
},
{
name = top;
position = "{768, 1562}";
}
);
background = {
anchors = (
{
name = btm;
position = "{745, -170}";
},
{
name = top;
position = "{769, 1700}";
}
);
paths = (
{
closed = 1;
nodes = (
"137 0 LINE",
"1315 0 LINE",
"1360 469 LINE",
"1155 510 LINE",
"1031 196 LINE",
"509 151 LINE",
"659 277 LINE",
"1347 1388 LINE",
"1293 1526 LINE",
"192 1526 LINE",
"138 1093 LINE",
"343 1062 LINE",
"462 1350 LINE",
"892 1382 LINE",
"767 1247 LINE",
"60 133 LINE"
);
}
);
};
layerId = "8FEE59FF-6340-42D3-B032-E0350BDE9EA7";
name = Bold;
paths = (
{
closed = 1;
nodes = (
"1300 0 LINE",
"1328 156 OFFCURVE",
"1345 391 OFFCURVE",
"1341 532 CURVE",
"1119 562 LINE",
"1012 263 LINE SMOOTH",
"999 227 OFFCURVE",
"980 208 OFFCURVE",
"953 197 CURVE SMOOTH",
"921 184 OFFCURVE",
"862 175 OFFCURVE",
"781 175 CURVE SMOOTH",
"443 175 LINE",
"519 117 LINE",
"1350 1428 LINE",
"1296 1566 LINE",
"185 1566 LINE",
"154 1400 OFFCURVE",
"143 1209 OFFCURVE",
"149 1033 CURVE",
"381 1033 LINE",
"477 1318 LINE SMOOTH",
"489 1353 OFFCURVE",
"506 1372 OFFCURVE",
"536 1384 CURVE SMOOTH",
"568 1397 OFFCURVE",
"627 1406 OFFCURVE",
"708 1406 CURVE SMOOTH",
"940 1406 LINE",
"890 1444 LINE",
"45 133 LINE",
"122 0 LINE"
);
}
);
width = 1440;
}
);
unicode = 005A;
},
{
glyphname = a;
lastChange = "2016-01-10 17:50:50 +0000";
layers = (
{
anchors = (
{
name = btm;
position = "{521, 0}";
},
{
name = top;
position = "{569, 1136}";
}
);
background = {
anchors = (
{
name = btm;
position = "{493, -170}";
},
{
name = top;
position = "{517, 1700}";
}
);
paths = (
{
closed = 1;
nodes = (
"70 299 CURVE SMOOTH",
"70 76 OFFCURVE",
"230 -23 OFFCURVE",
"412 -23 CURVE SMOOTH",
"585 -23 OFFCURVE",
"720 99 OFFCURVE",
"770 143 CURVE",
"797 200 LINE",
"757 223 LINE",
"675 159 OFFCURVE",
"555 99 OFFCURVE",
"473 99 CURVE SMOOTH",
"349 99 OFFCURVE",
"252 156 OFFCURVE",
"252 319 CURVE SMOOTH",
"252 475 OFFCURVE",
"416 584 OFFCURVE",
"757 586 CURVE",
"796 637 LINE",
"757 682 LINE",
"419 676 OFFCURVE",
"70 585 OFFCURVE"
);
},
{
closed = 1;
nodes = (
"757 186 LINE",
"770 186 LINE",
"770 68 LINE",
"770 -13 OFFCURVE",
"797 -19 OFFCURVE",
"856 -19 CURVE SMOOTH",
"918 -19 OFFCURVE",
"1003 1 OFFCURVE",
"1048 13 CURVE",
"1048 89 LINE",
"920 89 LINE",
"920 764 LINE",
"920 1051 OFFCURVE",
"825 1160 OFFCURVE",
"547 1160 CURVE SMOOTH",
"359 1160 OFFCURVE",
"143 1043 OFFCURVE",
"105 1007 CURVE",
"150 917 LINE",
"151 917 LINE",
"216 955 OFFCURVE",
"352 1027 OFFCURVE",
"511 1027 CURVE SMOOTH",
"704 1027 OFFCURVE",
"757 949 OFFCURVE",
"757 746 CURVE SMOOTH"
);
}
);
};
layerId = "CC155F3D-C5F1-4BD6-ADDB-35EE7B3EECEB";
name = Light;
paths = (
{
closed = 1;
nodes = (
"423 -23 CURVE SMOOTH",
"608 -23 OFFCURVE",
"776 79 OFFCURVE",
"850 214 CURVE",
"828 259 LINE",
"762 169 OFFCURVE",
"608 99 OFFCURVE",
"476 99 CURVE SMOOTH",
"351 99 OFFCURVE",
"290 161 OFFCURVE",
"290 265 CURVE SMOOTH",
"290 400 OFFCURVE",
"394 450 OFFCURVE",
"567 466 CURVE SMOOTH",
"820 490 LINE",
"820 586 LINE",
"547 562 LINE SMOOTH",
"353 545 OFFCURVE",
"108 489 OFFCURVE",
"108 249 CURVE SMOOTH",
"108 69 OFFCURVE",
"247 -23 OFFCURVE"
);
},
{
closed = 1;
nodes = (
"182 893 LINE",
"280 987 OFFCURVE",
"397 1027 OFFCURVE",
"525 1027 CURVE SMOOTH",
"704 1027 OFFCURVE",
"785 948 OFFCURVE",
"785 726 CURVE SMOOTH",
"785 159 LINE",
"795 52 OFFCURVE",
"851 -16 OFFCURVE",
"951 -16 CURVE SMOOTH",
"1009 -16 OFFCURVE",
"1101 7 OFFCURVE",
"1128 19 CURVE",
"1128 100 LINE",
"1008 110 LINE SMOOTH",
"969 113 OFFCURVE",
"948 131 OFFCURVE",
"948 175 CURVE SMOOTH",
"948 764 LINE SMOOTH",
"948 1036 OFFCURVE",
"818 1160 OFFCURVE",
"570 1160 CURVE SMOOTH",
"378 1160 OFFCURVE",
"189 1085 OFFCURVE",
"141 938 CURVE"
);
}
);
width = 1190;
},
{
anchors = (
{
name = btm;
position = "{570, 0}";
},
{
name = top;
position = "{612, 1138}";
}
);
background = {
anchors = (
{
name = btm;
position = "{528, -170}";
},
{
name = top;
position = "{540, 1700}";
}
);
paths = (
{
closed = 1;
nodes = (
"0 330 CURVE SMOOTH",
"0 107 OFFCURVE",
"159 -23 OFFCURVE",
"349 -23 CURVE SMOOTH",
"524 -23 OFFCURVE",
"635 69 OFFCURVE",
"685 146 CURVE",
"699 218 LINE",
"658 245 LINE",
"630 213 OFFCURVE",
"580 189 OFFCURVE",
"542 189 CURVE SMOOTH",
"460 189 OFFCURVE",
"413 266 OFFCURVE",
"413 374 CURVE SMOOTH",
"413 467 OFFCURVE",
"472 559 OFFCURVE",
"658 560 CURVE",
"707 625 LINE",
"658 710 LINE",
"212 709 OFFCURVE",
"0 566 OFFCURVE"
);
},
{
closed = 1;
nodes = (
"658 195 LINE",
"677 178 LINE",
"677 96 LINE",
"677 5 OFFCURVE",
"700 -26 OFFCURVE",
"821 -26 CURVE SMOOTH",
"918 -26 OFFCURVE",
"1074 -6 OFFCURVE",
"1124 4 CURVE",
"1124 152 LINE",
"1024 152 LINE",
"1024 738 LINE",
"1024 1043 OFFCURVE",
"921 1167 OFFCURVE",
"575 1167 CURVE SMOOTH",
"309 1167 OFFCURVE",
"103 1052 OFFCURVE",
"46 1008 CURVE",
"125 840 LINE",
"126 840 LINE",
"192 867 OFFCURVE",
"311 917 OFFCURVE",
"473 917 CURVE SMOOTH",
"634 917 OFFCURVE",
"658 861 OFFCURVE",
"658 742 CURVE SMOOTH"
);
}
);
};
layerId = "8FEE59FF-6340-42D3-B032-E0350BDE9EA7";
name = Bold;
paths = (
{
closed = 1;
nodes = (
"393 -23 CURVE SMOOTH",
"572 -23 OFFCURVE",
"707 52 OFFCURVE",
"777 190 CURVE",
"750 273 LINE",
"703 221 OFFCURVE",
"641 189 OFFCURVE",
"565 189 CURVE SMOOTH",
"487 189 OFFCURVE",
"460 227 OFFCURVE",
"460 307 CURVE SMOOTH",
"460 385 OFFCURVE",
"485 460 OFFCURVE",
"608 466 CURVE SMOOTH",
"760 474 LINE",
"760 612 LINE",
"501 599 LINE SMOOTH",
"260 587 OFFCURVE",
"57 469 OFFCURVE",
"57 259 CURVE SMOOTH",
"57 92 OFFCURVE",
"184 -23 OFFCURVE"
);
},
{
closed = 1;
nodes = (
"181 801 LINE",
"268 878 OFFCURVE",
"369 917 OFFCURVE",
"490 917 CURVE SMOOTH",
"624 917 OFFCURVE",
"700 869 OFFCURVE",
"700 716 CURVE SMOOTH",
"700 195 LINE",
"734 29 OFFCURVE",
"833 -19 OFFCURVE",
"979 -19 CURVE SMOOTH",
"1065 -19 OFFCURVE",
"1169 5 OFFCURVE",
"1227 20 CURVE",
"1227 164 LINE",
"1132 177 LINE SMOOTH",
"1100 181 OFFCURVE",
"1082 195 OFFCURVE",
"1082 237 CURVE SMOOTH",
"1082 716 LINE SMOOTH",
"1082 1011 OFFCURVE",
"945 1167 OFFCURVE",
"608 1167 CURVE SMOOTH",
"323 1167 OFFCURVE",
"161 1055 OFFCURVE",
"92 877 CURVE"
);
}
);
width = 1261;
}
);
unicode = 0061;
},
{
glyphname = b;
lastChange = "2016-01-10 17:50:50 +0000";
layers = (
{
anchors = (
{
name = btm;
position = "{632, 0}";
},
{
name = top;
position = "{770, 1136}";
}
);
background = {
anchors = (
{
name = btm;
position = "{639, -170}";
},
{
name = top;
position = "{777, 1700}";
}
);
paths = (
{
closed = 1;
nodes = (
"206 56 LINE",
"232 28 OFFCURVE",
"400 -23 OFFCURVE",
"586 -23 CURVE SMOOTH",
"946 -23 OFFCURVE",
"1170 261 OFFCURVE",
"1170 610 CURVE SMOOTH",
"1170 1003 OFFCURVE",
"951 1168 OFFCURVE",
"722 1168 CURVE SMOOTH",
"523 1168 OFFCURVE",
"386 1052 OFFCURVE",
"324 976 CURVE",
"369 909 LINE",
"415 961 OFFCURVE",
"524 1042 OFFCURVE",
"654 1042 CURVE SMOOTH",
"837 1042 OFFCURVE",
"994 907 OFFCURVE",
"990 581 CURVE SMOOTH",
"985 241 OFFCURVE",
"822 81 OFFCURVE",
"601 81 CURVE SMOOTH",
"499 81 OFFCURVE",
"393 106 OFFCURVE",
"371 154 CURVE",
"371 1648 LINE",
"333 1677 LINE",
"329 1677 LINE",
"30 1642 LINE",
"30 1567 LINE",
"206 1549 LINE"
);
}
);
};
layerId = "CC155F3D-C5F1-4BD6-ADDB-35EE7B3EECEB";
name = Light;
paths = (
{
closed = 1;
nodes = (
"199 56 LINE",
"265 28 OFFCURVE",
"412 -23 OFFCURVE",
"581 -23 CURVE SMOOTH",
"959 -23 OFFCURVE",
"1163 230 OFFCURVE",
"1163 624 CURVE SMOOTH",
"1163 1013 OFFCURVE",
"964 1168 OFFCURVE",
"710 1168 CURVE SMOOTH",
"520 1168 OFFCURVE",
"401 1081 OFFCURVE",
"317 971 CURVE",
"322 893 LINE",
"404 984 OFFCURVE",
"508 1042 OFFCURVE",
"649 1042 CURVE SMOOTH",
"854 1042 OFFCURVE",
"988 919 OFFCURVE",
"983 571 CURVE SMOOTH",
"978 229 OFFCURVE",
"843 81 OFFCURVE",
"594 81 CURVE SMOOTH",
"492 81 OFFCURVE",
"421 106 OFFCURVE",
"364 137 CURVE",
"364 1770 LINE",
"337 1797 LINE",
"228 1794 OFFCURVE",
"98 1775 OFFCURVE",
"-11 1742 CURVE",
"-11 1667 LINE",
"142 1645 LINE SMOOTH",
"179 1640 OFFCURVE",
"199 1620 OFFCURVE",
"199 1583 CURVE SMOOTH"
);
}
);
width = 1286;
},
{
anchors = (
{
name = btm;
position = "{556, 0}";
},
{
name = top;
position = "{877, 1138}";
}
);
background = {
anchors = (
{
name = btm;
position = "{544, -170}";
},
{
name = top;
position = "{865, 1700}";
}
);
paths = (
{
closed = 1;
nodes = (
"139 56 LINE",
"168 39 OFFCURVE",
"315 -23 OFFCURVE",
"614 -23 CURVE SMOOTH",
"1006 -23 OFFCURVE",
"1241 247 OFFCURVE",
"1241 604 CURVE SMOOTH",
"1241 1010 OFFCURVE",
"1052 1168 OFFCURVE",
"803 1168 CURVE SMOOTH",
"657 1168 OFFCURVE",
"531 1076 OFFCURVE",
"490 998 CURVE",
"525 882 LINE",
"550 914 OFFCURVE",
"601 941 OFFCURVE",
"655 941 CURVE SMOOTH",
"760 941 OFFCURVE",
"825 839 OFFCURVE",
"823 568 CURVE SMOOTH",
"822 259 OFFCURVE",
"742 113 OFFCURVE",
"623 113 CURVE SMOOTH",
"572 113 OFFCURVE",
"535 130 OFFCURVE",
"525 147 CURVE",
"525 1634 LINE",
"449 1680 LINE",
"444 1680 LINE",
"5 1627 LINE",
"5 1492 LINE",
"139 1462 LINE"
);
}
);
};
layerId = "8FEE59FF-6340-42D3-B032-E0350BDE9EA7";
name = Bold;
paths = (
{
closed = 1;
nodes = (
"142 56 LINE",
"230 18 OFFCURVE",
"433 -23 OFFCURVE",
"610 -23 CURVE SMOOTH",
"1033 -23 OFFCURVE",
"1260 212 OFFCURVE",
"1260 627 CURVE SMOOTH",
"1260 999 OFFCURVE",
"1078 1168 OFFCURVE",
"841 1168 CURVE SMOOTH",
"688 1168 OFFCURVE",
"551 1097 OFFCURVE",
"472 963 CURVE",
"507 900 LINE",
"555 930 OFFCURVE",
"613 941 OFFCURVE",
"658 941 CURVE SMOOTH",
"783 941 OFFCURVE",
"848 854 OFFCURVE",
"844 558 CURVE SMOOTH",
"840 252 OFFCURVE",
"772 123 OFFCURVE",
"637 123 CURVE SMOOTH",
"599 123 OFFCURVE",
"565 133 OFFCURVE",
"537 148 CURVE",
"537 1754 LINE",
"486 1800 LINE",
"340 1800 OFFCURVE",
"118 1775 OFFCURVE",
"-28 1737 CURVE",
"-28 1582 LINE",
"98 1562 LINE SMOOTH",
"127 1557 OFFCURVE",
"142 1537 OFFCURVE",
"142 1507 CURVE SMOOTH"
);
}
);
width = 1334;
}
);
unicode = 0062;
},
{
glyphname = c;
lastChange = "2016-01-10 17:50:50 +0000";
layers = (
{
anchors = (
{
name = btm;
position = "{587, 0}";
},
{
name = top;
position = "{630, 1136}";
}
);
background = {
anchors = (
{
name = btm;
position = "{568, -170}";
},
{
name = top;
position = "{559, 1700}";
}
);
paths = (
{
closed = 1;
nodes = (
"69 554 CURVE SMOOTH",
"71 232 OFFCURVE",
"245 -23 OFFCURVE",
"578 -23 CURVE SMOOTH",
"719 -23 OFFCURVE",
"873 47 OFFCURVE",
"948 123 CURVE",
"915 191 LINE",
"855 147 OFFCURVE",
"739 97 OFFCURVE",
"614 97 CURVE SMOOTH",
"406 97 OFFCURVE",
"244 262 OFFCURVE",
"246 618 CURVE SMOOTH",
"247 900 OFFCURVE",
"386 1071 OFFCURVE",
"596 1071 CURVE SMOOTH",
"680 1071 OFFCURVE",
"761 1058 OFFCURVE",
"772 1009 CURVE SMOOTH",
"815 814 LINE",
"917 814 LINE",
"926 1106 LINE",
"873 1129 OFFCURVE",
"758 1168 OFFCURVE",
"638 1168 CURVE SMOOTH",
"254 1168 OFFCURVE",
"67 878 OFFCURVE"
);
}
);
};
layerId = "CC155F3D-C5F1-4BD6-ADDB-35EE7B3EECEB";
name = Light;
paths = (
{
closed = 1;
nodes = (
"121 556 CURVE SMOOTH",
"121 218 OFFCURVE",
"293 -23 OFFCURVE",
"617 -23 CURVE SMOOTH",
"799 -23 OFFCURVE",
"944 53 OFFCURVE",
"1013 183 CURVE",
"958 235 LINE",
"891 160 OFFCURVE",
"787 102 OFFCURVE",
"659 102 CURVE SMOOTH",
"443 102 OFFCURVE",
"306 265 OFFCURVE",
"306 601 CURVE SMOOTH",
"306 910 OFFCURVE",
"422 1071 OFFCURVE",
"636 1071 CURVE SMOOTH",
"713 1071 OFFCURVE",
"776 1050 OFFCURVE",
"813 1020 CURVE SMOOTH",
"841 997 OFFCURVE",
"848 973 OFFCURVE",
"856 938 CURVE SMOOTH",
"893 783 LINE",
"981 783 LINE",
"996 880 OFFCURVE",
"1006 1007 OFFCURVE",
"1000 1101 CURVE",
"925 1138 OFFCURVE",
"785 1168 OFFCURVE",
"663 1168 CURVE SMOOTH",
"292 1168 OFFCURVE",
"121 893 OFFCURVE"
);
}
);
width = 1124;
},
{
anchors = (
{
name = btm;
position = "{592, 0}";
},
{
name = top;
position = "{627, 1138}";
}
);
background = {
anchors = (
{
name = btm;
position = "{611, -170}";
},
{
name = top;
position = "{625, 1698}";
}
);
paths = (
{
closed = 1;
nodes = (
"61 563 CURVE SMOOTH",
"62 224 OFFCURVE",
"216 -23 OFFCURVE",
"606 -23 CURVE SMOOTH",
"832 -23 OFFCURVE",
"989 92 OFFCURVE",
"1031 142 CURVE",
"968 281 LINE",
"903 244 OFFCURVE",
"823 209 OFFCURVE",
"696 209 CURVE SMOOTH",
"561 209 OFFCURVE",
"483 352 OFFCURVE",
"484 623 CURVE SMOOTH",
"485 932 OFFCURVE",
"551 1002 OFFCURVE",
"636 1002 CURVE SMOOTH",
"668 1002 OFFCURVE",
"703 990 OFFCURVE",
"711 956 CURVE SMOOTH",
"768 707 LINE",
"1011 707 LINE",
"1028 1106 LINE",
"956 1109 OFFCURVE",
"870 1168 OFFCURVE",
"656 1168 CURVE SMOOTH",
"315 1168 OFFCURVE",
"62 947 OFFCURVE"
);
}
);
};
layerId = "8FEE59FF-6340-42D3-B032-E0350BDE9EA7";
name = Bold;
paths = (
{
closed = 1;
nodes = (
"72 556 CURVE SMOOTH",
"72 231 OFFCURVE",
"234 -27 OFFCURVE",
"612 -27 CURVE SMOOTH",
"865 -27 OFFCURVE",
"1027 88 OFFCURVE",
"1072 236 CURVE",
"991 300 LINE",
"946 262 OFFCURVE",
"860 211 OFFCURVE",
"744 211 CURVE SMOOTH",
"556 211 OFFCURVE",
"496 345 OFFCURVE",
"496 605 CURVE SMOOTH",
"496 896 OFFCURVE",
"571 998 OFFCURVE",
"659 998 CURVE SMOOTH",
"692 998 OFFCURVE",
"721 984 OFFCURVE",
"740 966 CURVE SMOOTH",
"757 950 OFFCURVE",
"768 929 OFFCURVE",
"782 881 CURVE SMOOTH",
"843 671 LINE",
"1033 671 LINE",
"1059 799 OFFCURVE",
"1068 934 OFFCURVE",
"1058 1076 CURVE",
"962 1130 OFFCURVE",
"810 1168 OFFCURVE",
"664 1168 CURVE SMOOTH",
"331 1168 OFFCURVE",
"72 968 OFFCURVE"
);
}
);
width = 1142;
}
);
unicode = 0063;
},
{
glyphname = d;
lastChange = "2016-01-10 17:50:50 +0000";
layers = (
{
anchors = (
{
name = btm;
position = "{616, 0}";
},
{
name = topright;
position = "{1090, 1136}";
}
);
background = {
anchors = (
{
name = btm;
position = "{587, -170}";
},
{
name = top;
position = "{359, 1700}";
}
);
paths = (
{
closed = 1;
nodes = (
"990 -19 CURVE SMOOTH",
"1068 -19 OFFCURVE",
"1132 0 OFFCURVE",
"1185 13 CURVE",
"1185 92 LINE",
"1060 92 LINE",
"1060 1648 LINE",
"1022 1677 LINE",
"1017 1677 LINE",
"682 1643 LINE",
"682 1568 LINE",
"895 1549 LINE",
"895 192 LINE",
"904 191 LINE",
"904 69 LINE",
"904 -10 OFFCURVE",
"933 -19 OFFCURVE"
);
},
{
closed = 1;
nodes = (
"542 -23 CURVE SMOOTH",
"742 -23 OFFCURVE",
"880 100 OFFCURVE",
"942 190 CURVE",
"896 243 LINE",
"851 184 OFFCURVE",
"740 107 OFFCURVE",
"610 107 CURVE SMOOTH",
"428 107 OFFCURVE",
"270 238 OFFCURVE",
"275 570 CURVE SMOOTH",
"279 918 OFFCURVE",
"444 1064 OFFCURVE",
"663 1064 CURVE SMOOTH",
"767 1064 OFFCURVE",
"872 1033 OFFCURVE",
"895 996 CURVE",
"975 1119 LINE",
"912 1143 OFFCURVE",
"800 1168 OFFCURVE",
"678 1168 CURVE SMOOTH",
"318 1168 OFFCURVE",
"94 890 OFFCURVE",
"94 541 CURVE SMOOTH",
"94 156 OFFCURVE",
"310 -23 OFFCURVE"
);
}
);
};
layerId = "CC155F3D-C5F1-4BD6-ADDB-35EE7B3EECEB";
name = Light;
paths = (
{
closed = 1;
nodes = (
"573 -23 CURVE SMOOTH",
"766 -23 OFFCURVE",
"897 82 OFFCURVE",
"972 190 CURVE",
"944 236 LINE",
"863 159 OFFCURVE",
"762 106 OFFCURVE",
"635 106 CURVE SMOOTH",
"464 106 OFFCURVE",
"304 202 OFFCURVE",
"304 569 CURVE SMOOTH",
"304 950 OFFCURVE",
"477 1064 OFFCURVE",
"679 1064 CURVE SMOOTH",
"803 1064 OFFCURVE",
"919 1021 OFFCURVE",
"955 981 CURVE",
"1004 1117 LINE",
"945 1140 OFFCURVE",
"831 1168 OFFCURVE",
"704 1168 CURVE SMOOTH",
"367 1168 OFFCURVE",
"123 970 OFFCURVE",
"123 539 CURVE SMOOTH",
"123 139 OFFCURVE",
"333 -23 OFFCURVE"
);
},
{
closed = 1;
nodes = (
"1064 1797 LINE",
"959 1793 OFFCURVE",
"814 1776 OFFCURVE",
"709 1742 CURVE",
"709 1667 LINE",
"868 1645 LINE SMOOTH",
"904 1640 OFFCURVE",
"925 1620 OFFCURVE",
"925 1583 CURVE SMOOTH",
"925 172 LINE",
"933 76 OFFCURVE",
"973 -16 OFFCURVE",
"1094 -16 CURVE SMOOTH",
"1149 -16 OFFCURVE",
"1227 3 OFFCURVE",
"1270 19 CURVE",
"1270 100 LINE",
"1150 110 LINE SMOOTH",
"1115 113 OFFCURVE",
"1090 127 OFFCURVE",
"1090 176 CURVE SMOOTH",
"1090 1769 LINE"
);
}
);
width = 1348;
},
{
anchors = (
{
name = btm;
position = "{599, 0}";
},
{
name = topright;
position = "{1198, 1138}";
}
);
background = {
anchors = (
{
name = btm;
position = "{568, -170}";
},
{
name = top;
position = "{241, 1700}";
}
);
paths = (
{
closed = 1;
nodes = (
"973 -26 CURVE SMOOTH",
"1062 -26 OFFCURVE",
"1191 -8 OFFCURVE",
"1258 4 CURVE",
"1258 154 LINE",
"1159 154 LINE",
"1159 1624 LINE",
"1087 1680 LINE",
"1077 1680 LINE",
"581 1637 LINE",
"581 1486 LINE",
"772 1454 LINE",
"772 182 LINE",
"821 181 LINE",
"821 96 LINE",
"821 -5 OFFCURVE",
"870 -26 OFFCURVE"
);
},
{
closed = 1;
nodes = (
"500 -23 CURVE SMOOTH",
"633 -23 OFFCURVE",
"790 54 OFFCURVE",
"840 180 CURVE",
"772 242 LINE",
"748 210 OFFCURVE",
"708 182 OFFCURVE",
"642 182 CURVE SMOOTH",
"539 182 OFFCURVE",
"472 298 OFFCURVE",
"474 579 CURVE SMOOTH",
"476 914 OFFCURVE",
"568 1011 OFFCURVE",
"675 1011 CURVE SMOOTH",
"719 1011 OFFCURVE",
"756 997 OFFCURVE",
"772 979 CURVE",
"826 1144 LINE",
"802 1152 OFFCURVE",
"740 1168 OFFCURVE",
"685 1168 CURVE SMOOTH",
"259 1168 OFFCURVE",
"58 867 OFFCURVE",
"58 543 CURVE SMOOTH",
"58 141 OFFCURVE",
"249 -23 OFFCURVE"
);
}
);
};
layerId = "8FEE59FF-6340-42D3-B032-E0350BDE9EA7";
name = Bold;
paths = (
{
closed = 1;
nodes = (
"527 -23 CURVE SMOOTH",
"698 -23 OFFCURVE",
"822 63 OFFCURVE",
"899 198 CURVE",
"858 250 LINE",
"814 207 OFFCURVE",
"731 184 OFFCURVE",
"665 184 CURVE SMOOTH",
"543 184 OFFCURVE",
"490 300 OFFCURVE",
"491 579 CURVE SMOOTH",
"492 905 OFFCURVE",
"569 1005 OFFCURVE",
"705 1005 CURVE SMOOTH",
"753 1005 OFFCURVE",
"805 993 OFFCURVE",
"836 964 CURVE",
"857 1142 LINE",
"816 1156 OFFCURVE",
"735 1168 OFFCURVE",
"670 1168 CURVE SMOOTH",
"281 1168 OFFCURVE",
"75 943 OFFCURVE",
"75 536 CURVE SMOOTH",
"75 148 OFFCURVE",
"262 -23 OFFCURVE"
);
},
{
closed = 1;
nodes = (
"1146 1800 LINE",
"995 1800 OFFCURVE",
"784 1773 OFFCURVE",
"633 1735 CURVE",
"633 1583 LINE",
"759 1563 LINE SMOOTH",
"788 1558 OFFCURVE",
"803 1538 OFFCURVE",
"803 1508 CURVE SMOOTH",
"803 207 LINE",
"838 47 OFFCURVE",
"934 -19 OFFCURVE",
"1089 -19 CURVE SMOOTH",
"1182 -19 OFFCURVE",
"1293 5 OFFCURVE",
"1343 20 CURVE",
"1343 164 LINE",
"1248 177 LINE SMOOTH",
"1216 181 OFFCURVE",
"1198 195 OFFCURVE",
"1198 237 CURVE SMOOTH",
"1198 1753 LINE"
);
}
);
width = 1390;
}
);
unicode = 0064;
},
{
glyphname = e;
lastChange = "2016-01-10 17:50:50 +0000";
layers = (
{
anchors = (
{
name = btm;
position = "{634, 0}";
},
{
name = top;
position = "{619, 1136}";
}
);
background = {
anchors = (
{
name = btm;
position = "{608, -170}";
},
{
name = top;
position = "{593, 1700}";
}
);
paths = (
{
closed = 1;
nodes = (
"95 224 OFFCURVE",
"265 -23 OFFCURVE",
"589 -23 CURVE SMOOTH",
"746 -23 OFFCURVE",
"912 43 OFFCURVE",
"990 123 CURVE",
"957 198 LINE",
"893 144 OFFCURVE",
"759 94 OFFCURVE",
"642 94 CURVE SMOOTH",
"445 94 OFFCURVE",
"282 240 OFFCURVE",
"273 557 CURVE SMOOTH",
"261 936 OFFCURVE",
"394 1062 OFFCURVE",
"578 1062 CURVE SMOOTH",
"760 1062 OFFCURVE",
"833 936 OFFCURVE",
"834 769 CURVE SMOOTH",
"834 739 OFFCURVE",
"832 707 OFFCURVE",
"829 678 CURVE",
"210 678 LINE",
"192 582 LINE",
"1001 582 LINE",
"1011 627 OFFCURVE",
"1013 684 OFFCURVE",
"1012 762 CURVE",
"1003 1027 OFFCURVE",
"861 1168 OFFCURVE",
"620 1168 CURVE SMOOTH",
"319 1168 OFFCURVE",
"95 925 OFFCURVE",
"95 574 CURVE SMOOTH"
);
}
);
};
layerId = "CC155F3D-C5F1-4BD6-ADDB-35EE7B3EECEB";
name = Light;
paths = (
{
closed = 1;
nodes = (
"121 556 CURVE SMOOTH",
"121 225 OFFCURVE",
"283 -23 OFFCURVE",
"616 -23 CURVE SMOOTH",
"842 -23 OFFCURVE",
"997 92 OFFCURVE",
"1049 248 CURVE",
"980 283 LINE",
"915 173 OFFCURVE",
"795 103 OFFCURVE",
"656 103 CURVE SMOOTH",
"471 103 OFFCURVE",
"299 216 OFFCURVE",
"299 599 CURVE SMOOTH",
"299 921 OFFCURVE",
"420 1066 OFFCURVE",
"613 1066 CURVE SMOOTH",
"779 1066 OFFCURVE",
"876 953 OFFCURVE",
"876 786 CURVE SMOOTH",
"876 768 OFFCURVE",
"875 755 OFFCURVE",
"873 738 CURVE",
"247 738 LINE",
"247 642 LINE",
"1041 642 LINE",
"1048 682 OFFCURVE",
"1051 739 OFFCURVE",
"1051 772 CURVE SMOOTH",
"1051 1043 OFFCURVE",
"869 1168 OFFCURVE",
"645 1168 CURVE SMOOTH",
"334 1168 OFFCURVE",
"121 936 OFFCURVE"
);
}
);
width = 1177;
},
{
anchors = (
{
name = btm;
position = "{576, 0}";
},
{
name = top;
position = "{617, 1138}";
}
);
background = {
paths = (
{
closed = 1;
nodes = (
"624 -23 CURVE SMOOTH",
"831 -23 OFFCURVE",
"1025 89 OFFCURVE",
"1081 152 CURVE",
"1015 293 LINE",
"954 261 OFFCURVE",
"835 215 OFFCURVE",
"731 215 CURVE SMOOTH",
"549 215 OFFCURVE",
"460 338 OFFCURVE",
"458 618 CURVE SMOOTH",
"454 958 OFFCURVE",
"514 1011 OFFCURVE",
"603 1011 CURVE SMOOTH",
"694 1011 OFFCURVE",
"718 917 OFFCURVE",
"718 760 CURVE SMOOTH",
"718 742 OFFCURVE",
"717 694 OFFCURVE",
"717 676 CURVE",
"196 676 LINE",
"173 527 LINE",
"1074 527 LINE",
"1085 582 OFFCURVE",
"1093 650 OFFCURVE",
"1093 747 CURVE",
"1089 1008 OFFCURVE",
"935 1167 OFFCURVE",
"628 1167 CURVE SMOOTH",
"277 1167 OFFCURVE",
"55 956 OFFCURVE",
"55 567 CURVE SMOOTH",
"55 222 OFFCURVE",
"208 -23 OFFCURVE"
);
}
);
};
layerId = "8FEE59FF-6340-42D3-B032-E0350BDE9EA7";
name = Bold;
paths = (
{
closed = 1;
nodes = (
"75 561 CURVE SMOOTH",
"75 196 OFFCURVE",
"244 -27 OFFCURVE",
"621 -27 CURVE SMOOTH",
"863 -27 OFFCURVE",
"1048 65 OFFCURVE",
"1103 249 CURVE",
"1023 311 LINE",
"956 242 OFFCURVE",
"848 211 OFFCURVE",
"743 211 CURVE SMOOTH",
"526 211 OFFCURVE",
"478 344 OFFCURVE",
"478 627 CURVE SMOOTH",
"478 927 OFFCURVE",
"532 1011 OFFCURVE",
"624 1011 CURVE SMOOTH",
"720 1011 OFFCURVE",
"757 921 OFFCURVE",
"757 800 CURVE SMOOTH",
"757 781 OFFCURVE",
"757 766 OFFCURVE",
"757 754 CURVE",
"345 754 LINE",
"345 614 LINE",
"1095 614 LINE",
"1105 662 OFFCURVE",
"1113 727 OFFCURVE",
"1113 781 CURVE SMOOTH",
"1113 996 OFFCURVE",
"985 1167 OFFCURVE",
"648 1167 CURVE SMOOTH",
"277 1167 OFFCURVE",
"75 961 OFFCURVE"
);
}
);
width = 1185;
}
);
unicode = 0065;
},
{
glyphname = f;
lastChange = "2016-01-10 17:50:50 +0000";
layers = (
{
anchors = (
{
name = btm;
position = "{377, -170}";
},
{
name = top;
position = "{403, 2063}";
}
);
associatedMasterId = "6D8A9A52-7D7D-4498-B039-FDF10F245A16";
background = {
anchors = (
{
name = btm;
position = "{377, -170}";
},
{
name = top;
position = "{403, 2063}";
}
);
paths = (
{
closed = 1;
nodes = (
"91 0 LINE",
"670 0 LINE",
"670 88 LINE",
"403 106 LINE",
"437 63 LINE",
"437 1014 LINE",
"734 1014 LINE",
"734 1135 LINE",
"437 1135 LINE",
"437 1289 LINE",
"437 1477 OFFCURVE",
"502 1540 OFFCURVE",
"643 1540 CURVE SMOOTH",
"740 1540 OFFCURVE",
"806 1517 OFFCURVE",
"825 1503 CURVE",
"825 1672 LINE",
"801 1680 OFFCURVE",
"773 1688 OFFCURVE",
"711 1688 CURVE SMOOTH",
"489 1688 OFFCURVE",
"271 1487 OFFCURVE",
"271 1234 CURVE SMOOTH",
"271 1135 LINE",
"63 1095 LINE",
"63 1014 LINE",
"271 1014 LINE",
"271 64 LINE",
"301 107 LINE",
"91 88 LINE"
);
}
);
};
layerId = "FF0769FC-65F4-4C81-8C85-C044CC5FF6EE";
name = "Light Sep 18 15, 18:52";
paths = (
{
closed = 1;
nodes = (
"505 1797 OFFCURVE",
"272 1586 OFFCURVE",
"272 1273 CURVE SMOOTH",
"272 1135 LINE",
"64 1109 LINE",
"64 1028 LINE",
"272 1006 LINE",
"272 169 LINE SMOOTH",
"272 132 OFFCURVE",
"252 113 OFFCURVE",
"215 107 CURVE SMOOTH",
"87 88 LINE",
"87 0 LINE",
"690 0 LINE",
"690 88 LINE",
"495 107 LINE SMOOTH",
"457 111 OFFCURVE",
"437 131 OFFCURVE",
"437 169 CURVE SMOOTH",
"437 1014 LINE",
"774 1014 LINE",
"774 1135 LINE",
"437 1135 LINE",
"437 1348 LINE SMOOTH",
"437 1556 OFFCURVE",
"512 1634 OFFCURVE",
"703 1634 CURVE SMOOTH",
"773 1634 OFFCURVE",
"866 1624 OFFCURVE",
"956 1610 CURVE",
"970 1730 LINE",
"888 1770 OFFCURVE",
"804 1797 OFFCURVE",
"721 1797 CURVE SMOOTH"
);
}
);
width = 850;
},
{
anchors = (
{
name = btm;
position = "{361, -170}";
},
{
name = top;
position = "{387, 2063}";
}
);
associatedMasterId = "6AFE116F-39E0-4FF2-A27B-879B4E5E3272";
background = {
anchors = (
{
name = btm;
position = "{361, -170}";
},
{
name = top;
position = "{387, 2063}";
}
);
paths = (
{
closed = 1;
nodes = (
"56 0 LINE",
"794 0 LINE",
"794 151 LINE",
"578 174 LINE",
"595 155 LINE",
"595 950 LINE",
"826 950 LINE",
"826 1137 LINE",
"595 1137 LINE",
"595 1329 LINE",
"595 1407 OFFCURVE",
"618 1442 OFFCURVE",
"695 1442 CURVE SMOOTH",
"784 1442 OFFCURVE",
"893 1392 OFFCURVE",
"922 1357 CURVE",
"922 1702 LINE",
"907 1707 OFFCURVE",
"861 1725 OFFCURVE",
"776 1725 CURVE SMOOTH",
"461 1725 OFFCURVE",
"202 1506 OFFCURVE",
"202 1216 CURVE SMOOTH",
"202 1134 LINE",
"59 1091 LINE",
"59 950 LINE",
"202 950 LINE",
"202 153 LINE",
"237 178 LINE",
"56 151 LINE"
);
}
);
};
layerId = "C39365F9-EA88-49C0-8EBB-D137B2A6398E";
name = "Bold Sep 18 15, 18:52";
paths = (
{
closed = 1;
nodes = (
"511 1800 OFFCURVE",
"202 1464 OFFCURVE",
"202 1154 CURVE SMOOTH",
"202 1140 LINE",
"41 1105 LINE",
"41 959 LINE",
"202 927 LINE",
"202 225 LINE SMOOTH",
"202 194 OFFCURVE",
"186 178 OFFCURVE",
"156 172 CURVE SMOOTH",
"52 151 LINE",
"52 0 LINE",
"816 0 LINE",
"816 151 LINE",
"644 175 LINE SMOOTH",
"613 179 OFFCURVE",
"597 196 OFFCURVE",
"597 227 CURVE SMOOTH",
"597 931 LINE",
"898 931 LINE",
"898 1137 LINE",
"597 1137 LINE",
"597 1334 LINE SMOOTH",
"597 1477 OFFCURVE",
"669 1522 OFFCURVE",
"781 1522 CURVE SMOOTH",
"873 1522 OFFCURVE",
"1008 1505 OFFCURVE",
"1104 1487 CURVE",
"1151 1679 LINE",
"1022 1769 OFFCURVE",
"914 1800 OFFCURVE",
"822 1800 CURVE SMOOTH"
);
}
);
width = 952;
},
{
anchors = (
{
name = btm;
position = "{397, 0}";
},
{
name = top;
position = "{423, 1136}";
}
);
background = {
anchors = (
{
name = btm;
position = "{377, -170}";
},
{
name = top;
position = "{403, 2063}";
}
);
paths = (
{
closed = 1;
nodes = (
"91 0 LINE",
"670 0 LINE",
"670 88 LINE",
"403 106 LINE",
"437 63 LINE",
"437 1014 LINE",
"734 1014 LINE",
"734 1135 LINE",
"437 1135 LINE",
"437 1289 LINE",
"437 1477 OFFCURVE",
"502 1540 OFFCURVE",
"643 1540 CURVE SMOOTH",
"740 1540 OFFCURVE",
"806 1517 OFFCURVE",
"825 1503 CURVE",
"825 1672 LINE",
"801 1680 OFFCURVE",
"773 1688 OFFCURVE",
"711 1688 CURVE SMOOTH",
"489 1688 OFFCURVE",
"271 1487 OFFCURVE",
"271 1234 CURVE SMOOTH",
"271 1135 LINE",
"63 1095 LINE",
"63 1014 LINE",
"271 1014 LINE",
"271 64 LINE",
"301 107 LINE",
"91 88 LINE"
);
}
);
};
layerId = "CC155F3D-C5F1-4BD6-ADDB-35EE7B3EECEB";
name = Light;
paths = (
{
closed = 1;
nodes = (
"292 1273 CURVE SMOOTH",
"292 1135 LINE",
"84 1109 LINE",
"84 1028 LINE",
"292 1006 LINE",
"292 169 LINE SMOOTH",
"292 132 OFFCURVE",
"272 113 OFFCURVE",
"235 107 CURVE SMOOTH",
"107 88 LINE",
"107 0 LINE",
"710 0 LINE",
"710 88 LINE",
"515 107 LINE SMOOTH",
"477 111 OFFCURVE",
"457 131 OFFCURVE",
"457 169 CURVE SMOOTH",
"457 1014 LINE",
"794 1014 LINE",
"794 1135 LINE",
"457 1135 LINE",
"457 1348 LINE SMOOTH",
"457 1556 OFFCURVE",
"532 1632 OFFCURVE",
"723 1632 CURVE SMOOTH",
"793 1632 OFFCURVE",
"886 1624 OFFCURVE",
"966 1610 CURVE",
"990 1730 LINE",
"908 1770 OFFCURVE",
"824 1797 OFFCURVE",
"741 1797 CURVE SMOOTH",
"525 1797 OFFCURVE",
"292 1586 OFFCURVE"
);
}
);
width = 868;
},
{
anchors = (
{
name = btm;
position = "{384, 0}";
},
{
name = top;
position = "{410, 1138}";
}
);
background = {
anchors = (
{
name = btm;
position = "{361, -170}";
},
{
name = top;
position = "{387, 2063}";
}
);
paths = (
{
closed = 1;
nodes = (
"56 0 LINE",
"794 0 LINE",
"794 151 LINE",
"578 174 LINE",
"595 155 LINE",
"595 950 LINE",
"826 950 LINE",
"826 1137 LINE",
"595 1137 LINE",
"595 1329 LINE",
"595 1407 OFFCURVE",
"618 1442 OFFCURVE",
"695 1442 CURVE SMOOTH",
"784 1442 OFFCURVE",
"893 1392 OFFCURVE",
"922 1357 CURVE",
"922 1702 LINE",
"907 1707 OFFCURVE",
"861 1725 OFFCURVE",
"776 1725 CURVE SMOOTH",
"461 1725 OFFCURVE",
"202 1506 OFFCURVE",
"202 1216 CURVE SMOOTH",
"202 1134 LINE",
"59 1091 LINE",
"59 950 LINE",
"202 950 LINE",
"202 153 LINE",
"237 178 LINE",
"56 151 LINE"
);
}
);
};
layerId = "8FEE59FF-6340-42D3-B032-E0350BDE9EA7";
name = Bold;
paths = (
{
closed = 1;
nodes = (
"235 1142 CURVE SMOOTH",
"235 1140 LINE",
"64 1105 LINE",
"64 959 LINE",
"225 927 LINE",
"225 225 LINE SMOOTH",
"225 194 OFFCURVE",
"209 178 OFFCURVE",
"179 172 CURVE SMOOTH",
"75 151 LINE",
"75 0 LINE",
"839 0 LINE",
"839 151 LINE",
"667 175 LINE SMOOTH",
"636 179 OFFCURVE",
"620 196 OFFCURVE",
"620 227 CURVE SMOOTH",
"620 931 LINE",
"921 931 LINE",
"921 1137 LINE",
"618 1137 LINE",
"618 1294 LINE SMOOTH",
"618 1469 OFFCURVE",
"688 1499 OFFCURVE",
"804 1502 CURVE SMOOTH",
"878 1504 OFFCURVE",
"987 1491 OFFCURVE",
"1067 1479 CURVE",
"1124 1669 LINE",
"1035 1738 OFFCURVE",
"927 1800 OFFCURVE",
"799 1800 CURVE SMOOTH",
"524 1800 OFFCURVE",
"235 1432 OFFCURVE"
);
}
);
width = 955;
}
);
unicode = 0066;
},
{
glyphname = g;
lastChange = "2016-01-10 17:50:50 +0000";
layers = (
{
anchors = (
{
name = top;
position = "{602, 1136}";
}
);
background = {
anchors = (
{
name = top;
position = "{596, 1700}";
}
);
paths = (
{
closed = 1;
nodes = (
"95 -246 CURVE SMOOTH",
"95 -425 OFFCURVE",
"221 -552 OFFCURVE",
"578 -552 CURVE SMOOTH",
"579 -552 LINE",
"914 -552 OFFCURVE",
"1177 -360 OFFCURVE",
"1177 -137 CURVE SMOOTH",
"1177 33 OFFCURVE",
"1066 143 OFFCURVE",
"804 143 CURVE SMOOTH",
"564 143 LINE",
"399 143 OFFCURVE",
"338 176 OFFCURVE",
"338 283 CURVE SMOOTH",
"338 343 OFFCURVE",
"383 409 OFFCURVE",
"449 448 CURVE",
"364 466 LINE",
"270 426 OFFCURVE",
"188 326 OFFCURVE",
"188 211 CURVE SMOOTH",
"188 53 OFFCURVE",
"317 -1 OFFCURVE",
"509 -1 CURVE SMOOTH",
"763 -1 LINE",
"986 -1 OFFCURVE",
"1021 -70 OFFCURVE",
"1021 -184 CURVE SMOOTH",
"1021 -350 OFFCURVE",
"804 -448 OFFCURVE",
"589 -448 CURVE SMOOTH",
"587 -448 LINE",
"335 -448 OFFCURVE",
"261 -361 OFFCURVE",
"261 -213 CURVE SMOOTH",
"261 -95 OFFCURVE",
"327 -10 OFFCURVE",
"400 47 CURVE",
"331 63 LINE",
"235 28 OFFCURVE",
"95 -89 OFFCURVE"
);
},
{
closed = 1;
nodes = (
"852 795 CURVE SMOOTH",
"852 609 OFFCURVE",
"770 508 OFFCURVE",
"592 508 CURVE SMOOTH",
"591 508 LINE",
"394 508 OFFCURVE",
"311 636 OFFCURVE",
"311 798 CURVE SMOOTH",
"311 1005 OFFCURVE",
"432 1067 OFFCURVE",
"582 1067 CURVE SMOOTH",
"583 1067 LINE",
"755 1067 OFFCURVE",
"852 985 OFFCURVE"
);
},
{
closed = 1;
nodes = (
"1026 817 CURVE SMOOTH",
"1026 1059 OFFCURVE",
"833 1168 OFFCURVE",
"594 1168 CURVE SMOOTH",
"593 1168 LINE",
"369 1168 OFFCURVE",
"138 1027 OFFCURVE",
"138 777 CURVE SMOOTH",
"138 545 OFFCURVE",
"325 407 OFFCURVE",
"571 407 CURVE SMOOTH",
"572 407 LINE",
"819 407 OFFCURVE",
"1026 569 OFFCURVE"
);
},
{
closed = 1;
nodes = (
"1200 1016 LINE",
"1200 1168 LINE",
"1133 1168 LINE",
"1007 1168 OFFCURVE",
"904 1092 OFFCURVE",
"892 1075 CURVE",
"898 1016 LINE"
);
}
);
};
layerId = "CC155F3D-C5F1-4BD6-ADDB-35EE7B3EECEB";
name = Light;
paths = (
{
closed = 1;
nodes = (
"1173 -131 CURVE SMOOTH",
"1173 38 OFFCURVE",
"1061 144 OFFCURVE",
"830 144 CURVE SMOOTH",
"570 144 LINE",
"409 144 OFFCURVE",
"344 176 OFFCURVE",
"344 262 CURVE SMOOTH",
"344 334 OFFCURVE",
"389 373 OFFCURVE",
"445 397 CURVE",
"410 445 LINE",
"307 404 OFFCURVE",
"194 341 OFFCURVE",
"194 200 CURVE SMOOTH",
"194 53 OFFCURVE",
"318 0 OFFCURVE",
"515 0 CURVE SMOOTH",
"789 0 LINE SMOOTH",
"974 0 OFFCURVE",
"1017 -65 OFFCURVE",
"1017 -162 CURVE SMOOTH",
"1017 -358 OFFCURVE",
"843 -448 OFFCURVE",
"600 -448 CURVE SMOOTH",
"341 -448 OFFCURVE",
"267 -346 OFFCURVE",
"267 -209 CURVE SMOOTH",
"267 -80 OFFCURVE",
"332 -6 OFFCURVE",
"406 52 CURVE",
"357 78 LINE",
"221 25 OFFCURVE",
"101 -68 OFFCURVE",
"101 -234 CURVE SMOOTH",
"101 -428 OFFCURVE",
"264 -552 OFFCURVE",
"567 -552 CURVE SMOOTH",
"915 -552 OFFCURVE",
"1173 -388 OFFCURVE"
);
},
{
closed = 1;
nodes = (
"1032 783 CURVE SMOOTH",
"1032 1022 OFFCURVE",
"859 1168 OFFCURVE",
"606 1168 CURVE SMOOTH",
"370 1168 OFFCURVE",
"144 1041 OFFCURVE",
"144 754 CURVE SMOOTH",
"144 490 OFFCURVE",
"336 366 OFFCURVE",
"569 366 CURVE SMOOTH",
"835 366 OFFCURVE",
"1032 527 OFFCURVE"
);
},
{
closed = 1;
nodes = (
"317 778 CURVE SMOOTH",
"317 1017 OFFCURVE",
"438 1067 OFFCURVE",
"578 1067 CURVE SMOOTH",
"770 1067 OFFCURVE",
"858 973 OFFCURVE",
"858 763 CURVE SMOOTH",
"858 547 OFFCURVE",
"765 467 OFFCURVE",
"598 467 CURVE SMOOTH",
"400 467 OFFCURVE",
"317 580 OFFCURVE"
);
},
{
closed = 1;
nodes = (
"1206 1016 LINE",
"1206 1150 LINE",
"1169 1159 OFFCURVE",
"1125 1168 OFFCURVE",
"1091 1168 CURVE SMOOTH",
"1014 1168 OFFCURVE",
"950 1123 OFFCURVE",
"861 1051 CURVE",
"904 1016 LINE"
);
}
);
width = 1260;
},
{
anchors = (
{
name = top;
position = "{615, 1138}";
}
);
background = {
anchors = (
{
name = top;
position = "{603, 1700}";
}
);
paths = (
{
closed = 1;
nodes = (
"45 -224 CURVE SMOOTH",
"45 -402 OFFCURVE",
"181 -552 OFFCURVE",
"598 -552 CURVE SMOOTH",
"599 -552 LINE",
"930 -552 OFFCURVE",
"1284 -396 OFFCURVE",
"1284 -95 CURVE SMOOTH",
"1284 132 OFFCURVE",
"1123 228 OFFCURVE",
"829 228 CURVE SMOOTH",
"629 228 LINE",
"462 228 OFFCURVE",
"412 249 OFFCURVE",
"412 325 CURVE SMOOTH",
"412 345 OFFCURVE",
"425 452 OFFCURVE",
"441 460 CURVE",
"367 447 LINE",
"231 415 OFFCURVE",
"145 308 OFFCURVE",
"145 212 CURVE SMOOTH",
"145 86 OFFCURVE",
"230 -20 OFFCURVE",
"495 -20 CURVE SMOOTH",
"690 -20 LINE",
"806 -20 OFFCURVE",
"860 -56 OFFCURVE",
"860 -167 CURVE SMOOTH",
"860 -317 OFFCURVE",
"754 -380 OFFCURVE",
"648 -380 CURVE SMOOTH",
"646 -380 LINE",
"493 -380 OFFCURVE",
"432 -289 OFFCURVE",
"432 -152 CURVE SMOOTH",
"432 -29 OFFCURVE",
"464 24 OFFCURVE",
"480 41 CURVE",
"336 57 LINE",
"173 48 OFFCURVE",
"45 -93 OFFCURVE"
);
},
{
closed = 1;
nodes = (
"740 780 CURVE SMOOTH",
"740 641 OFFCURVE",
"710 542 OFFCURVE",
"611 542 CURVE SMOOTH",
"610 542 LINE",
"513 542 OFFCURVE",
"473 625 OFFCURVE",
"473 790 CURVE SMOOTH",
"473 929 OFFCURVE",
"507 1024 OFFCURVE",
"611 1024 CURVE SMOOTH",
"612 1024 LINE",
"705 1024 OFFCURVE",
"740 951 OFFCURVE"
);
},
{
closed = 1;
nodes = (
"1123 800 CURVE SMOOTH",
"1123 1031 OFFCURVE",
"1013 1168 OFFCURVE",
"622 1168 CURVE SMOOTH",
"621 1168 LINE",
"318 1168 OFFCURVE",
"78 1025 OFFCURVE",
"78 787 CURVE SMOOTH",
"78 563 OFFCURVE",
"186 392 OFFCURVE",
"589 392 CURVE SMOOTH",
"590 392 LINE",
"955 392 OFFCURVE",
"1124 556 OFFCURVE"
);
},
{
closed = 1;
nodes = (
"1309 889 LINE",
"1309 1173 LINE",
"1232 1173 LINE",
"1124 1173 OFFCURVE",
"1018 1092 OFFCURVE",
"1005 1043 CURVE",
"1071 889 LINE"
);
}
);
};
layerId = "8FEE59FF-6340-42D3-B032-E0350BDE9EA7";
name = Bold;
paths = (
{
closed = 1;
nodes = (
"1278 -86 CURVE SMOOTH",
"1278 132 OFFCURVE",
"1120 228 OFFCURVE",
"833 228 CURVE SMOOTH",
"641 228 LINE SMOOTH",
"482 228 OFFCURVE",
"424 249 OFFCURVE",
"424 318 CURVE SMOOTH",
"424 350 OFFCURVE",
"437 398 OFFCURVE",
"496 442 CURVE",
"379 447 LINE",
"243 415 OFFCURVE",
"157 339 OFFCURVE",
"157 212 CURVE SMOOTH",
"157 86 OFFCURVE",
"242 -20 OFFCURVE",
"507 -20 CURVE SMOOTH",
"702 -20 LINE SMOOTH",
"822 -20 OFFCURVE",
"870 -56 OFFCURVE",
"870 -163 CURVE SMOOTH",
"870 -302 OFFCURVE",
"790 -380 OFFCURVE",
"641 -380 CURVE SMOOTH",
"490 -380 OFFCURVE",
"430 -292 OFFCURVE",
"430 -171 CURVE SMOOTH",
"430 -71 OFFCURVE",
"473 4 OFFCURVE",
"522 41 CURVE",
"402 43 LINE",
"189 0 OFFCURVE",
"57 -75 OFFCURVE",
"57 -241 CURVE SMOOTH",
"57 -416 OFFCURVE",
"202 -552 OFFCURVE",
"577 -552 CURVE SMOOTH",
"1010 -552 OFFCURVE",
"1278 -371 OFFCURVE"
);
},
{
closed = 1;
nodes = (
"1131 787 CURVE SMOOTH",
"1131 1049 OFFCURVE",
"957 1168 OFFCURVE",
"636 1168 CURVE SMOOTH",
"268 1168 OFFCURVE",
"90 1012 OFFCURVE",
"90 757 CURVE SMOOTH",
"90 556 OFFCURVE",
"200 378 OFFCURVE",
"598 378 CURVE SMOOTH",
"986 378 OFFCURVE",
"1131 547 OFFCURVE"
);
},
{
closed = 1;
nodes = (
"485 776 CURVE SMOOTH",
"485 943 OFFCURVE",
"525 1024 OFFCURVE",
"624 1024 CURVE SMOOTH",
"712 1024 OFFCURVE",
"748 959 OFFCURVE",
"748 778 CURVE SMOOTH",
"748 618 OFFCURVE",
"720 528 OFFCURVE",
"619 528 CURVE SMOOTH",
"531 528 OFFCURVE",
"485 597 OFFCURVE"
);
},
{
closed = 1;
nodes = (
"1322 889 LINE",
"1322 1153 LINE",
"1298 1161 OFFCURVE",
"1258 1173 OFFCURVE",
"1222 1173 CURVE SMOOTH",
"1129 1173 OFFCURVE",
"1027 1092 OFFCURVE",
"983 963 CURVE",
"1079 889 LINE"
);
}
);
width = 1348;
}
);
unicode = 0067;
},
{
glyphname = h;
lastChange = "2016-01-10 17:50:50 +0000";
layers = (
{
anchors = (
{
name = btm;
position = "{397, 0}";
},
{
name = top;
position = "{281, 1766}";
}
);
background = {
anchors = (
{
name = btm;
position = "{771, -170}";
},
{
name = top;
position = "{845, 1700}";
}
);
paths = (
{
closed = 1;
nodes = (
"167 0 LINE",
"612 0 LINE",
"612 88 LINE",
"433 107 LINE",
"460 67 LINE",
"460 901 LINE",
"546 966 OFFCURVE",
"686 1036 OFFCURVE",
"802 1036 CURVE SMOOTH",
"1004 1036 OFFCURVE",
"1038 923 OFFCURVE",
"1038 684 CURVE SMOOTH",
"1038 65 LINE",
"1076 108 LINE",
"894 88 LINE",
"894 0 LINE",
"1353 0 LINE",
"1353 88 LINE",
"1165 108 LINE",
"1203 65 LINE",
"1203 683 LINE",
"1203 1020 OFFCURVE",
"1133 1164 OFFCURVE",
"874 1164 CURVE SMOOTH",
"703 1164 OFFCURVE",
"524 1054 OFFCURVE",
"455 993 CURVE",
"460 1164 LINE",
"460 1650 LINE",
"421 1677 LINE",
"416 1677 LINE",
"114 1642 LINE",
"114 1567 LINE",
"295 1549 LINE",
"295 67 LINE",
"334 108 LINE",
"167 88 LINE"
);
}
);
};
layerId = "CC155F3D-C5F1-4BD6-ADDB-35EE7B3EECEB";
name = Light;
paths = (
{
closed = 1;
nodes = (
"606 0 LINE",
"606 88 LINE",
"483 107 LINE SMOOTH",
"446 113 OFFCURVE",
"426 132 OFFCURVE",
"426 170 CURVE SMOOTH",
"426 1769 LINE",
"400 1797 LINE",
"297 1793 OFFCURVE",
"154 1776 OFFCURVE",
"51 1742 CURVE",
"51 1667 LINE",
"204 1645 LINE SMOOTH",
"240 1640 OFFCURVE",
"261 1620 OFFCURVE",
"261 1583 CURVE SMOOTH",
"261 169 LINE SMOOTH",
"261 132 OFFCURVE",
"241 113 OFFCURVE",
"204 107 CURVE SMOOTH",
"76 88 LINE",
"76 0 LINE"
);
},
{
closed = 1;
nodes = (
"1354 0 LINE",
"1354 88 LINE",
"1226 107 LINE SMOOTH",
"1190 112 OFFCURVE",
"1169 133 OFFCURVE",
"1169 170 CURVE SMOOTH",
"1169 723 LINE SMOOTH",
"1169 1002 OFFCURVE",
"1093 1164 OFFCURVE",
"828 1164 CURVE SMOOTH",
"669 1164 OFFCURVE",
"500 1115 OFFCURVE",
"378 949 CURVE",
"369 867 LINE",
"475 983 OFFCURVE",
"619 1036 OFFCURVE",
"768 1036 CURVE SMOOTH",
"960 1036 OFFCURVE",
"1004 916 OFFCURVE",
"1004 684 CURVE SMOOTH",
"1004 170 LINE SMOOTH",
"1004 130 OFFCURVE",
"979 112 OFFCURVE",
"947 107 CURVE SMOOTH",
"824 88 LINE",
"824 0 LINE"
);
}
);
width = 1414;
},
{
anchors = (
{
name = btm;
position = "{807, 0}";
},
{
name = top;
position = "{336, 1770}";
}
);
background = {
anchors = (
{
name = btm;
position = "{714, -170}";
},
{
name = top;
position = "{790, 1700}";
}
);
paths = (
{
closed = 1;
nodes = (
"111 0 LINE",
"715 0 LINE",
"715 152 LINE",
"598 177 LINE",
"614 152 LINE",
"614 874 LINE",
"649 909 OFFCURVE",
"709 944 OFFCURVE",
"781 944 CURVE SMOOTH",
"883 944 OFFCURVE",
"907 885 OFFCURVE",
"907 723 CURVE SMOOTH",
"907 146 LINE",
"930 177 LINE",
"812 151 LINE",
"812 0 LINE",
"1419 0 LINE",
"1419 152 LINE",
"1274 179 LINE",
"1303 154 LINE",
"1303 725 LINE",
"1303 1019 OFFCURVE",
"1234 1162 OFFCURVE",
"972 1162 CURVE SMOOTH",
"783 1162 OFFCURVE",
"652 1077 OFFCURVE",
"583 1016 CURVE",
"604 1203 LINE",
"603 1630 LINE",
"535 1680 LINE",
"529 1680 LINE",
"77 1627 LINE",
"77 1485 LINE",
"210 1455 LINE",
"210 160 LINE",
"230 176 LINE",
"111 152 LINE"
);
}
);
};
layerId = "8FEE59FF-6340-42D3-B032-E0350BDE9EA7";
name = Bold;
paths = (
{
closed = 1;
nodes = (
"690 0 LINE",
"690 151 LINE",
"632 172 LINE SMOOTH",
"603 183 OFFCURVE",
"590 198 OFFCURVE",
"590 228 CURVE SMOOTH",
"590 1750 LINE",
"537 1800 LINE",
"386 1802 OFFCURVE",
"176 1785 OFFCURVE",
"25 1747 CURVE",
"25 1595 LINE",
"151 1575 LINE SMOOTH",
"180 1570 OFFCURVE",
"195 1550 OFFCURVE",
"195 1520 CURVE SMOOTH",
"195 228 LINE SMOOTH",
"195 198 OFFCURVE",
"179 179 OFFCURVE",
"150 173 CURVE SMOOTH",
"45 152 LINE",
"45 0 LINE"
);
},
{
closed = 1;
nodes = (
"1437 0 LINE",
"1437 152 LINE",
"1331 173 LINE SMOOTH",
"1302 179 OFFCURVE",
"1287 197 OFFCURVE",
"1287 227 CURVE SMOOTH",
"1287 734 LINE SMOOTH",
"1287 1008 OFFCURVE",
"1206 1162 OFFCURVE",
"937 1162 CURVE SMOOTH",
"758 1162 OFFCURVE",
"621 1093 OFFCURVE",
"526 958 CURVE",
"526 853 LINE",
"590 907 OFFCURVE",
"668 934 OFFCURVE",
"732 934 CURVE SMOOTH",
"839 934 OFFCURVE",
"892 874 OFFCURVE",
"892 693 CURVE SMOOTH",
"892 227 LINE SMOOTH",
"892 198 OFFCURVE",
"879 183 OFFCURVE",
"849 172 CURVE SMOOTH",
"792 151 LINE",
"792 0 LINE"
);
}
);
width = 1476;
}
);
unicode = 0068;
},
{
glyphname = k;
lastChange = "2016-01-10 17:50:50 +0000";
layers = (
{
anchors = (
{
name = btm;
position = "{676, -170}";
},
{
name = top;
position = "{752, 1700}";
}
);
associatedMasterId = "6D8A9A52-7D7D-4498-B039-FDF10F245A16";
background = {
anchors = (
{
name = btm;
position = "{336, -170}";
},
{
name = top;
position = "{307, 1700}";
}
);
paths = (
{
closed = 1;
nodes = (
"113 0 LINE",
"572 0 LINE",
"572 88 LINE",
"396 106 LINE",
"415 67 LINE",
"415 278 LINE",
"410 411 LINE",
"395 368 LINE",
"656 623 LINE",
"629 629 LINE",
"992 58 LINE",
"994 109 LINE",
"820 88 LINE",
"820 0 LINE",
"1289 0 LINE",
"1289 88 LINE",
"1117 107 LINE",
"1184 61 LINE",
"731 723 LINE",
"713 668 LINE",
"1144 1090 LINE",
"1038 1019 LINE",
"1237 1055 LINE",
"1237 1136 LINE",
"764 1136 LINE",
"764 1055 LINE",
"958 1020 LINE",
"974 1083 LINE",
"385 477 LINE",
"409 456 LINE",
"415 632 LINE",
"415 1650 LINE",
"376 1677 LINE",
"374 1677 LINE",
"81 1642 LINE",
"81 1567 LINE",
"249 1549 LINE",
"249 67 LINE",
"280 108 LINE",
"113 88 LINE"
);
}
);
};
layerId = "DBF344AF-0D3C-40E6-A098-3A8D48DC5D26";
name = "Light Sep 15 15, 14:29";
paths = (
{
closed = 1;
nodes = (
"415 1770 LINE",
"389 1797 LINE",
"280 1794 OFFCURVE",
"150 1775 OFFCURVE",
"41 1742 CURVE",
"41 1667 LINE",
"192 1644 LINE SMOOTH",
"229 1638 OFFCURVE",
"249 1619 OFFCURVE",
"249 1582 CURVE SMOOTH",
"249 171 LINE SMOOTH",
"249 134 OFFCURVE",
"229 113 OFFCURVE",
"193 107 CURVE SMOOTH",
"73 88 LINE",
"73 0 LINE",
"612 0 LINE",
"612 88 LINE",
"472 108 LINE SMOOTH",
"436 113 OFFCURVE",
"415 134 OFFCURVE",
"415 171 CURVE SMOOTH"
);
},
{
closed = 1;
nodes = (
"600 635 LINE",
"969 0 LINE",
"1279 0 LINE",
"1279 88 LINE",
"1146 115 LINE SMOOTH",
"1117 121 OFFCURVE",
"1094 134 OFFCURVE",
"1078 159 CURVE SMOOTH",
"716 743 LINE"
);
},
{
closed = 1;
nodes = (
"384 322 LINE",
"1017 997 LINE SMOOTH",
"1038 1019 OFFCURVE",
"1061 1029 OFFCURVE",
"1096 1035 CURVE SMOOTH",
"1215 1055 LINE",
"1215 1136 LINE",
"687 1136 LINE",
"687 1055 LINE",
"944 1021 LINE",
"926 1062 LINE",
"374 445 LINE"
);
}
);
width = 1269;
},
{
anchors = (
{
name = btm;
position = "{717, 0}";
},
{
name = top;
position = "{763, 1136}";
}
);
background = {
anchors = (
{
name = btm;
position = "{382, -170}";
},
{
name = top;
position = "{353, 1700}";
}
);
paths = (
{
closed = 1;
nodes = (
"159 0 LINE",
"618 0 LINE",
"618 88 LINE",
"442 106 LINE",
"461 67 LINE",
"461 278 LINE",
"456 411 LINE",
"441 368 LINE",
"702 623 LINE",
"675 629 LINE",
"1038 58 LINE",
"1040 109 LINE",
"866 88 LINE",
"866 0 LINE",
"1335 0 LINE",
"1335 88 LINE",
"1163 107 LINE",
"1230 61 LINE",
"777 723 LINE",
"759 668 LINE",
"1190 1090 LINE",
"1084 1019 LINE",
"1283 1055 LINE",
"1283 1136 LINE",
"810 1136 LINE",
"810 1055 LINE",
"1004 1020 LINE",
"1020 1083 LINE",
"431 477 LINE",
"455 456 LINE",
"461 632 LINE",
"461 1650 LINE",
"422 1677 LINE",
"420 1677 LINE",
"127 1642 LINE",
"127 1567 LINE",
"295 1549 LINE",
"295 67 LINE",
"326 108 LINE",
"159 88 LINE"
);
}
);
};
layerId = "CC155F3D-C5F1-4BD6-ADDB-35EE7B3EECEB";
name = Light;
paths = (
{
closed = 1;
nodes = (
"611 0 LINE",
"611 88 LINE",
"483 107 LINE SMOOTH",
"447 112 OFFCURVE",
"426 133 OFFCURVE",
"426 170 CURVE SMOOTH",
"426 1770 LINE",
"400 1797 LINE",
"293 1794 OFFCURVE",
"158 1775 OFFCURVE",
"51 1742 CURVE",
"51 1667 LINE",
"204 1645 LINE SMOOTH",
"241 1640 OFFCURVE",
"261 1620 OFFCURVE",
"261 1583 CURVE SMOOTH",
"261 171 LINE SMOOTH",
"261 134 OFFCURVE",
"241 112 OFFCURVE",
"205 107 CURVE SMOOTH",
"76 88 LINE",
"76 0 LINE"
);
},
{
closed = 1;
nodes = (
"1280 0 LINE",
"1280 88 LINE",
"1147 115 LINE SMOOTH",
"1120 121 OFFCURVE",
"1093 139 OFFCURVE",
"1069 178 CURVE SMOOTH",
"845 543 LINE SMOOTH",
"802 614 OFFCURVE",
"771 661 OFFCURVE",
"720 728 CURVE",
"609 618 LINE",
"652 555 OFFCURVE",
"692 478 OFFCURVE",
"744 385 CURVE SMOOTH",
"867 164 LINE SMOOTH",
"923 63 OFFCURVE",
"963 0 OFFCURVE",
"1013 0 CURVE SMOOTH"
);
},
{
closed = 1;
nodes = (
"1026 989 LINE SMOOTH",
"1048 1012 OFFCURVE",
"1071 1020 OFFCURVE",
"1105 1027 CURVE SMOOTH",
"1226 1052 LINE",
"1226 1136 LINE",
"698 1136 LINE",
"698 1052 LINE",
"955 1013 LINE",
"935 1057 LINE",
"385 449 LINE",
"395 321 LINE"
);
}
);
width = 1315;
},
{
anchors = (
{
name = btm;
position = "{787, 0}";
},
{
name = top;
position = "{758, 1138}";
}
);
background = {
anchors = (
{
name = btm;
position = "{782, -170}";
},
{
name = top;
position = "{773, 1700}";
}
);
paths = (
{
closed = 1;
nodes = (
"107 0 LINE",
"705 0 LINE",
"705 151 LINE",
"584 177 LINE",
"602 153 LINE",
"602 284 LINE",
"594 409 LINE",
"563 356 LINE",
"765 566 LINE",
"732 567 LINE",
"937 91 LINE",
"946 186 LINE",
"825 151 LINE",
"825 0 LINE",
"1432 0 LINE",
"1432 152 LINE",
"1241 195 LINE",
"1369 110 LINE",
"1005 824 LINE",
"846 635 LINE",
"1319 1072 LINE",
"1169 959 LINE",
"1377 992 LINE",
"1377 1137 LINE",
"788 1137 LINE",
"788 992 LINE",
"1017 959 LINE",
"1013 1051 LINE",
"543 548 LINE",
"594 558 LINE",
"604 697 LINE",
"604 1630 LINE",
"536 1680 LINE",
"531 1680 LINE",
"79 1627 LINE",
"79 1485 LINE",
"210 1455 LINE",
"210 146 LINE",
"228 176 LINE",
"107 152 LINE"
);
}
);
};
layerId = "8FEE59FF-6340-42D3-B032-E0350BDE9EA7";
name = Bold;
paths = (
{
closed = 1;
nodes = (
"730 0 LINE",
"730 152 LINE",
"631 173 LINE SMOOTH",
"602 179 OFFCURVE",
"587 198 OFFCURVE",
"587 228 CURVE SMOOTH",
"589 1753 LINE",
"537 1800 LINE",
"386 1800 OFFCURVE",
"176 1773 OFFCURVE",
"25 1735 CURVE",
"25 1583 LINE",
"151 1563 LINE SMOOTH",
"180 1558 OFFCURVE",
"195 1538 OFFCURVE",
"195 1508 CURVE SMOOTH",
"195 228 LINE SMOOTH",
"195 198 OFFCURVE",
"179 179 OFFCURVE",
"150 173 CURVE SMOOTH",
"45 152 LINE",
"45 0 LINE"
);
},
{
closed = 1;
nodes = (
"1427 0 LINE",
"1427 152 LINE",
"1324 182 LINE SMOOTH",
"1287 193 OFFCURVE",
"1274 201 OFFCURVE",
"1257 236 CURVE SMOOTH",
"1109 532 LINE SMOOTH",
"1046 659 OFFCURVE",
"997 735 OFFCURVE",
"921 803 CURVE",
"663 558 LINE",
"699 509 OFFCURVE",
"728 454 OFFCURVE",
"752 397 CURVE SMOOTH",
"834 202 LINE SMOOTH",
"878 97 OFFCURVE",
"915 0 OFFCURVE",
"987 0 CURVE SMOOTH"
);
},
{
closed = 1;
nodes = (
"1144 912 LINE SMOOTH",
"1178 944 OFFCURVE",
"1196 949 OFFCURVE",
"1253 963 CURVE SMOOTH",
"1370 992 LINE",
"1370 1137 LINE",
"761 1137 LINE",
"761 992 LINE",
"1024 944 LINE",
"1024 1046 LINE",
"517 516 LINE",
"536 326 LINE"
);
}
);
width = 1445;
}
);
unicode = 006B;
},
{
glyphname = l;
lastChange = "2016-01-10 17:50:50 +0000";
layers = (
{
anchors = (
{
name = btm;
position = "{339, 0}";
},
{
name = top;
position = "{312, 1781}";
},
{
name = topright;
position = "{433, 1136}";
}
);
background = {
anchors = (
{
name = btm;
position = "{381, -170}";
},
{
name = top;
position = "{352, 1700}";
}
);
paths = (
{
closed = 1;
nodes = (
"114 0 LINE",
"652 0 LINE",
"652 88 LINE",
"433 106 LINE",
"461 67 LINE",
"461 1650 LINE",
"421 1678 LINE",
"420 1678 LINE",
"119 1642 LINE",
"119 1567 LINE",
"295 1549 LINE",
"295 67 LINE",
"328 107 LINE",
"114 88 LINE"
);
}
);
};
layerId = "CC155F3D-C5F1-4BD6-ADDB-35EE7B3EECEB";
name = Light;
paths = (
{
closed = 1;
nodes = (
"431 1769 LINE",
"405 1797 LINE",
"300 1793 OFFCURVE",
"155 1776 OFFCURVE",
"50 1742 CURVE",
"50 1667 LINE",
"209 1645 LINE SMOOTH",
"245 1640 OFFCURVE",
"266 1620 OFFCURVE",
"266 1583 CURVE SMOOTH",
"266 169 LINE SMOOTH",
"266 132 OFFCURVE",
"246 112 OFFCURVE",
"209 107 CURVE SMOOTH",
"56 88 LINE",
"56 0 LINE",
"641 0 LINE",
"641 86 LINE",
"488 107 LINE SMOOTH",
"451 112 OFFCURVE",
"431 132 OFFCURVE",
"431 170 CURVE SMOOTH"
);
}
);
width = 697;
},
{
anchors = (
{
name = btm;
position = "{390, 0}";
},
{
name = top;
position = "{382, 1781}";
},
{
name = topright;
position = "{596, 1138}";
}
);
background = {
anchors = (
{
name = btm;
position = "{397, -170}";
},
{
name = top;
position = "{320, 1700}";
}
);
paths = (
{
closed = 1;
nodes = (
"99 0 LINE",
"714 0 LINE",
"714 152 LINE",
"589 176 LINE",
"603 153 LINE",
"603 1630 LINE",
"535 1680 LINE",
"529 1680 LINE",
"77 1627 LINE",
"77 1485 LINE",
"210 1455 LINE",
"210 160 LINE",
"226 176 LINE",
"99 152 LINE"
);
}
);
};
layerId = "8FEE59FF-6340-42D3-B032-E0350BDE9EA7";
name = Bold;
paths = (
{
closed = 1;
nodes = (
"597 1753 LINE",
"545 1800 LINE",
"394 1800 OFFCURVE",
"183 1773 OFFCURVE",
"32 1735 CURVE",
"32 1583 LINE",
"158 1563 LINE SMOOTH",
"187 1558 OFFCURVE",
"202 1538 OFFCURVE",
"202 1508 CURVE SMOOTH",
"202 227 LINE SMOOTH",
"202 197 OFFCURVE",
"186 178 OFFCURVE",
"157 173 CURVE SMOOTH",
"42 152 LINE",
"42 0 LINE",
"757 0 LINE",
"757 152 LINE",
"642 173 LINE SMOOTH",
"613 178 OFFCURVE",
"597 197 OFFCURVE",
"597 227 CURVE SMOOTH"
);
}
);
width = 799;
}
);
unicode = 006C;
},
{
glyphname = m;
lastChange = "2016-01-10 17:50:50 +0000";
layers = (
{
anchors = (
{
name = btm;
position = "{1061, 0}";
},
{
name = top;
position = "{1061, 1136}";
}
);
background = {
anchors = (
{
name = btm;
position = "{1052, -170}";
},
{
name = top;
position = "{1052, 1700}";
}
);
paths = (
{
closed = 1;
nodes = (
"149 0 LINE",
"590 0 LINE",
"590 88 LINE",
"409 108 LINE",
"445 72 LINE",
"445 901 LINE",
"529 966 OFFCURVE",
"666 1036 OFFCURVE",
"781 1036 CURVE SMOOTH",
"979 1036 OFFCURVE",
"1007 921 OFFCURVE",
"1007 684 CURVE SMOOTH",
"1007 73 LINE",
"1054 109 LINE",
"859 88 LINE",
"859 0 LINE",
"1327 0 LINE",
"1327 88 LINE",
"1127 109 LINE",
"1172 67 LINE",
"1172 683 LINE",
"1172 1018 OFFCURVE",
"1102 1164 OFFCURVE",
"847 1164 CURVE SMOOTH",
"701 1164 OFFCURVE",
"514 1065 OFFCURVE",
"425 987 CURVE",
"427 1038 LINE",
"427 1129 LINE",
"387 1161 LINE",
"382 1161 LINE",
"121 1129 LINE",
"121 1037 LINE",
"280 1001 LINE",
"280 72 LINE",
"330 110 LINE",
"149 88 LINE"
);
},
{
closed = 1;
nodes = (
"1139 919 LINE",
"1205 972 OFFCURVE",
"1339 1038 OFFCURVE",
"1453 1038 CURVE SMOOTH",
"1661 1038 OFFCURVE",
"1698 916 OFFCURVE",
"1698 680 CURVE SMOOTH",
"1698 65 LINE",
"1743 109 LINE",
"1560 88 LINE",
"1560 0 LINE",
"2018 0 LINE",
"2018 88 LINE",
"1809 110 LINE",
"1863 65 LINE",
"1863 686 LINE",
"1863 1017 OFFCURVE",
"1794 1164 OFFCURVE",
"1534 1164 CURVE SMOOTH",
"1380 1164 OFFCURVE",
"1177 1063 OFFCURVE",
"1113 1002 CURVE"
);
}
);
};
layerId = "CC155F3D-C5F1-4BD6-ADDB-35EE7B3EECEB";
name = Light;
paths = (
{
closed = 1;
nodes = (
"2057 0 LINE",
"2057 88 LINE",
"1929 107 LINE SMOOTH",
"1893 112 OFFCURVE",
"1872 133 OFFCURVE",
"1872 170 CURVE SMOOTH",
"1872 713 LINE SMOOTH",
"1872 1012 OFFCURVE",
"1792 1164 OFFCURVE",
"1519 1164 CURVE SMOOTH",
"1385 1164 OFFCURVE",
"1226 1127 OFFCURVE",
"1095 969 CURVE",
"1096 884 LINE",
"1207 996 OFFCURVE",
"1336 1036 OFFCURVE",
"1458 1036 CURVE SMOOTH",
"1659 1036 OFFCURVE",
"1707 926 OFFCURVE",
"1707 684 CURVE SMOOTH",
"1707 170 LINE SMOOTH",
"1707 130 OFFCURVE",
"1682 112 OFFCURVE",
"1650 107 CURVE SMOOTH",
"1527 88 LINE",
"1527 0 LINE"
);
},
{
closed = 1;
nodes = (
"634 0 LINE",
"634 88 LINE",
"510 107 LINE SMOOTH",
"474 113 OFFCURVE",
"454 133 OFFCURVE",
"454 171 CURVE SMOOTH",
"454 935 LINE",
"436 1129 LINE",
"405 1161 LINE",
"307 1159 OFFCURVE",
"187 1141 OFFCURVE",
"89 1109 CURVE",
"89 1027 LINE",
"234 1009 LINE SMOOTH",
"270 1005 OFFCURVE",
"289 982 OFFCURVE",
"289 945 CURVE SMOOTH",
"289 171 LINE SMOOTH",
"289 134 OFFCURVE",
"269 112 OFFCURVE",
"233 107 CURVE SMOOTH",
"104 88 LINE",
"104 0 LINE"
);
},
{
closed = 1;
nodes = (
"1343 0 LINE",
"1343 88 LINE",
"1220 107 LINE SMOOTH",
"1184 113 OFFCURVE",
"1163 133 OFFCURVE",
"1163 170 CURVE SMOOTH",
"1163 723 LINE SMOOTH",
"1163 1002 OFFCURVE",
"1093 1164 OFFCURVE",
"828 1164 CURVE SMOOTH",
"682 1164 OFFCURVE",
"515 1115 OFFCURVE",
"406 949 CURVE",
"397 871 LINE",
"489 983 OFFCURVE",
"650 1036 OFFCURVE",
"778 1036 CURVE SMOOTH",
"970 1036 OFFCURVE",
"998 916 OFFCURVE",
"998 684 CURVE SMOOTH",
"998 170 LINE SMOOTH",
"998 130 OFFCURVE",
"973 112 OFFCURVE",
"941 107 CURVE SMOOTH",
"818 88 LINE",
"818 0 LINE"
);
}
);
width = 2117;
},
{
anchors = (
{
name = btm;
position = "{1098, 0}";
},
{
name = top;
position = "{1098, 1138}";
}
);
background = {
anchors = (
{
name = btm;
position = "{1073, -170}";
},
{
name = top;
position = "{1073, 1700}";
}
);
paths = (
{
closed = 1;
nodes = (
"90 0 LINE",
"693 0 LINE",
"693 151 LINE",
"575 176 LINE",
"595 154 LINE",
"595 874 LINE",
"629 906 OFFCURVE",
"687 944 OFFCURVE",
"759 944 CURVE SMOOTH",
"855 944 OFFCURVE",
"885 894 OFFCURVE",
"885 723 CURVE SMOOTH",
"885 149 LINE",
"922 182 LINE",
"800 151 LINE",
"800 0 LINE",
"1391 0 LINE",
"1391 151 LINE",
"1254 180 LINE",
"1291 153 LINE",
"1291 724 LINE",
"1291 1021 OFFCURVE",
"1210 1162 OFFCURVE",
"961 1162 CURVE SMOOTH",
"859 1162 OFFCURVE",
"650 1099 OFFCURVE",
"557 1002 CURVE",
"558 1051 LINE",
"558 1120 LINE",
"499 1167 LINE",
"494 1167 LINE",
"81 1118 LINE",
"81 934 LINE",
"190 895 LINE",
"190 161 LINE",
"210 176 LINE",
"90 151 LINE"
);
},
{
closed = 1;
nodes = (
"1247 842 LINE",
"1277 873 OFFCURVE",
"1353 944 OFFCURVE",
"1439 944 CURVE SMOOTH",
"1531 944 OFFCURVE",
"1566 894 OFFCURVE",
"1566 714 CURVE SMOOTH",
"1566 146 LINE",
"1602 182 LINE",
"1491 151 LINE",
"1491 0 LINE",
"2080 0 LINE",
"2080 151 LINE",
"1949 176 LINE",
"1970 155 LINE",
"1970 724 LINE",
"1970 1034 OFFCURVE",
"1863 1162 OFFCURVE",
"1628 1162 CURVE SMOOTH",
"1474 1162 OFFCURVE",
"1331 1098 OFFCURVE",
"1238 998 CURVE"
);
}
);
};
layerId = "8FEE59FF-6340-42D3-B032-E0350BDE9EA7";
name = Bold;
paths = (
{
closed = 1;
nodes = (
"2140 0 LINE",
"2140 151 LINE",
"2034 173 LINE SMOOTH",
"2005 179 OFFCURVE",
"1990 197 OFFCURVE",
"1990 227 CURVE SMOOTH",
"1990 724 LINE SMOOTH",
"1990 999 OFFCURVE",
"1913 1162 OFFCURVE",
"1641 1162 CURVE SMOOTH",
"1462 1162 OFFCURVE",
"1318 1096 OFFCURVE",
"1223 965 CURVE",
"1228 851 LINE",
"1296 908 OFFCURVE",
"1372 934 OFFCURVE",
"1434 934 CURVE SMOOTH",
"1542 934 OFFCURVE",
"1595 864 OFFCURVE",
"1595 683 CURVE SMOOTH",
"1595 227 LINE SMOOTH",
"1595 198 OFFCURVE",
"1582 184 OFFCURVE",
"1552 172 CURVE SMOOTH",
"1500 151 LINE",
"1500 0 LINE"
);
},
{
closed = 1;
nodes = (
"715 0 LINE",
"715 151 LINE",
"658 173 LINE SMOOTH",
"632 183 OFFCURVE",
"620 197 OFFCURVE",
"620 227 CURVE SMOOTH",
"620 909 LINE",
"578 1120 LINE",
"524 1167 LINE",
"381 1165 OFFCURVE",
"213 1146 OFFCURVE",
"65 1108 CURVE",
"65 948 LINE",
"183 922 LINE SMOOTH",
"211 916 OFFCURVE",
"225 894 OFFCURVE",
"225 865 CURVE SMOOTH",
"225 227 LINE SMOOTH",
"225 197 OFFCURVE",
"209 179 OFFCURVE",
"181 173 CURVE SMOOTH",
"75 151 LINE",
"75 0 LINE"
);
},
{
closed = 1;
nodes = (
"1400 0 LINE",
"1400 151 LINE",
"1347 172 LINE SMOOTH",
"1318 184 OFFCURVE",
"1305 197 OFFCURVE",
"1305 227 CURVE SMOOTH",
"1305 734 LINE SMOOTH",
"1305 1008 OFFCURVE",
"1224 1162 OFFCURVE",
"955 1162 CURVE SMOOTH",
"776 1162 OFFCURVE",
"639 1093 OFFCURVE",
"554 958 CURVE",
"554 855 LINE",
"608 907 OFFCURVE",
"686 934 OFFCURVE",
"750 934 CURVE SMOOTH",
"857 934 OFFCURVE",
"910 874 OFFCURVE",
"910 693 CURVE SMOOTH",
"910 227 LINE SMOOTH",
"910 198 OFFCURVE",
"897 184 OFFCURVE",
"867 172 CURVE SMOOTH",
"815 151 LINE",
"815 0 LINE"
);
}
);
width = 2179;
}
);
unicode = 006D;
},
{
glyphname = n;
lastChange = "2016-01-10 17:50:50 +0000";
layers = (
{
anchors = (
{
name = apostrophe;
position = "{89, 1136}";
},
{
name = btm;
position = "{743, 0}";
},
{
name = top;
position = "{727, 1136}";
}
);
background = {
anchors = (
{
name = btm;
position = "{720, -170}";
},
{
name = top;
position = "{686, 1700}";
}
);
paths = (
{
closed = 1;
nodes = (
"143 0 LINE",
"595 0 LINE",
"595 88 LINE",
"411 108 LINE",
"446 72 LINE",
"446 900 LINE",
"530 965 OFFCURVE",
"671 1036 OFFCURVE",
"788 1036 CURVE SMOOTH",
"986 1036 OFFCURVE",
"1020 922 OFFCURVE",
"1020 684 CURVE SMOOTH",
"1020 73 LINE",
"1068 109 LINE",
"879 88 LINE",
"879 0 LINE",
"1339 0 LINE",
"1339 88 LINE",
"1140 108 LINE",
"1185 67 LINE",
"1185 683 LINE",
"1185 1011 OFFCURVE",
"1123 1164 OFFCURVE",
"858 1164 CURVE SMOOTH",
"705 1164 OFFCURVE",
"515 1065 OFFCURVE",
"426 987 CURVE",
"428 1038 LINE",
"428 1129 LINE",
"388 1161 LINE",
"383 1161 LINE",
"122 1129 LINE",
"122 1037 LINE",
"281 1001 LINE",
"281 72 LINE",
"330 110 LINE",
"143 88 LINE"
);
}
);
};
layerId = "CC155F3D-C5F1-4BD6-ADDB-35EE7B3EECEB";
name = Light;
paths = (
{
closed = 1;
nodes = (
"1381 0 LINE",
"1381 88 LINE",
"1253 107 LINE SMOOTH",
"1217 112 OFFCURVE",
"1196 133 OFFCURVE",
"1196 170 CURVE SMOOTH",
"1196 723 LINE SMOOTH",
"1196 1002 OFFCURVE",
"1120 1164 OFFCURVE",
"855 1164 CURVE SMOOTH",
"696 1164 OFFCURVE",
"527 1115 OFFCURVE",
"405 949 CURVE",
"396 867 LINE",
"502 981 OFFCURVE",
"644 1036 OFFCURVE",
"795 1036 CURVE SMOOTH",
"987 1036 OFFCURVE",
"1031 916 OFFCURVE",
"1031 684 CURVE SMOOTH",
"1031 170 LINE SMOOTH",
"1031 130 OFFCURVE",
"1006 112 OFFCURVE",
"974 107 CURVE SMOOTH",
"851 88 LINE",
"851 0 LINE"
);
},
{
closed = 1;
nodes = (
"634 0 LINE",
"634 88 LINE",
"510 107 LINE SMOOTH",
"474 113 OFFCURVE",
"454 134 OFFCURVE",
"454 171 CURVE SMOOTH",
"454 935 LINE",
"436 1129 LINE",
"405 1161 LINE",
"307 1159 OFFCURVE",
"187 1141 OFFCURVE",
"89 1109 CURVE",
"89 1027 LINE",
"234 1009 LINE SMOOTH",
"270 1005 OFFCURVE",
"289 982 OFFCURVE",
"289 945 CURVE SMOOTH",
"289 171 LINE SMOOTH",
"289 134 OFFCURVE",
"269 112 OFFCURVE",
"232 107 CURVE SMOOTH",
"104 88 LINE",
"104 0 LINE"
);
}
);
width = 1441;
},
{
anchors = (
{
name = apostrophe;
position = "{65, 1138}";
},
{
name = btm;
position = "{771, 0}";
},
{
name = top;
position = "{757, 1138}";
}
);
background = {
anchors = (
{
name = btm;
position = "{754, -170}";
},
{
name = top;
position = "{779, 1700}";
}
);
paths = (
{
closed = 1;
nodes = (
"91 0 LINE",
"699 0 LINE",
"699 152 LINE",
"579 176 LINE",
"599 154 LINE",
"599 874 LINE",
"630 900 OFFCURVE",
"688 944 OFFCURVE",
"765 944 CURVE SMOOTH",
"860 944 OFFCURVE",
"890 894 OFFCURVE",
"890 723 CURVE SMOOTH",
"890 149 LINE",
"927 182 LINE",
"805 152 LINE",
"805 0 LINE",
"1397 0 LINE",
"1397 154 LINE",
"1259 180 LINE",
"1297 155 LINE",
"1297 724 LINE",
"1297 1050 OFFCURVE",
"1200 1162 OFFCURVE",
"966 1162 CURVE SMOOTH",
"789 1162 OFFCURVE",
"646 1086 OFFCURVE",
"561 1003 CURVE",
"563 1051 LINE",
"563 1120 LINE",
"503 1167 LINE",
"498 1167 LINE",
"85 1118 LINE",
"85 934 LINE",
"194 895 LINE",
"194 161 LINE",
"215 176 LINE",
"91 152 LINE"
);
}
);
};
layerId = "8FEE59FF-6340-42D3-B032-E0350BDE9EA7";
name = Bold;
paths = (
{
closed = 1;
nodes = (
"1467 0 LINE",
"1467 152 LINE",
"1361 173 LINE SMOOTH",
"1332 179 OFFCURVE",
"1317 197 OFFCURVE",
"1317 227 CURVE SMOOTH",
"1317 734 LINE SMOOTH",
"1317 1008 OFFCURVE",
"1236 1162 OFFCURVE",
"967 1162 CURVE SMOOTH",
"788 1162 OFFCURVE",
"651 1093 OFFCURVE",
"556 958 CURVE",
"556 853 LINE",
"620 907 OFFCURVE",
"698 934 OFFCURVE",
"762 934 CURVE SMOOTH",
"869 934 OFFCURVE",
"922 874 OFFCURVE",
"922 693 CURVE SMOOTH",
"922 227 LINE SMOOTH",
"922 198 OFFCURVE",
"909 183 OFFCURVE",
"879 172 CURVE SMOOTH",
"822 151 LINE",
"822 0 LINE"
);
},
{
closed = 1;
nodes = (
"720 0 LINE",
"720 151 LINE",
"662 172 LINE SMOOTH",
"635 182 OFFCURVE",
"620 197 OFFCURVE",
"620 227 CURVE SMOOTH",
"620 909 LINE",
"578 1120 LINE",
"524 1167 LINE",
"381 1165 OFFCURVE",
"213 1146 OFFCURVE",
"65 1108 CURVE",
"65 949 LINE",
"183 923 LINE SMOOTH",
"211 917 OFFCURVE",
"225 895 OFFCURVE",
"225 866 CURVE SMOOTH",
"225 227 LINE SMOOTH",
"225 197 OFFCURVE",
"209 179 OFFCURVE",
"181 173 CURVE SMOOTH",
"75 151 LINE",
"75 0 LINE"
);
}
);
width = 1506;
}
);
unicode = 006E;
},
{
glyphname = o;
lastChange = "2016-01-10 17:50:50 +0000";
layers = (
{
anchors = (
{
name = btm;
position = "{639, 0}";
},
{
name = top;
position = "{639, 1136}";
}
);
background = {
anchors = (
{
name = btm;
position = "{601, -170}";
},
{
name = top;
position = "{617, 1700}";
}
);
paths = (
{
closed = 1;
nodes = (
"608 84 CURVE SMOOTH",
"370 84 OFFCURVE",
"279 314 OFFCURVE",
"279 587 CURVE SMOOTH",
"279 901 OFFCURVE",
"402 1061 OFFCURVE",
"610 1061 CURVE SMOOTH",
"850 1061 OFFCURVE",
"938 828 OFFCURVE",
"938 558 CURVE SMOOTH",
"938 245 OFFCURVE",
"816 84 OFFCURVE"
);
},
{
closed = 1;
nodes = (
"93 576 CURVE SMOOTH",
"93 254 OFFCURVE",
"231 -23 OFFCURVE",
"599 -23 CURVE SMOOTH",
"860 -23 OFFCURVE",
"1125 196 OFFCURVE",
"1125 569 CURVE SMOOTH",
"1125 891 OFFCURVE",
"986 1168 OFFCURVE",
"618 1168 CURVE SMOOTH",
"357 1168 OFFCURVE",
"93 948 OFFCURVE"
);
}
);
};
layerId = "CC155F3D-C5F1-4BD6-ADDB-35EE7B3EECEB";
name = Light;
paths = (
{
closed = 1;
nodes = (
"969 559 CURVE SMOOTH",
"969 229 OFFCURVE",
"867 79 OFFCURVE",
"648 79 CURVE SMOOTH",
"385 79 OFFCURVE",
"308 298 OFFCURVE",
"308 586 CURVE SMOOTH",
"308 917 OFFCURVE",
"411 1066 OFFCURVE",
"630 1066 CURVE SMOOTH",
"891 1066 OFFCURVE",
"969 850 OFFCURVE"
);
},
{
closed = 1;
nodes = (
"123 567 CURVE SMOOTH",
"123 227 OFFCURVE",
"260 -23 OFFCURVE",
"619 -23 CURVE SMOOTH",
"912 -23 OFFCURVE",
"1155 164 OFFCURVE",
"1155 576 CURVE SMOOTH",
"1155 917 OFFCURVE",
"1017 1168 OFFCURVE",
"658 1168 CURVE SMOOTH",
"366 1168 OFFCURVE",
"123 981 OFFCURVE"
);
}
);
width = 1278;
},
{
anchors = (
{
name = btm;
position = "{661, 0}";
},
{
name = top;
position = "{661, 1138}";
}
);
background = {
anchors = (
{
name = btm;
position = "{562, -170}";
},
{
name = top;
position = "{629, 1700}";
}
);
paths = (
{
closed = 1;
nodes = (
"642 134 CURVE SMOOTH",
"527 134 OFFCURVE",
"478 264 OFFCURVE",
"478 587 CURVE SMOOTH",
"478 889 OFFCURVE",
"531 1011 OFFCURVE",
"632 1011 CURVE SMOOTH",
"748 1011 OFFCURVE",
"789 881 OFFCURVE",
"789 558 CURVE SMOOTH",
"789 256 OFFCURVE",
"743 134 OFFCURVE"
);
},
{
closed = 1;
nodes = (
"53 559 CURVE SMOOTH",
"53 171 OFFCURVE",
"291 -23 OFFCURVE",
"619 -23 CURVE SMOOTH",
"944 -23 OFFCURVE",
"1216 147 OFFCURVE",
"1216 586 CURVE SMOOTH",
"1216 975 OFFCURVE",
"980 1168 OFFCURVE",
"650 1168 CURVE SMOOTH",
"326 1168 OFFCURVE",
"53 980 OFFCURVE"
);
}
);
};
layerId = "8FEE59FF-6340-42D3-B032-E0350BDE9EA7";
name = Bold;
paths = (
{
closed = 1;
nodes = (
"822 556 CURVE SMOOTH",
"822 232 OFFCURVE",
"769 132 OFFCURVE",
"664 132 CURVE SMOOTH",
"536 132 OFFCURVE",
"499 240 OFFCURVE",
"499 585 CURVE SMOOTH",
"499 909 OFFCURVE",
"552 1009 OFFCURVE",
"657 1009 CURVE SMOOTH",
"784 1009 OFFCURVE",
"822 901 OFFCURVE"
);
},
{
closed = 1;
nodes = (
"74 557 CURVE SMOOTH",
"74 147 OFFCURVE",
"297 -27 OFFCURVE",
"645 -27 CURVE SMOOTH",
"990 -27 OFFCURVE",
"1247 128 OFFCURVE",
"1247 584 CURVE SMOOTH",
"1247 995 OFFCURVE",
"1026 1168 OFFCURVE",
"676 1168 CURVE SMOOTH",
"332 1168 OFFCURVE",
"74 1010 OFFCURVE"
);
}
);
width = 1321;
}
);
unicode = 006F;
},
{
glyphname = p;
lastChange = "2016-01-10 17:53:23 +0000";
layers = (
{
anchors = (
{
name = btm;
position = "{711, 0}";
},
{
name = top;
position = "{762, 1136}";
}
);
background = {
anchors = (
{
name = btm;
position = "{666, -170}";
},
{
name = top;
position = "{717, 1700}";
}
);
paths = (
{
closed = 1;
nodes = (
"63 -405 LINE",
"63 -496 LINE",
"612 -496 LINE",
"612 -405 LINE",
"343 -381 LINE",
"385 -423 LINE",
"385 -164 LINE",
"381 10 LINE",
"385 68 LINE",
"385 963 LINE",
"365 986 LINE",
"365 1129 LINE",
"328 1161 LINE",
"323 1161 LINE",
"61 1129 LINE",
"61 1037 LINE",
"221 1001 LINE",
"221 -421 LINE",
"263 -380 LINE"
);
},
{
closed = 1;
nodes = (
"1183 610 CURVE SMOOTH",
"1183 1003 OFFCURVE",
"963 1168 OFFCURVE",
"735 1168 CURVE SMOOTH",
"535 1168 OFFCURVE",
"397 1047 OFFCURVE",
"334 970 CURVE",
"382 920 LINE",
"429 972 OFFCURVE",
"536 1042 OFFCURVE",
"667 1042 CURVE SMOOTH",
"850 1042 OFFCURVE",
"1008 908 OFFCURVE",
"1005 581 CURVE SMOOTH",
"1000 232 OFFCURVE",
"834 74 OFFCURVE",
"615 74 CURVE SMOOTH",
"502 74 OFFCURVE",
"405 111 OFFCURVE",
"385 144 CURVE",
"318 84 LINE",
"381 10 LINE",
"437 -10 OFFCURVE",
"533 -23 OFFCURVE",
"606 -23 CURVE SMOOTH",
"957 -23 OFFCURVE",
"1183 259 OFFCURVE"
);
}
);
};
layerId = "CC155F3D-C5F1-4BD6-ADDB-35EE7B3EECEB";
name = Light;
paths = (
{
closed = 1;
nodes = (
"657 -496 LINE",
"657 -408 LINE",
"487 -389 LINE SMOOTH",
"450 -385 OFFCURVE",
"430 -364 OFFCURVE",
"430 -327 CURVE SMOOTH",
"430 957 LINE",
"412 1129 LINE",
"381 1161 LINE",
"276 1159 OFFCURVE",
"170 1141 OFFCURVE",
"65 1109 CURVE",
"65 1027 LINE",
"212 1009 LINE SMOOTH",
"247 1005 OFFCURVE",
"265 980 OFFCURVE",
"265 944 CURVE SMOOTH",
"265 -326 LINE SMOOTH",
"265 -363 OFFCURVE",
"246 -384 OFFCURVE",
"209 -389 CURVE SMOOTH",
"80 -408 LINE",
"80 -496 LINE"
);
},
{
closed = 1;
nodes = (
"1018 -23 OFFCURVE",
"1228 225 OFFCURVE",
"1228 624 CURVE SMOOTH",
"1228 1007 OFFCURVE",
"1035 1168 OFFCURVE",
"778 1168 CURVE SMOOTH",
"581 1168 OFFCURVE",
"466 1074 OFFCURVE",
"394 965 CURVE",
"420 917 LINE",
"480 980 OFFCURVE",
"578 1042 OFFCURVE",
"719 1042 CURVE SMOOTH",
"948 1042 OFFCURVE",
"1053 879 OFFCURVE",
"1049 571 CURVE SMOOTH",
"1044 212 OFFCURVE",
"895 81 OFFCURVE",
"664 81 CURVE SMOOTH",
"546 81 OFFCURVE",
"452 115 OFFCURVE",
"409 154 CURVE",
"381 35 LINE",
"450 -8 OFFCURVE",
"568 -23 OFFCURVE",
"657 -23 CURVE SMOOTH"
);
}
);
width = 1351;
},
{
anchors = (
{
name = btm;
position = "{656, 0}";
},
{
name = top;
position = "{708, 1138}";
}
);
background = {
anchors = (
{
name = btm;
position = "{652, -170}";
},
{
name = top;
position = "{704, 1700}";
}
);
paths = (
{
closed = 1;
nodes = (
"96 -354 LINE",
"96 -496 LINE",
"754 -496 LINE",
"754 -354 LINE",
"573 -323 LINE",
"595 -359 LINE",
"595 -170 LINE",
"589 -7 LINE",
"595 137 LINE",
"595 954 LINE",
"567 1004 LINE",
"567 1120 LINE",
"506 1167 LINE",
"501 1167 LINE",
"99 1118 LINE",
"99 934 LINE",
"208 895 LINE",
"208 -358 LINE",
"241 -319 LINE"
);
},
{
closed = 1;
nodes = (
"1309 604 CURVE SMOOTH",
"1309 1010 OFFCURVE",
"1117 1168 OFFCURVE",
"867 1168 CURVE SMOOTH",
"721 1168 OFFCURVE",
"599 1077 OFFCURVE",
"556 998 CURVE",
"593 898 LINE",
"617 928 OFFCURVE",
"669 956 OFFCURVE",
"724 956 CURVE SMOOTH",
"827 956 OFFCURVE",
"895 843 OFFCURVE",
"893 568 CURVE SMOOTH",
"892 227 OFFCURVE",
"798 126 OFFCURVE",
"691 126 CURVE SMOOTH",
"647 126 OFFCURVE",
"612 141 OFFCURVE",
"595 160 CURVE",
"550 94 LINE",
"589 -7 LINE",
"606 -13 OFFCURVE",
"646 -23 OFFCURVE",
"683 -23 CURVE SMOOTH",
"1107 -23 OFFCURVE",
"1309 281 OFFCURVE"
);
}
);
};
layerId = "8FEE59FF-6340-42D3-B032-E0350BDE9EA7";
name = Bold;
paths = (
{
closed = 1;
nodes = (
"798 -496 LINE",
"798 -345 LINE",
"645 -323 LINE SMOOTH",
"615 -319 OFFCURVE",
"599 -299 OFFCURVE",
"599 -268 CURVE SMOOTH",
"599 930 LINE",
"557 1120 LINE",
"503 1167 LINE",
"367 1167 OFFCURVE",
"180 1141 OFFCURVE",
"44 1108 CURVE",
"44 949 LINE",
"164 922 LINE SMOOTH",
"191 916 OFFCURVE",
"204 894 OFFCURVE",
"204 865 CURVE SMOOTH",
"204 -268 LINE SMOOTH",
"204 -298 OFFCURVE",
"189 -317 OFFCURVE",
"160 -323 CURVE SMOOTH",
"54 -345 LINE",
"54 -496 LINE"
);
},
{
closed = 1;
nodes = (
"1076 -23 OFFCURVE",
"1322 198 OFFCURVE",
"1322 624 CURVE SMOOTH",
"1322 998 OFFCURVE",
"1141 1168 OFFCURVE",
"902 1168 CURVE SMOOTH",
"725 1168 OFFCURVE",
"603 1077 OFFCURVE",
"520 948 CURVE",
"550 882 LINE",
"574 912 OFFCURVE",
"647 941 OFFCURVE",
"722 941 CURVE SMOOTH",
"849 941 OFFCURVE",
"909 843 OFFCURVE",
"907 568 CURVE SMOOTH",
"906 227 OFFCURVE",
"822 123 OFFCURVE",
"695 123 CURVE SMOOTH",
"641 123 OFFCURVE",
"583 132 OFFCURVE",
"539 186 CURVE",
"523 -4 LINE",
"590 -17 OFFCURVE",
"647 -23 OFFCURVE",
"697 -23 CURVE SMOOTH"
);
}
);
width = 1396;
}
);
unicode = 0070;
},
{
glyphname = q;
lastChange = "2016-01-10 17:50:50 +0000";
layers = (
{
anchors = (
{
name = btm;
position = "{652, 0}";
},
{
name = top;
position = "{629, 1136}";
}
);
background = {
anchors = (
{
name = btm;
position = "{624, -170}";
},
{
name = top;
position = "{601, 1700}";
}
);
paths = (
{
closed = 1;
nodes = (
"664 -412 LINE",
"664 -496 LINE",
"1202 -496 LINE",
"1202 -412 LINE",
"1011 -385 LINE",
"1058 -425 LINE",
"1058 1129 LINE",
"1024 1162 LINE",
"1023 1162 LINE",
"892 1119 LINE",
"892 202 LINE",
"899 136 LINE",
"893 -48 LINE",
"893 -425 LINE",
"938 -387 LINE"
);
},
{
closed = 1;
nodes = (
"544 -23 CURVE SMOOTH",
"743 -23 OFFCURVE",
"877 99 OFFCURVE",
"941 176 CURVE",
"895 222 LINE",
"852 175 OFFCURVE",
"748 97 OFFCURVE",
"612 97 CURVE SMOOTH",
"427 97 OFFCURVE",
"271 249 OFFCURVE",
"274 576 CURVE SMOOTH",
"279 924 OFFCURVE",
"444 1078 OFFCURVE",
"662 1078 CURVE SMOOTH",
"770 1078 OFFCURVE",
"877 1038 OFFCURVE",
"892 1005 CURVE",
"973 1118 LINE",
"906 1143 OFFCURVE",
"791 1168 OFFCURVE",
"678 1168 CURVE SMOOTH",
"318 1168 OFFCURVE",
"95 896 OFFCURVE",
"95 547 CURVE SMOOTH",
"95 155 OFFCURVE",
"316 -23 OFFCURVE"
);
}
);
};
layerId = "CC155F3D-C5F1-4BD6-ADDB-35EE7B3EECEB";
name = Light;
paths = (
{
closed = 1;
nodes = (
"579 -23 CURVE SMOOTH",
"761 -23 OFFCURVE",
"899 84 OFFCURVE",
"971 190 CURVE",
"943 236 LINE",
"862 159 OFFCURVE",
"760 106 OFFCURVE",
"636 106 CURVE SMOOTH",
"461 106 OFFCURVE",
"303 202 OFFCURVE",
"303 572 CURVE SMOOTH",
"303 945 OFFCURVE",
"475 1065 OFFCURVE",
"689 1065 CURVE SMOOTH",
"795 1065 OFFCURVE",
"901 1030 OFFCURVE",
"954 958 CURVE",
"1022 1073 LINE",
"950 1125 OFFCURVE",
"825 1168 OFFCURVE",
"691 1168 CURVE SMOOTH",
"366 1168 OFFCURVE",
"122 955 OFFCURVE",
"122 540 CURVE SMOOTH",
"122 139 OFFCURVE",
"328 -23 OFFCURVE"
);
},
{
closed = 1;
nodes = (
"1086 1132 LINE",
"1051 1162 LINE",
"921 1089 LINE",
"921 -327 LINE SMOOTH",
"921 -364 OFFCURVE",
"901 -385 OFFCURVE",
"864 -389 CURVE SMOOTH",
"694 -408 LINE",
"694 -496 LINE",
"1230 -496 LINE",
"1230 -408 LINE",
"1142 -391 LINE SMOOTH",
"1107 -384 OFFCURVE",
"1086 -364 OFFCURVE",
"1086 -327 CURVE SMOOTH"
);
}
);
width = 1297;
},
{
anchors = (
{
name = btm;
position = "{650, 0}";
},
{
name = top;
position = "{627, 1138}";
}
);
background = {
anchors = (
{
name = btm;
position = "{623, -170}";
},
{
name = top;
position = "{600, 1700}";
}
);
paths = (
{
closed = 1;
nodes = (
"559 -354 LINE",
"559 -496 LINE",
"1300 -496 LINE",
"1300 -354 LINE",
"1134 -321 LINE",
"1163 -358 LINE",
"1163 1120 LINE",
"1113 1157 LINE",
"1108 1157 LINE",
"776 1101 LINE",
"776 203 LINE",
"784 130 LINE",
"776 -48 LINE",
"776 -358 LINE",
"811 -322 LINE"
);
},
{
closed = 1;
nodes = (
"500 -23 CURVE SMOOTH",
"643 -23 OFFCURVE",
"793 59 OFFCURVE",
"844 185 CURVE",
"776 242 LINE",
"752 210 OFFCURVE",
"701 182 OFFCURVE",
"647 182 CURVE SMOOTH",
"544 182 OFFCURVE",
"475 300 OFFCURVE",
"477 580 CURVE SMOOTH",
"478 915 OFFCURVE",
"570 1011 OFFCURVE",
"676 1011 CURVE SMOOTH",
"720 1011 OFFCURVE",
"760 997 OFFCURVE",
"776 978 CURVE",
"939 1118 LINE",
"915 1127 OFFCURVE",
"785 1168 OFFCURVE",
"686 1168 CURVE SMOOTH",
"261 1168 OFFCURVE",
"58 867 OFFCURVE",
"58 544 CURVE SMOOTH",
"58 139 OFFCURVE",
"251 -23 OFFCURVE"
);
}
);
};
layerId = "8FEE59FF-6340-42D3-B032-E0350BDE9EA7";
name = Bold;
paths = (
{
closed = 1;
nodes = (
"526 -23 CURVE SMOOTH",
"708 -23 OFFCURVE",
"823 68 OFFCURVE",
"886 208 CURVE",
"847 248 LINE",
"803 209 OFFCURVE",
"730 184 OFFCURVE",
"664 184 CURVE SMOOTH",
"542 184 OFFCURVE",
"489 300 OFFCURVE",
"490 594 CURVE SMOOTH",
"491 885 OFFCURVE",
"563 1005 OFFCURVE",
"690 1005 CURVE SMOOTH",
"762 1005 OFFCURVE",
"804 983 OFFCURVE",
"835 934 CURVE",
"1059 1045 LINE",
"965 1114 OFFCURVE",
"803 1168 OFFCURVE",
"660 1168 CURVE SMOOTH",
"280 1168 OFFCURVE",
"75 923 OFFCURVE",
"75 536 CURVE SMOOTH",
"75 148 OFFCURVE",
"261 -23 OFFCURVE"
);
},
{
closed = 1;
nodes = (
"1198 1110 LINE",
"1138 1157 LINE",
"803 1021 LINE",
"803 -270 LINE SMOOTH",
"803 -301 OFFCURVE",
"786 -319 OFFCURVE",
"756 -323 CURVE SMOOTH",
"586 -345 LINE",
"586 -496 LINE",
"1338 -496 LINE",
"1338 -345 LINE",
"1243 -323 LINE SMOOTH",
"1214 -316 OFFCURVE",
"1198 -300 OFFCURVE",
"1198 -268 CURVE SMOOTH"
);
}
);
width = 1353;
}
);
unicode = 0071;
},
{
glyphname = r;
lastChange = "2016-01-10 17:50:50 +0000";
layers = (
{
anchors = (
{
name = btm;
position = "{400, -170}";
},
{
name = top;
position = "{496, 1700}";
}
);
associatedMasterId = "6D8A9A52-7D7D-4498-B039-FDF10F245A16";
background = {
anchors = (
{
name = btm;
position = "{400, -170}";
},
{
name = top;
position = "{496, 1700}";
}
);
paths = (
{
closed = 1;
nodes = (
"141 0 LINE",
"743 0 LINE",
"743 84 LINE",
"430 103 LINE",
"471 69 LINE",
"471 876 LINE",
"533 924 OFFCURVE",
"644 997 OFFCURVE",
"821 997 CURVE SMOOTH",
"865 997 OFFCURVE",
"906 985 OFFCURVE",
"915 979 CURVE",
"915 1159 LINE",
"900 1164 OFFCURVE",
"882 1168 OFFCURVE",
"854 1168 CURVE SMOOTH",
"627 1168 OFFCURVE",
"474 967 OFFCURVE",
"450 941 CURVE",
"449 941 LINE",
"450 1057 LINE",
"450 1129 LINE",
"411 1161 LINE",
"406 1161 LINE",
"147 1129 LINE",
"147 1037 LINE",
"305 1001 LINE",
"305 69 LINE",
"332 102 LINE",
"141 85 LINE"
);
}
);
};
layerId = "B65C96F2-03F3-4C36-8550-4A3159D726C2";
name = "Light Sep 15 15, 14:24";
paths = (
{
closed = 1;
nodes = (
"101 0 LINE",
"743 0 LINE",
"743 84 LINE",
"529 107 LINE SMOOTH",
"491 111 OFFCURVE",
"471 131 OFFCURVE",
"471 169 CURVE SMOOTH",
"471 876 LINE",
"533 924 OFFCURVE",
"634 999 OFFCURVE",
"761 999 CURVE SMOOTH",
"825 999 OFFCURVE",
"837 939 OFFCURVE",
"872 773 CURVE",
"955 783 LINE",
"970 885 OFFCURVE",
"981 1039 OFFCURVE",
"977 1137 CURVE",
"943 1157 OFFCURVE",
"888 1168 OFFCURVE",
"849 1168 CURVE SMOOTH",
"627 1168 OFFCURVE",
"487 978 OFFCURVE",
"463 952 CURVE",
"450 1133 LINE",
"423 1161 LINE",
"325 1159 OFFCURVE",
"205 1139 OFFCURVE",
"107 1109 CURVE",
"107 1027 LINE",
"248 1009 LINE SMOOTH",
"290 1004 OFFCURVE",
"305 981 OFFCURVE",
"305 938 CURVE SMOOTH",
"305 167 LINE SMOOTH",
"305 130 OFFCURVE",
"285 109 OFFCURVE",
"248 104 CURVE SMOOTH",
"101 85 LINE"
);
}
);
width = 1002;
},
{
anchors = (
{
name = btm;
position = "{393, 0}";
},
{
name = top;
position = "{574, 1136}";
}
);
background = {
anchors = (
{
name = btm;
position = "{374, -170}";
},
{
name = top;
position = "{470, 1700}";
}
);
paths = (
{
closed = 1;
nodes = (
"115 0 LINE",
"717 0 LINE",
"717 84 LINE",
"404 103 LINE",
"445 69 LINE",
"445 876 LINE",
"507 924 OFFCURVE",
"618 997 OFFCURVE",
"795 997 CURVE SMOOTH",
"839 997 OFFCURVE",
"880 985 OFFCURVE",
"889 979 CURVE",
"889 1159 LINE",
"874 1164 OFFCURVE",
"856 1168 OFFCURVE",
"828 1168 CURVE SMOOTH",
"601 1168 OFFCURVE",
"448 967 OFFCURVE",
"424 941 CURVE",
"423 941 LINE",
"424 1057 LINE",
"424 1129 LINE",
"385 1161 LINE",
"380 1161 LINE",
"121 1129 LINE",
"121 1037 LINE",
"279 1001 LINE",
"279 69 LINE",
"306 102 LINE",
"115 85 LINE"
);
}
);
};
layerId = "CC155F3D-C5F1-4BD6-ADDB-35EE7B3EECEB";
name = Light;
paths = (
{
closed = 1;
nodes = (
"419 826 LINE",
"516 951 OFFCURVE",
"645 1006 OFFCURVE",
"769 1006 CURVE SMOOTH",
"808 1006 OFFCURVE",
"826 989 OFFCURVE",
"833 947 CURVE SMOOTH",
"860 779 LINE",
"947 779 LINE",
"968 885 OFFCURVE",
"978 1032 OFFCURVE",
"970 1142 CURVE",
"936 1159 OFFCURVE",
"881 1168 OFFCURVE",
"842 1168 CURVE SMOOTH",
"662 1168 OFFCURVE",
"473 1010 OFFCURVE",
"414 904 CURVE"
);
},
{
closed = 1;
nodes = (
"433 1133 LINE",
"406 1161 LINE",
"309 1159 OFFCURVE",
"187 1139 OFFCURVE",
"89 1109 CURVE",
"89 1027 LINE",
"232 1009 LINE SMOOTH",
"274 1004 OFFCURVE",
"289 981 OFFCURVE",
"289 938 CURVE SMOOTH",
"289 170 LINE SMOOTH",
"289 133 OFFCURVE",
"269 113 OFFCURVE",
"232 107 CURVE SMOOTH",
"104 88 LINE",
"104 0 LINE",
"726 0 LINE",
"726 84 LINE",
"513 107 LINE SMOOTH",
"475 111 OFFCURVE",
"454 132 OFFCURVE",
"454 170 CURVE SMOOTH",
"454 902 LINE"
);
}
);
width = 1053;
},
{
anchors = (
{
name = btm;
position = "{452, 0}";
},
{
name = top;
position = "{609, 1138}";
}
);
background = {
anchors = (
{
name = btm;
position = "{427, -170}";
},
{
name = top;
position = "{479, 1700}";
}
);
paths = (
{
closed = 1;
nodes = (
"89 0 LINE",
"804 0 LINE",
"804 151 LINE",
"564 176 LINE",
"595 155 LINE",
"595 755 LINE",
"624 775 OFFCURVE",
"694 796 OFFCURVE",
"779 796 CURVE SMOOTH",
"883 796 OFFCURVE",
"933 764 OFFCURVE",
"973 734 CURVE",
"973 1150 LINE",
"958 1160 OFFCURVE",
"925 1168 OFFCURVE",
"884 1168 CURVE SMOOTH",
"696 1168 OFFCURVE",
"556 994 OFFCURVE",
"532 889 CURVE",
"524 889 LINE",
"531 1064 LINE",
"531 1120 LINE",
"465 1167 LINE",
"460 1167 LINE",
"91 1118 LINE",
"91 934 LINE",
"200 895 LINE",
"200 161 LINE",
"214 175 LINE",
"89 152 LINE"
);
}
);
};
layerId = "8FEE59FF-6340-42D3-B032-E0350BDE9EA7";
name = Bold;
paths = (
{
closed = 1;
nodes = (
"574 746 LINE",
"643 825 OFFCURVE",
"723 849 OFFCURVE",
"771 848 CURVE SMOOTH",
"817 847 OFFCURVE",
"838 839 OFFCURVE",
"855 788 CURVE SMOOTH",
"892 681 LINE",
"1062 681 LINE",
"1098 837 OFFCURVE",
"1108 1019 OFFCURVE",
"1092 1135 CURVE",
"1058 1152 OFFCURVE",
"974 1168 OFFCURVE",
"928 1168 CURVE SMOOTH",
"774 1168 OFFCURVE",
"636 1032 OFFCURVE",
"536 791 CURVE"
);
},
{
closed = 1;
nodes = (
"556 1120 LINE",
"495 1167 LINE",
"362 1165 OFFCURVE",
"198 1146 OFFCURVE",
"65 1108 CURVE",
"65 949 LINE",
"183 923 LINE SMOOTH",
"211 917 OFFCURVE",
"225 895 OFFCURVE",
"225 866 CURVE SMOOTH",
"225 227 LINE SMOOTH",
"225 197 OFFCURVE",
"209 179 OFFCURVE",
"180 173 CURVE SMOOTH",
"75 152 LINE",
"75 0 LINE",
"829 0 LINE",
"829 152 LINE",
"667 173 LINE SMOOTH",
"636 177 OFFCURVE",
"620 196 OFFCURVE",
"620 227 CURVE SMOOTH",
"620 799 LINE"
);
}
);
width = 1140;
}
);
unicode = 0072;
},
{
glyphname = s;
lastChange = "2016-01-10 17:50:50 +0000";
layers = (
{
anchors = (
{
name = btm;
position = "{500, 0}";
},
{
name = top;
position = "{542, 1136}";
}
);
background = {
anchors = (
{
name = btm;
position = "{520, -170}";
},
{
name = top;
position = "{522, 1700}";
}
);
paths = (
{
closed = 1;
nodes = (
"119 64 LINE",
"185 28 OFFCURVE",
"361 -23 OFFCURVE",
"487 -23 CURVE SMOOTH",
"740 -23 OFFCURVE",
"911 98 OFFCURVE",
"911 303 CURVE SMOOTH",
"911 508 OFFCURVE",
"739 581 OFFCURVE",
"558 654 CURVE SMOOTH",
"422 711 OFFCURVE",
"287 749 OFFCURVE",
"287 905 CURVE SMOOTH",
"287 1005 OFFCURVE",
"381 1069 OFFCURVE",
"515 1067 CURVE SMOOTH",
"607 1067 OFFCURVE",
"690 1039 OFFCURVE",
"709 1003 CURVE",
"745 855 LINE",
"846 855 LINE",
"846 1098 LINE",
"803 1114 OFFCURVE",
"693 1161 OFFCURVE",
"530 1161 CURVE SMOOTH",
"317 1161 OFFCURVE",
"134 1051 OFFCURVE",
"134 870 CURVE SMOOTH",
"134 684 OFFCURVE",
"236 586 OFFCURVE",
"450 509 CURVE SMOOTH",
"654 435 OFFCURVE",
"758 378 OFFCURVE",
"758 259 CURVE SMOOTH",
"758 148 OFFCURVE",
"690 73 OFFCURVE",
"507 73 CURVE SMOOTH",
"396 73 OFFCURVE",
"288 119 OFFCURVE",
"260 162 CURVE",
"229 321 LINE",
"119 321 LINE"
);
}
);
};
layerId = "CC155F3D-C5F1-4BD6-ADDB-35EE7B3EECEB";
name = Light;
paths = (
{
closed = 1;
nodes = (
"138 64 CURVE",
"218 25 OFFCURVE",
"354 -23 OFFCURVE",
"510 -23 CURVE SMOOTH",
"764 -23 OFFCURVE",
"934 98 OFFCURVE",
"934 304 CURVE SMOOTH",
"934 512 OFFCURVE",
"759 595 OFFCURVE",
"578 662 CURVE SMOOTH",
"444 712 OFFCURVE",
"307 750 OFFCURVE",
"307 897 CURVE SMOOTH",
"307 1022 OFFCURVE",
"405 1077 OFFCURVE",
"530 1074 CURVE SMOOTH",
"602 1072 OFFCURVE",
"652 1052 OFFCURVE",
"680 1036 CURVE SMOOTH",
"717 1015 OFFCURVE",
"730 990 OFFCURVE",
"738 953 CURVE SMOOTH",
"768 818 LINE",
"856 818 LINE",
"873 912 OFFCURVE",
"879 1007 OFFCURVE",
"876 1105 CURVE",
"801 1139 OFFCURVE",
"670 1168 OFFCURVE",
"558 1168 CURVE SMOOTH",
"335 1168 OFFCURVE",
"154 1066 OFFCURVE",
"154 847 CURVE SMOOTH",
"154 660 OFFCURVE",
"285 589 OFFCURVE",
"470 517 CURVE SMOOTH",
"679 436 OFFCURVE",
"781 396 OFFCURVE",
"781 262 CURVE SMOOTH",
"781 143 OFFCURVE",
"702 72 OFFCURVE",
"547 72 CURVE SMOOTH",
"443 72 OFFCURVE",
"360 105 OFFCURVE",
"323 128 CURVE SMOOTH",
"293 147 OFFCURVE",
"282 166 OFFCURVE",
"271 212 CURVE SMOOTH",
"234 364 LINE",
"141 364 LINE",
"129 277 OFFCURVE",
"125 172 OFFCURVE"
);
}
);
width = 1053;
},
{
anchors = (
{
name = btm;
position = "{533, 0}";
},
{
name = top;
position = "{572, 1138}";
}
);
background = {
anchors = (
{
name = btm;
position = "{494, -170}";
},
{
name = top;
position = "{573, 1700}";
}
);
paths = (
{
closed = 1;
nodes = (
"88 57 LINE",
"167 47 OFFCURVE",
"309 -23 OFFCURVE",
"559 -23 CURVE SMOOTH",
"919 -23 OFFCURVE",
"1055 149 OFFCURVE",
"1055 329 CURVE SMOOTH",
"1055 545 OFFCURVE",
"873 639 OFFCURVE",
"703 713 CURVE SMOOTH",
"570 772 OFFCURVE",
"448 814 OFFCURVE",
"448 910 CURVE SMOOTH",
"448 976 OFFCURVE",
"501 1019 OFFCURVE",
"594 1019 CURVE SMOOTH",
"657 1019 OFFCURVE",
"701 995 OFFCURVE",
"712 975 CURVE",
"770 816 LINE",
"984 815 LINE",
"984 1105 LINE",
"903 1110 OFFCURVE",
"794 1166 OFFCURVE",
"565 1166 CURVE SMOOTH",
"248 1166 OFFCURVE",
"82 1011 OFFCURVE",
"82 821 CURVE SMOOTH",
"82 644 OFFCURVE",
"179 537 OFFCURVE",
"331 461 CURVE SMOOTH",
"501 374 OFFCURVE",
"660 336 OFFCURVE",
"660 233 CURVE SMOOTH",
"660 174 OFFCURVE",
"610 124 OFFCURVE",
"517 124 CURVE SMOOTH",
"458 124 OFFCURVE",
"385 149 OFFCURVE",
"370 174 CURVE",
"312 336 LINE",
"88 336 LINE"
);
}
);
};
layerId = "8FEE59FF-6340-42D3-B032-E0350BDE9EA7";
name = Bold;
paths = (
{
closed = 1;
nodes = (
"99 52 CURVE",
"215 7 OFFCURVE",
"374 -33 OFFCURVE",
"549 -33 CURVE SMOOTH",
"842 -33 OFFCURVE",
"1064 83 OFFCURVE",
"1064 326 CURVE SMOOTH",
"1064 543 OFFCURVE",
"891 628 OFFCURVE",
"695 715 CURVE SMOOTH",
"567 772 OFFCURVE",
"457 813 OFFCURVE",
"457 909 CURVE SMOOTH",
"457 977 OFFCURVE",
"509 1022 OFFCURVE",
"590 1022 CURVE SMOOTH",
"625 1022 OFFCURVE",
"662 1016 OFFCURVE",
"697 993 CURVE SMOOTH",
"723 975 OFFCURVE",
"733 961 OFFCURVE",
"747 921 CURVE SMOOTH",
"794 782 LINE",
"975 781 LINE",
"995 881 OFFCURVE",
"1000 1000 OFFCURVE",
"990 1097 CURVE",
"881 1139 OFFCURVE",
"718 1166 OFFCURVE",
"583 1166 CURVE SMOOTH",
"236 1166 OFFCURVE",
"91 1013 OFFCURVE",
"91 810 CURVE SMOOTH",
"91 636 OFFCURVE",
"200 545 OFFCURVE",
"363 462 CURVE SMOOTH",
"529 377 OFFCURVE",
"669 338 OFFCURVE",
"669 234 CURVE SMOOTH",
"669 174 OFFCURVE",
"619 114 OFFCURVE",
"528 114 CURVE SMOOTH",
"466 114 OFFCURVE",
"416 140 OFFCURVE",
"389 160 CURVE SMOOTH",
"364 179 OFFCURVE",
"357 196 OFFCURVE",
"344 238 CURVE SMOOTH",
"301 385 LINE",
"106 385 LINE",
"90 281 OFFCURVE",
"85 159 OFFCURVE"
);
}
);
width = 1131;
}
);
unicode = 0073;
},
{
glyphname = t;
lastChange = "2016-01-10 17:50:50 +0000";
layers = (
{
anchors = (
{
name = btm;
position = "{486, 0}";
},
{
name = topright;
position = "{414, 1138}";
}
);
background = {
anchors = (
{
name = btm;
position = "{485, -170}";
},
{
name = top;
position = "{353, 1870}";
}
);
paths = (
{
closed = 1;
nodes = (
"227 206 LINE",
"227 27 OFFCURVE",
"312 -23 OFFCURVE",
"444 -23 CURVE",
"446 -23 LINE",
"559 -22 OFFCURVE",
"732 37 OFFCURVE",
"791 82 CURVE",
"765 159 LINE",
"764 159 LINE",
"718 138 OFFCURVE",
"604 108 OFFCURVE",
"521 108 CURVE",
"520 108 LINE",
"408 108 OFFCURVE",
"393 124 OFFCURVE",
"393 353 CURVE SMOOTH",
"393 1015 LINE",
"756 1015 LINE",
"756 1136 LINE",
"393 1136 LINE",
"393 1428 LINE",
"298 1428 LINE",
"291 1391 OFFCURVE",
"253 1239 OFFCURVE",
"236 1192 CURVE SMOOTH",
"225 1160 OFFCURVE",
"212 1141 OFFCURVE",
"191 1128 CURVE",
"174 1118 OFFCURVE",
"108 1104 OFFCURVE",
"72 1096 CURVE",
"72 1015 LINE",
"227 1015 LINE"
);
}
);
};
layerId = "CC155F3D-C5F1-4BD6-ADDB-35EE7B3EECEB";
name = Light;
paths = (
{
closed = 1;
nodes = (
"248 266 LINE SMOOTH",
"248 35 OFFCURVE",
"394 -23 OFFCURVE",
"544 -23 CURVE SMOOTH",
"685 -23 OFFCURVE",
"812 42 OFFCURVE",
"870 157 CURVE",
"810 207 LINE",
"759 146 OFFCURVE",
"684 109 OFFCURVE",
"588 109 CURVE SMOOTH",
"482 109 OFFCURVE",
"414 152 OFFCURVE",
"414 333 CURVE SMOOTH",
"414 1015 LINE",
"808 1015 LINE",
"808 1136 LINE",
"414 1136 LINE",
"414 1468 LINE",
"315 1468 LINE",
"257 1181 LINE SMOOTH",
"250 1147 OFFCURVE",
"232 1128 OFFCURVE",
"196 1124 CURVE SMOOTH",
"68 1109 LINE",
"68 1026 LINE",
"248 1006 LINE"
);
}
);
width = 906;
},
{
anchors = (
{
name = btm;
position = "{491, 0}";
},
{
name = topright;
position = "{583, 1138}";
}
);
background = {
anchors = (
{
name = btm;
position = "{463, -170}";
},
{
name = top;
position = "{436, 1929}";
}
);
paths = (
{
closed = 1;
nodes = (
"170 247 LINE",
"170 78 OFFCURVE",
"253 -16 OFFCURVE",
"448 -16 CURVE",
"450 -16 LINE",
"628 -16 OFFCURVE",
"788 42 OFFCURVE",
"866 105 CURVE",
"817 249 LINE",
"816 249 LINE",
"773 238 OFFCURVE",
"722 225 OFFCURVE",
"658 225 CURVE",
"657 225 LINE",
"580 225 OFFCURVE",
"572 242 OFFCURVE",
"572 450 CURVE SMOOTH",
"572 951 LINE",
"837 951 LINE",
"837 1138 LINE",
"568 1138 LINE",
"553 1452 LINE",
"328 1452 LINE",
"304 1374 OFFCURVE",
"283 1311 OFFCURVE",
"257 1255 CURVE SMOOTH",
"234 1201 OFFCURVE",
"210 1166 OFFCURVE",
"186 1140 CURVE",
"187 1139 OFFCURVE",
"54 1084 OFFCURVE",
"55 1082 CURVE",
"55 951 LINE",
"170 951 LINE"
);
}
);
};
layerId = "8FEE59FF-6340-42D3-B032-E0350BDE9EA7";
name = Bold;
paths = (
{
closed = 1;
nodes = (
"193 347 LINE SMOOTH",
"193 67 OFFCURVE",
"316 -16 OFFCURVE",
"533 -16 CURVE SMOOTH",
"726 -16 OFFCURVE",
"881 53 OFFCURVE",
"951 208 CURVE",
"879 291 LINE",
"826 249 OFFCURVE",
"762 235 OFFCURVE",
"717 235 CURVE SMOOTH",
"630 235 OFFCURVE",
"588 282 OFFCURVE",
"588 430 CURVE SMOOTH",
"588 931 LINE",
"883 931 LINE",
"883 1138 LINE",
"584 1138 LINE",
"569 1512 LINE",
"351 1512 LINE",
"231 1190 LINE SMOOTH",
"218 1156 OFFCURVE",
"203 1142 OFFCURVE",
"167 1134 CURVE SMOOTH",
"43 1107 LINE",
"43 956 LINE",
"193 926 LINE"
);
}
);
width = 956;
}
);
unicode = 0074;
},
{
glyphname = u;
lastChange = "2016-01-10 17:50:50 +0000";
layers = (
{
anchors = (
{
name = btm;
position = "{709, 0}";
},
{
name = top;
position = "{638, 1136}";
}
);
background = {
anchors = (
{
name = btm;
position = "{664, -170}";
},
{
name = top;
position = "{623, 1700}";
}
);
paths = (
{
closed = 1;
nodes = (
"927 -3 OFFCURVE",
"965 -19 OFFCURVE",
"1031 -19 CURVE SMOOTH",
"1102 -19 OFFCURVE",
"1155 -1 OFFCURVE",
"1201 12 CURVE",
"1202 90 LINE",
"1075 90 LINE",
"1075 1137 LINE",
"1029 1161 LINE",
"1027 1161 LINE",
"753 1135 LINE",
"753 1059 LINE",
"910 1023 LINE",
"910 233 LINE",
"846 179 OFFCURVE",
"730 103 OFFCURVE",
"596 103 CURVE SMOOTH",
"406 103 OFFCURVE",
"366 203 OFFCURVE",
"366 446 CURVE SMOOTH",
"366 1137 LINE",
"329 1161 LINE",
"328 1161 LINE",
"80 1135 LINE",
"80 1059 LINE",
"201 1024 LINE",
"201 422 LINE",
"201 111 OFFCURVE",
"293 -23 OFFCURVE",
"545 -23 CURVE SMOOTH",
"697 -23 OFFCURVE",
"846 73 OFFCURVE",
"927 148 CURVE",
"927 68 LINE"
);
}
);
};
layerId = "CC155F3D-C5F1-4BD6-ADDB-35EE7B3EECEB";
name = Light;
paths = (
{
closed = 1;
nodes = (
"1001 180 CURVE",
"981 245 LINE",
"887 147 OFFCURVE",
"774 103 OFFCURVE",
"649 103 CURVE SMOOTH",
"460 103 OFFCURVE",
"411 212 OFFCURVE",
"411 436 CURVE SMOOTH",
"411 1133 LINE",
"385 1161 LINE",
"284 1157 OFFCURVE",
"162 1144 OFFCURVE",
"61 1113 CURVE",
"61 1031 LINE",
"191 1011 LINE SMOOTH",
"229 1005 OFFCURVE",
"246 983 OFFCURVE",
"246 947 CURVE SMOOTH",
"246 402 LINE SMOOTH",
"246 116 OFFCURVE",
"347 -23 OFFCURVE",
"602 -23 CURVE SMOOTH",
"782 -23 OFFCURVE",
"904 69 OFFCURVE"
);
},
{
closed = 1;
nodes = (
"1300 19 CURVE",
"1300 100 LINE",
"1180 110 LINE SMOOTH",
"1145 113 OFFCURVE",
"1120 127 OFFCURVE",
"1120 176 CURVE SMOOTH",
"1120 1133 LINE",
"1094 1161 LINE",
"989 1161 OFFCURVE",
"844 1143 OFFCURVE",
"739 1116 CURVE",
"739 1034 LINE",
"900 1011 LINE SMOOTH",
"936 1006 OFFCURVE",
"955 984 OFFCURVE",
"955 947 CURVE SMOOTH",
"955 172 LINE",
"963 74 OFFCURVE",
"1005 -16 OFFCURVE",
"1123 -16 CURVE SMOOTH",
"1179 -16 OFFCURVE",
"1257 3 OFFCURVE"
);
}
);
width = 1377;
},
{
anchors = (
{
name = btm;
position = "{766, 0}";
},
{
name = top;
position = "{713, 1138}";
}
);
background = {
anchors = (
{
name = btm;
position = "{728, -170}";
},
{
name = top;
position = "{695, 1700}";
}
);
paths = (
{
closed = 1;
nodes = (
"1022 -23 CURVE SMOOTH",
"1155 -23 OFFCURVE",
"1265 0 OFFCURVE",
"1318 11 CURVE",
"1318 160 LINE",
"1217 160 LINE",
"1217 1135 LINE",
"1165 1163 LINE",
"1159 1163 LINE",
"704 1137 LINE",
"704 992 LINE",
"822 963 LINE",
"822 243 LINE",
"802 224 OFFCURVE",
"758 184 OFFCURVE",
"673 184 CURVE SMOOTH",
"589 184 OFFCURVE",
"550 229 OFFCURVE",
"550 384 CURVE SMOOTH",
"550 1135 LINE",
"504 1163 LINE",
"501 1163 LINE",
"67 1136 LINE",
"67 988 LINE",
"155 963 LINE",
"155 405 LINE",
"155 94 OFFCURVE",
"262 -23 OFFCURVE",
"536 -23 CURVE SMOOTH",
"673 -23 OFFCURVE",
"815 62 OFFCURVE",
"868 149 CURVE",
"868 116 LINE",
"868 34 OFFCURVE",
"909 -23 OFFCURVE"
);
}
);
};
layerId = "8FEE59FF-6340-42D3-B032-E0350BDE9EA7";
name = Bold;
paths = (
{
closed = 1;
nodes = (
"970 192 CURVE",
"927 257 LINE",
"865 214 OFFCURVE",
"798 186 OFFCURVE",
"734 186 CURVE SMOOTH",
"638 186 OFFCURVE",
"588 230 OFFCURVE",
"588 414 CURVE SMOOTH",
"588 1119 LINE",
"536 1166 LINE",
"390 1168 OFFCURVE",
"194 1148 OFFCURVE",
"48 1114 CURVE",
"48 955 LINE",
"151 927 LINE SMOOTH",
"180 919 OFFCURVE",
"193 899 OFFCURVE",
"193 870 CURVE SMOOTH",
"193 365 LINE SMOOTH",
"193 99 OFFCURVE",
"315 -23 OFFCURVE",
"551 -23 CURVE SMOOTH",
"767 -23 OFFCURVE",
"875 49 OFFCURVE"
);
},
{
closed = 1;
nodes = (
"1413 20 CURVE",
"1413 164 LINE",
"1318 177 LINE SMOOTH",
"1286 181 OFFCURVE",
"1268 195 OFFCURVE",
"1268 237 CURVE SMOOTH",
"1268 1119 LINE",
"1216 1166 LINE",
"1069 1166 OFFCURVE",
"872 1150 OFFCURVE",
"725 1116 CURVE",
"725 957 LINE",
"831 929 LINE SMOOTH",
"859 922 OFFCURVE",
"873 900 OFFCURVE",
"873 871 CURVE SMOOTH",
"873 207 LINE",
"908 47 OFFCURVE",
"1004 -19 OFFCURVE",
"1159 -19 CURVE SMOOTH",
"1252 -19 OFFCURVE",
"1363 5 OFFCURVE"
);
}
);
width = 1459;
}
);
unicode = 0075;
},
{
glyphname = v;
lastChange = "2016-01-10 17:50:50 +0000";
layers = (
{
anchors = (
{
name = btm;
position = "{614, 0}";
},
{
name = top;
position = "{614, 1136}";
}
);
background = {
anchors = (
{
name = btm;
position = "{648, -170}";
},
{
name = top;
position = "{648, 1700}";
}
);
paths = (
{
closed = 1;
nodes = (
"580 -17 LINE",
"718 -17 LINE",
"1139 1076 LINE",
"1073 1015 LINE",
"1225 1052 LINE",
"1225 1136 LINE",
"833 1136 LINE",
"833 1052 LINE",
"997 1024 LINE",
"994 1075 LINE",
"759 407 LINE",
"655 68 LINE",
"694 68 LINE",
"571 418 LINE",
"335 1076 LINE",
"310 1021 LINE",
"505 1052 LINE",
"505 1136 LINE",
"70 1136 LINE",
"70 1052 LINE",
"206 1017 LINE",
"149 1071 LINE"
);
}
);
};
layerId = "CC155F3D-C5F1-4BD6-ADDB-35EE7B3EECEB";
name = Light;
paths = (
{
closed = 1;
nodes = (
"584 -17 LINE",
"692 -17 LINE",
"1054 978 LINE SMOOTH",
"1065 1008 OFFCURVE",
"1085 1024 OFFCURVE",
"1116 1032 CURVE SMOOTH",
"1191 1052 LINE",
"1191 1136 LINE",
"763 1136 LINE",
"763 1052 LINE",
"943 1022 LINE"
);
},
{
closed = 1;
nodes = (
"687 58 LINE",
"334 1023 LINE",
"517 1052 LINE",
"517 1136 LINE",
"22 1136 LINE",
"22 1052 LINE",
"97 1031 LINE SMOOTH",
"128 1022 OFFCURVE",
"147 1005 OFFCURVE",
"158 976 CURVE SMOOTH",
"546 -17 LINE",
"656 -17 LINE"
);
}
);
width = 1223;
},
{
anchors = (
{
name = btm;
position = "{627, 0}";
},
{
name = top;
position = "{627, 1138}";
}
);
background = {
anchors = (
{
name = btm;
position = "{635, -170}";
},
{
name = top;
position = "{635, 1700}";
}
);
paths = (
{
closed = 1;
nodes = (
"517 -16 LINE",
"839 -16 LINE",
"1222 1020 LINE",
"1159 958 LINE",
"1311 991 LINE",
"1311 1138 LINE",
"806 1138 LINE",
"806 991 LINE",
"962 960 LINE",
"942 1020 LINE",
"774 451 LINE",
"727 203 LINE",
"768 203 LINE",
"711 451 LINE",
"539 1020 LINE",
"507 957 LINE",
"674 991 LINE",
"674 1138 LINE",
"40 1138 LINE",
"40 991 LINE",
"151 956 LINE",
"96 1015 LINE"
);
}
);
};
layerId = "8FEE59FF-6340-42D3-B032-E0350BDE9EA7";
name = Bold;
paths = (
{
closed = 1;
nodes = (
"661 -16 LINE",
"838 -16 LINE",
"1169 918 LINE SMOOTH",
"1178 944 OFFCURVE",
"1196 955 OFFCURVE",
"1221 963 CURVE SMOOTH",
"1296 987 LINE",
"1296 1138 LINE",
"841 1138 LINE",
"841 984 LINE",
"978 953 LINE"
);
},
{
closed = 1;
nodes = (
"817 139 LINE",
"551 953 LINE",
"690 984 LINE",
"690 1138 LINE",
"2 1138 LINE",
"2 987 LINE",
"77 963 LINE SMOOTH",
"101 955 OFFCURVE",
"117 942 OFFCURVE",
"127 917 CURVE SMOOTH",
"496 -16 LINE",
"764 -16 LINE"
);
}
);
width = 1312;
}
);
unicode = 0076;
},
